<svg width="298" height="182" viewBox="0 0 298 182" fill="none" xmlns="http://www.w3.org/2000/svg">
<rect x="1.51221" y="1.2998" width="294.887" height="178.892" fill="black"/>
<rect x="1.51221" y="1.2998" width="294.887" height="178.892" fill="#84EA51" style="mix-blend-mode:darken"/>
<rect x="1.51221" y="1.2998" width="294.887" height="178.892" stroke="#B1D572" stroke-width="2"/>
<g clip-path="url(#clip0_257_101)">
<path d="M185.725 42.9458C185.007 42.8508 184.307 42.9714 183.646 43.2206C181.255 44.1223 179.746 45.8258 179.17 48.2943C178.8 49.8803 179.085 51.4061 179.819 52.8532C180.29 53.7795 180.914 54.5945 181.641 55.3359C182.505 56.2183 183.479 56.9639 184.52 57.6277C185.99 58.5652 187.556 59.3128 189.174 59.9623C189.346 60.0318 189.538 60.0665 189.711 60.2299C189.382 60.1788 189.093 60.1257 188.801 60.091C187.561 59.9409 186.335 60.0042 185.162 60.4617C183.161 61.242 181.882 62.7004 181.25 64.7164C180.78 66.2125 180.812 67.7067 181.425 69.1702C181.449 69.2294 181.467 69.2917 181.483 69.354C181.486 69.3652 181.469 69.3816 181.449 69.4163C181.316 69.3223 181.182 69.2325 181.05 69.1385C179.453 67.9906 177.682 67.2461 175.737 66.9274C174.558 66.7344 173.38 66.7354 172.222 67.0857C171.988 67.1572 171.752 67.2369 171.53 67.339C170.067 68.013 169.307 69.1702 169.185 70.7511C169.113 71.6907 169.266 72.6057 169.539 73.5024C169.653 73.8762 169.789 74.2449 169.914 74.6146L169.922 74.6033C169.861 74.5584 169.783 74.5257 169.741 74.4675C169.592 74.253 169.458 74.0273 169.312 73.8098C167.356 70.892 164.785 68.7034 161.516 67.3472C159.914 66.6823 158.247 66.2728 156.519 66.091C155.353 65.9685 154.185 65.9531 153.022 66.044C151.326 66.1768 149.685 66.5731 148.094 67.1776C146.285 67.8639 144.598 68.7657 143.066 69.9433C142.663 70.2527 142.281 70.5897 141.907 70.9339C141.668 71.1555 141.452 71.4047 141.241 71.6549C140.794 72.1809 140.526 72.7814 140.487 73.4779C140.396 75.0721 139.873 76.5417 139.146 77.949C138.651 78.9101 138.094 79.8364 137.446 80.7024C136.288 82.2517 135.588 83.996 135.135 85.8537C134.661 87.7911 134.525 89.757 134.664 91.7383C134.798 93.6573 135.237 95.5109 136.023 97.2757C137.065 99.6113 138.615 101.547 140.692 103.053C142.492 104.358 144.466 105.295 146.652 105.766C147.686 105.988 148.733 106.059 149.79 106.03C152.189 105.967 154.429 105.316 156.511 104.159C160.635 101.866 163.484 98.5135 164.909 94.0147C165.446 92.3194 165.687 90.5761 165.635 88.8001C165.573 86.7024 165.13 84.6905 164.17 82.8062C163.738 81.9576 163.208 81.1732 162.585 80.4501C161.551 79.2491 160.262 78.3892 158.863 77.6733C157.668 77.0616 156.402 76.6633 155.065 76.5325C153.709 76.3998 152.375 76.5346 151.072 76.9553C149.025 77.6161 147.294 78.764 145.805 80.2898C145.748 80.348 145.7 80.4144 145.629 80.5002C145.859 80.8975 146.17 81.2335 146.461 81.5807C146.754 81.931 147.066 82.268 147.377 82.6183C147.311 82.7776 147.146 82.793 147.024 82.8512C145.976 83.3475 145.027 83.9838 144.198 84.7926C142.776 86.1795 141.872 87.8595 141.361 89.757C141.247 90.1819 141.154 90.6149 141.082 91.049C141.012 91.4646 140.98 91.8874 140.932 92.3092C140.822 92.3061 140.813 92.2132 140.785 92.1407C140.197 90.6241 139.817 89.0595 139.684 87.4367C139.361 83.4547 140.371 79.8037 142.455 76.4192C142.667 76.073 142.898 75.737 143.199 75.3887C143.255 75.5164 143.299 75.596 143.324 75.6808C143.492 76.2772 143.652 76.8767 143.824 77.4721C143.886 77.6896 143.977 77.899 144.054 78.1073C144.27 78.093 144.356 77.9368 144.472 77.8285C145.419 76.938 146.447 76.1547 147.572 75.497C149.32 74.4757 151.192 73.7904 153.199 73.5004C155.752 73.1317 158.221 73.4728 160.567 74.5319C164.999 76.5325 168.003 79.8159 169.474 84.4454C169.92 85.8496 170.223 87.2876 170.355 88.7552C170.626 91.7404 170.167 94.6142 168.97 97.3676C168.196 99.1456 167.204 100.797 165.975 102.302C162.058 107.105 157.118 110.367 151.104 112.008C149.82 112.358 148.514 112.603 147.192 112.775C145.244 113.028 143.289 113.093 141.334 112.932C134.454 112.364 128.459 109.803 123.48 105.008C121.843 103.431 120.451 101.656 119.274 99.7155C117.835 97.3431 116.653 94.8542 115.867 92.1897C115.381 90.5404 115.058 88.8614 114.914 87.1467C114.753 85.2358 114.796 83.3312 115.007 81.4265C115.17 79.965 115.389 78.5138 115.767 77.0902C116.576 74.0447 117.921 71.2433 119.684 68.634C120.538 67.3707 121.48 66.1758 122.534 65.0697C122.706 64.889 122.84 64.6898 122.947 64.4662C123.29 63.7492 123.48 62.9955 123.528 62.204C123.619 60.7416 123.307 59.3485 122.792 57.9913C122.536 57.3182 122.234 56.6656 121.866 56.0457C121.749 55.8486 121.711 55.6648 121.789 55.4442C121.853 55.2645 121.88 55.0714 121.866 54.8631C121.818 54.9397 121.762 55.0132 121.721 55.0939C121.46 55.6086 121.124 56.0713 120.725 56.4879C119.045 58.2445 117.037 59.465 114.669 60.0777C114.352 60.1594 114.025 60.2136 113.7 60.2422C113.415 60.2677 113.204 60.3647 113.052 60.6119C112.915 60.8345 112.755 61.0439 112.6 61.2542C111.956 62.1223 111.125 62.7422 110.083 63.0517C109.802 63.1354 109.682 63.2876 109.611 63.5429C109.445 64.1404 109.272 64.7368 109.091 65.3302C108.872 66.0491 108.611 66.7538 108.285 67.433C108.03 67.965 107.735 68.4736 107.352 68.9271C107.301 68.9873 107.234 69.0353 107.171 69.0864C107.164 69.0925 107.143 69.0844 107.099 69.0782C107.041 68.9179 107.062 68.7371 107.058 68.5635C107.04 67.8905 106.936 67.2318 106.741 66.5873C106.573 66.0359 106.326 65.5232 105.988 65.0544C105.652 64.5908 105.321 64.123 104.983 63.6614C104.786 63.3918 104.67 63.0874 104.582 62.7729C104.417 62.1897 104.327 61.5923 104.276 60.9897C104.238 60.5342 104.217 60.0777 104.186 59.6212C104.182 59.5579 104.164 59.4956 104.151 59.419C103.974 59.3281 103.794 59.3363 103.628 59.4098C103.344 59.5354 103.066 59.6743 102.794 59.8255C102.51 59.9828 102.238 60.1605 101.914 60.3576C101.925 60.236 101.917 60.1696 101.938 60.1145C102.193 59.4588 102.472 58.8134 102.868 58.2272C103.014 58.0107 103.174 57.8013 103.344 57.6042C103.605 57.3019 103.93 57.0905 104.303 56.9373C104.924 56.681 105.542 56.4124 106.147 56.1213C106.652 55.8793 107.127 55.58 107.543 55.2062C107.786 54.9887 108.018 54.7518 108.217 54.4944C108.62 53.9746 108.745 53.3802 108.608 52.7358C108.578 52.5948 108.547 52.4539 108.515 52.3089C108.597 52.2445 108.657 52.1904 108.723 52.1445C110.595 50.8321 112.317 49.3411 113.994 47.7959C116.237 45.7288 118.366 43.5463 120.488 41.3588C121.172 40.6531 121.869 39.9596 122.566 39.2651C122.713 39.1181 122.858 38.9588 123.054 38.8944C123.174 38.9394 123.183 39.0241 123.162 39.1028C123.087 39.3867 123.02 39.6737 122.921 39.9494C122.405 41.3812 121.765 42.7579 121.057 44.105C121.003 44.2061 120.955 44.3082 120.907 44.4114C120.902 44.4226 120.915 44.442 120.927 44.4828C121.013 44.4828 121.107 44.491 121.2 44.4818C122.169 44.3777 123.138 44.3889 124.106 44.4798C125.073 44.5717 126.028 44.729 126.93 45.1109C127.117 45.1906 127.292 45.2141 127.5 45.1834C127.922 45.1211 128.35 45.0711 128.775 45.0731C130.232 45.0803 131.553 45.5245 132.735 46.3681C133.084 46.6163 133.403 46.8992 133.654 47.2485C133.756 47.3904 133.881 47.5293 133.862 47.7203C133.748 47.8102 133.665 47.7162 133.588 47.6835C132.863 47.3731 132.109 47.2515 131.325 47.3046C130.811 47.3394 130.318 47.4548 129.859 47.6917C129.62 47.8153 129.622 47.8183 129.445 48.1145C130.265 48.7896 130.908 49.6382 131.631 50.4491C131.802 50.4124 131.977 50.3787 132.149 50.3358C132.73 50.1918 133.314 50.1448 133.907 50.2561C134.751 50.4154 135.443 50.8178 135.954 51.5082C136.163 51.7901 136.21 51.9239 136.241 52.267C136.093 52.312 136.004 52.1914 135.897 52.1373C135.411 51.8902 134.903 51.7972 134.367 51.9096C133.911 52.0045 133.502 52.1996 133.186 52.5336C133.673 53.274 134.147 53.9981 134.645 54.7548C135.429 54.6895 136.139 54.9213 136.717 55.5096C137.147 55.9467 137.421 56.443 137.467 56.8842C136.645 56.4502 136.343 56.5033 135.842 57.1773C135.845 57.2171 135.837 57.2692 135.854 57.3121C136.378 58.6888 136.744 60.1114 137.115 61.5331C137.385 62.5758 137.631 63.6246 137.915 64.6633C138.044 65.1341 138.225 65.5926 138.413 66.044C138.498 66.2503 138.638 66.4454 138.79 66.6108C139.008 66.8478 139.236 66.858 139.492 66.6619C139.633 66.5536 139.762 66.4199 139.866 66.2759C140.03 66.0522 140.189 65.8204 140.314 65.5732C140.69 64.8297 141.05 64.0781 141.411 63.3274C141.468 63.211 141.509 63.0833 141.535 62.9567C141.917 61.1143 142.204 59.2607 142.157 57.3724C142.136 56.489 142.027 55.6158 141.78 54.762C141.36 53.3108 140.526 52.1833 139.158 51.4888C138.837 51.3254 138.662 51.0905 138.541 50.7749C138.095 49.6148 138.132 48.476 138.667 47.3537C138.987 46.6817 139.436 46.1005 139.957 45.5725C140.545 44.9741 141.206 44.4624 141.906 43.9998C143.239 43.1194 144.672 42.4301 146.15 41.8306C148.36 40.9339 150.639 40.2589 152.951 39.6767C154.418 39.307 155.9 39.0149 157.399 38.8219C158.687 38.6565 159.978 38.5227 161.279 38.492C162.315 38.4686 163.35 38.4175 164.386 38.4338C165.882 38.4573 167.379 38.5094 168.867 38.6749C170.092 38.8107 171.32 38.921 172.539 39.1007C176.121 39.6308 179.645 40.409 183.051 41.6519C183.836 41.9378 184.595 42.2963 185.363 42.6262C185.484 42.6772 185.597 42.7467 185.705 42.8192C185.73 42.8355 185.718 42.9029 185.724 42.9468L185.725 42.9458Z" fill="#B1D572"/>
<path d="M117.855 120.531C118.338 120.462 122.864 120.46 123.324 120.524C123.516 121.468 123.644 122.435 123.802 123.397C123.962 124.363 124.12 125.329 124.277 126.295C124.434 127.262 124.588 128.229 124.742 129.195C124.897 130.162 125.046 131.129 125.202 132.095C125.359 133.06 125.52 134.024 125.683 135.005C125.85 134.905 125.818 134.746 125.84 134.627C125.992 133.809 126.127 132.988 126.269 132.168C126.517 130.737 126.766 129.307 127.015 127.876C127.26 126.462 127.505 125.047 127.751 123.633C127.924 122.636 128.097 121.639 128.272 120.644C128.277 120.613 128.298 120.585 128.327 120.525C128.383 120.513 128.459 120.481 128.535 120.481C130.147 120.479 131.759 120.48 133.371 120.482C133.418 120.482 133.466 120.498 133.541 120.511C133.558 120.597 133.585 120.687 133.592 120.778C133.601 120.908 133.595 121.04 133.595 121.171C133.595 128.176 133.595 135.181 133.594 142.185C133.594 142.394 133.614 142.604 133.562 142.825C133.48 142.839 133.418 142.858 133.356 142.858C132.338 142.861 131.318 142.86 130.323 142.86C130.175 142.716 130.218 142.56 130.217 142.42C130.208 141.408 130.207 140.396 130.2 139.383C130.176 135.677 130.149 131.971 130.122 128.264C130.121 128.127 130.107 127.988 130.05 127.848C129.203 132.829 128.354 137.809 127.502 142.812C127.139 142.911 126.761 142.849 126.388 142.86C126.011 142.871 125.632 142.864 125.254 142.862C124.877 142.86 124.502 142.855 124.096 142.852C123.835 141.565 123.64 140.293 123.412 139.028C123.184 137.759 122.962 136.49 122.741 135.219C122.523 133.965 122.312 132.71 122.093 131.457C121.871 130.191 121.644 128.925 121.358 127.66C121.351 127.776 121.338 127.893 121.337 128.009C121.322 130.605 121.313 133.201 121.296 135.797C121.282 138.018 121.26 140.238 121.241 142.459C121.24 142.57 121.23 142.682 121.222 142.82C120.65 142.904 120.095 142.851 119.543 142.858C119.004 142.866 118.462 142.874 117.898 142.848C117.881 142.73 117.863 142.637 117.858 142.544C117.851 142.413 117.856 142.282 117.856 142.152C117.856 135.163 117.856 128.175 117.856 121.186C117.855 120.976 117.855 120.766 117.855 120.531Z" fill="#B1D572"/>
<path d="M176.548 142.844C175.397 142.844 174.297 142.844 173.169 142.844C173.133 142.739 173.082 142.64 173.063 142.534C172.57 139.738 172.08 136.942 171.593 134.146C171.249 132.169 170.91 130.191 170.567 128.214C170.537 128.043 170.489 127.873 170.385 127.712C170.376 129.388 170.369 131.063 170.357 132.738C170.344 134.403 170.324 136.069 170.31 137.734C170.298 139.414 170.291 141.094 170.282 142.796C170.189 142.819 170.114 142.854 170.039 142.854C169.069 142.857 168.098 142.856 167.128 142.854C167.066 142.854 167.004 142.831 166.92 142.814C166.91 142.658 166.893 142.515 166.892 142.373C166.83 136.275 166.868 120.976 166.943 120.54C166.955 120.529 166.966 120.517 166.98 120.509C166.993 120.5 167.009 120.492 167.024 120.492C168.668 120.486 170.312 120.481 171.956 120.476C172.055 120.476 172.154 120.481 172.251 120.489C172.282 120.492 172.311 120.514 172.375 120.542C172.588 121.725 172.769 122.933 172.961 124.14C173.154 125.348 173.351 126.556 173.547 127.764C173.742 128.972 173.935 130.18 174.134 131.387C174.331 132.591 174.51 133.8 174.763 135.001C175.003 134.054 175.14 133.096 175.314 132.144C175.49 131.181 175.649 130.216 175.816 129.251C175.984 128.27 176.153 127.289 176.322 126.308C176.488 125.344 176.654 124.379 176.823 123.415C176.991 122.454 177.164 121.494 177.339 120.514C177.456 120.499 177.551 120.48 177.646 120.477C179.186 120.43 182.147 120.458 182.599 120.526C182.61 120.611 182.627 120.703 182.633 120.797C182.639 120.911 182.635 121.025 182.635 121.14C182.635 128.16 182.635 135.181 182.635 142.202C182.635 142.396 182.635 142.59 182.635 142.795C182.547 142.82 182.487 142.854 182.428 142.854C181.441 142.857 180.455 142.857 179.467 142.855C179.421 142.855 179.374 142.835 179.325 142.825C179.218 142.675 179.261 142.507 179.259 142.35C179.244 140.929 179.235 139.51 179.227 138.089C179.206 134.775 179.186 131.461 179.165 128.147C179.164 128.05 179.165 127.953 179.107 127.846C179.084 127.944 179.057 128.041 179.036 128.14C179.013 128.251 178.991 128.363 178.972 128.476C178.758 129.763 178.548 131.051 178.33 132.338C178.084 133.785 177.83 135.231 177.582 136.679C177.37 137.916 177.16 139.155 176.952 140.394C176.831 141.118 176.718 141.843 176.6 142.568C176.588 142.645 176.571 142.722 176.548 142.844Z" fill="#B1D572"/>
<path d="M185.289 120.51C185.444 120.495 185.539 120.478 185.635 120.478C187.559 120.486 189.482 120.475 191.406 120.514C192.394 120.533 193.362 120.738 194.284 121.11C195.893 121.76 196.921 122.922 197.274 124.614C197.579 126.071 197.55 127.535 197.152 128.977C196.794 130.274 196 131.23 194.802 131.857C194.701 131.91 194.601 131.965 194.501 132.02C194.488 132.028 194.48 132.045 194.467 132.061C194.412 132.23 194.505 132.377 194.554 132.529C195.495 135.431 196.437 138.332 197.381 141.232C197.513 141.636 197.654 142.035 197.786 142.439C197.827 142.56 197.852 142.686 197.885 142.811C197.506 142.875 193.848 142.889 193.204 142.83C193.168 142.727 193.116 142.611 193.085 142.49C192.295 139.342 191.508 136.194 190.719 133.047C190.679 132.892 190.63 132.738 190.584 132.58C190.355 132.541 190.148 132.547 189.927 132.574C189.858 132.785 189.88 132.982 189.88 133.172C189.879 136.192 189.88 139.211 189.877 142.231C189.877 142.424 189.913 142.622 189.821 142.827C189.73 142.838 189.635 142.858 189.54 142.86C187.972 142.902 185.779 142.88 185.328 142.815C185.316 142.731 185.297 142.638 185.291 142.545C185.284 142.414 185.289 142.283 185.289 142.154C185.289 135.168 185.289 128.182 185.289 121.196C185.289 120.984 185.289 120.773 185.289 120.51ZM189.93 129.716C189.965 129.737 189.992 129.768 190.021 129.768C190.432 129.773 190.842 129.792 191.251 129.772C191.708 129.748 192.069 129.518 192.299 129.131C192.455 128.868 192.595 128.583 192.679 128.289C192.978 127.248 192.974 126.198 192.698 125.15C192.623 124.864 192.513 124.594 192.342 124.351C192.101 124.01 191.786 123.808 191.349 123.819C190.955 123.828 190.561 123.819 190.167 123.823C190.089 123.824 190.011 123.842 189.922 123.854C189.907 123.935 189.885 123.996 189.885 124.059C189.885 125.901 189.886 127.742 189.891 129.585C189.891 129.631 189.917 129.676 189.93 129.716Z" fill="#B1D572"/>
<path d="M199.414 120.465C199.821 120.393 203.339 120.388 203.832 120.461C203.842 120.544 203.861 120.636 203.865 120.729C203.871 120.876 203.867 121.023 203.867 121.17C203.867 125.562 203.863 129.952 203.87 134.344C203.871 135.225 203.896 136.107 203.945 136.987C203.969 137.407 204.061 137.825 204.154 138.238C204.215 138.509 204.353 138.756 204.55 138.962C204.826 139.251 205.186 139.359 205.567 139.401C205.861 139.433 206.154 139.412 206.448 139.34C206.897 139.231 207.206 138.971 207.407 138.568C207.556 138.272 207.635 137.953 207.677 137.63C207.731 137.211 207.77 136.786 207.785 136.363C207.806 135.776 207.803 135.188 207.803 134.6C207.804 130.094 207.804 125.59 207.804 121.084C207.804 120.889 207.804 120.694 207.804 120.479C207.897 120.454 207.971 120.415 208.046 120.414C209.411 120.411 210.776 120.413 212.14 120.414C212.172 120.414 212.205 120.426 212.266 120.438C212.283 120.517 212.314 120.607 212.32 120.699C212.331 120.828 212.323 120.96 212.323 121.09C212.323 125.481 212.321 129.872 212.324 134.263C212.325 135.293 212.274 136.319 212.128 137.338C212.008 138.181 211.803 139.002 211.446 139.781C210.754 141.295 209.579 142.228 207.965 142.633C207.177 142.83 206.376 142.862 205.568 142.853C204.841 142.845 204.128 142.754 203.431 142.549C202.013 142.131 200.976 141.265 200.323 139.95C199.957 139.212 199.745 138.427 199.603 137.62C199.415 136.555 199.375 135.479 199.374 134.401C199.371 129.928 199.372 125.456 199.374 120.983C199.372 120.808 199.343 120.627 199.414 120.465Z" fill="#B1D572"/>
<path d="M147.536 133.645C147.964 133.571 151.283 133.562 151.799 133.625C151.814 133.709 151.845 133.801 151.845 133.893C151.842 134.627 151.851 135.362 151.82 136.096C151.775 137.176 151.604 138.237 151.233 139.26C151.015 139.862 150.724 140.427 150.33 140.935C149.633 141.835 148.719 142.416 147.617 142.695C146.216 143.05 144.813 143.016 143.434 142.597C142.063 142.181 141.052 141.318 140.383 140.058C139.989 139.315 139.746 138.521 139.603 137.697C139.463 136.892 139.4 136.079 139.402 135.261C139.406 132.83 139.4 130.397 139.405 127.965C139.407 126.769 139.535 125.588 139.893 124.44C140.099 123.781 140.388 123.162 140.794 122.601C141.548 121.558 142.582 120.931 143.824 120.643C145.157 120.334 146.495 120.336 147.822 120.701C149.227 121.087 150.271 121.92 150.95 123.203C151.368 123.993 151.595 124.839 151.727 125.716C151.907 126.917 151.844 128.127 151.846 129.334C151.846 129.379 151.822 129.424 151.807 129.474C151.757 129.488 151.71 129.513 151.665 129.513C150.301 129.515 148.937 129.515 147.544 129.515C147.526 129.391 147.497 129.284 147.497 129.177C147.491 128.41 147.493 127.643 147.488 126.875C147.485 126.334 147.431 125.798 147.287 125.276C147.222 125.042 147.132 124.811 147.019 124.596C146.488 123.595 145.229 123.688 144.653 124.229C144.408 124.459 144.245 124.737 144.127 125.046C143.946 125.525 143.887 126.027 143.847 126.532C143.835 126.695 143.838 126.858 143.838 127.022C143.838 130.14 143.839 133.257 143.837 136.374C143.837 136.932 143.884 137.483 144.026 138.023C144.11 138.341 144.234 138.642 144.437 138.905C144.862 139.458 145.595 139.666 146.247 139.433C146.573 139.317 146.806 139.1 146.986 138.817C147.191 138.495 147.308 138.136 147.373 137.766C147.437 137.398 147.485 137.023 147.494 136.649C147.516 135.817 147.508 134.985 147.515 134.152C147.518 133.989 147.529 133.828 147.536 133.645Z" fill="#B1D572"/>
<path d="M107.437 120.495C108.774 120.495 110.085 120.495 111.425 120.495C111.467 120.623 111.516 120.742 111.543 120.864C112.31 124.403 113.072 127.943 113.841 131.482C114.612 135.036 115.389 138.59 116.161 142.144C116.209 142.362 116.245 142.583 116.29 142.826C116.143 142.84 116.031 142.86 115.919 142.86C114.557 142.858 113.194 142.872 111.806 142.851C111.61 142.053 111.485 141.267 111.331 140.488C111.177 139.706 111.021 138.923 110.865 138.127C110.371 138.039 109.896 138.091 109.425 138.085C108.951 138.079 108.474 138.068 107.971 138.099C107.772 138.889 107.666 139.677 107.515 140.456C107.363 141.239 107.224 142.022 107.082 142.797C107.005 142.824 106.96 142.853 106.915 142.853C105.517 142.855 104.12 142.855 102.722 142.852C102.677 142.852 102.631 142.824 102.58 142.806C102.58 142.738 102.569 142.671 102.582 142.609C104.17 135.293 105.761 127.978 107.352 120.662C107.362 120.616 107.396 120.575 107.437 120.495ZM109.396 127.424C109.296 128.1 109.193 128.776 109.096 129.452C108.941 130.517 108.79 131.584 108.637 132.649C108.53 133.391 108.42 134.134 108.318 134.877C108.301 134.999 108.252 135.134 108.353 135.242C108.988 135.314 110.179 135.298 110.54 135.204C110.197 132.609 109.837 130.012 109.396 127.424Z" fill="#B1D572"/>
<path d="M92.5356 120.527C93.0087 120.458 101.495 120.461 101.887 120.525C101.901 120.568 101.929 120.614 101.93 120.66C101.935 121.558 101.937 122.455 101.936 123.352C101.936 123.414 101.915 123.477 101.902 123.545C101.745 123.648 101.576 123.608 101.418 123.608C100.185 123.612 98.9523 123.611 97.7189 123.611C97.5399 123.611 97.3599 123.611 97.2066 123.611C97.0472 123.779 97.0966 123.95 97.0956 124.106C97.0914 125.134 97.0935 126.163 97.0935 127.19C97.0935 127.826 97.0925 128.463 97.0945 129.1C97.0945 129.261 97.1028 129.423 97.1069 129.556C97.2375 129.695 97.3764 129.663 97.5029 129.664C98.3083 129.667 99.1138 129.665 99.9192 129.667C100.097 129.667 100.275 129.677 100.443 129.683C100.536 130.051 100.562 131.92 100.494 132.781C100.396 132.904 100.255 132.866 100.129 132.866C99.3071 132.87 98.4852 132.868 97.6634 132.868C97.5008 132.868 97.3383 132.868 97.1532 132.868C97.1295 133.008 97.0966 133.117 97.0966 133.226C97.0935 135.266 97.0935 137.306 97.0956 139.346C97.0956 139.458 97.1192 139.568 97.1336 139.687C97.543 139.756 97.936 139.716 98.3279 139.722C98.7218 139.729 99.1168 139.723 99.5118 139.723C99.9068 139.723 100.301 139.718 100.696 139.724C101.088 139.73 101.481 139.696 101.871 139.751C101.894 139.809 101.928 139.853 101.928 139.898C101.933 140.812 101.936 141.725 101.935 142.639C101.935 142.7 101.905 142.761 101.89 142.816C101.435 142.883 92.9594 142.877 92.5716 142.812C92.5603 142.799 92.5479 142.788 92.5397 142.775C92.5315 142.761 92.5243 142.745 92.5243 142.73C92.5201 135.402 92.516 128.075 92.5129 120.747C92.5129 120.684 92.5253 120.62 92.5356 120.527Z" fill="#B1D572"/>
<path d="M152.662 120.519C152.76 120.502 152.838 120.481 152.916 120.478C153.908 120.439 156.522 120.466 156.935 120.521C156.969 120.63 157.016 120.75 157.043 120.873C157.646 123.697 158.246 126.521 158.847 129.345C158.881 129.504 158.912 129.664 158.955 129.822C158.97 129.875 159.018 129.92 159.091 130.029C159.847 126.819 160.588 123.68 161.332 120.522C161.451 120.505 161.562 120.478 161.673 120.478C162.857 120.475 164.041 120.476 165.225 120.477C165.305 120.477 165.385 120.49 165.501 120.501C165.471 120.661 165.454 120.802 165.416 120.936C164.492 124.201 163.567 127.466 162.641 130.73C162.231 132.175 161.823 133.619 161.408 135.062C161.331 135.331 161.299 135.601 161.3 135.881C161.305 138.003 161.302 140.125 161.302 142.248C161.302 142.426 161.302 142.603 161.302 142.806C161.182 142.827 161.09 142.857 160.998 142.858C159.715 142.861 158.433 142.86 157.15 142.859C157.072 142.859 156.993 142.841 156.883 142.826C156.876 142.632 156.864 142.457 156.864 142.281C156.863 140.192 156.86 138.101 156.866 136.011C156.867 135.649 156.818 135.302 156.719 134.952C155.396 130.291 154.08 125.628 152.765 120.965C152.724 120.825 152.698 120.682 152.662 120.519Z" fill="#B1D572"/>
<path d="M90.9246 120.52C91.0018 120.878 91.0141 123.29 90.9411 123.79C90.8413 123.905 90.7014 123.872 90.5759 123.873C89.8199 123.876 89.0628 123.874 88.3067 123.876C88.1452 123.876 87.9827 123.888 87.7996 123.895C87.7831 124.012 87.7615 124.103 87.7574 124.196C87.7513 124.343 87.7554 124.491 87.7554 124.638C87.7554 130.499 87.7554 136.361 87.7543 142.222C87.7543 142.415 87.7749 142.61 87.7255 142.798C87.6618 142.821 87.6175 142.853 87.5733 142.853C86.1589 142.856 84.7445 142.856 83.3301 142.853C83.2859 142.853 83.2417 142.822 83.1717 142.797C83.1275 142.101 83.1563 141.402 83.1512 140.704C83.146 140.003 83.1501 139.3 83.1501 138.598C83.1501 137.913 83.1501 137.227 83.1501 136.542C83.1501 135.84 83.1501 135.137 83.1501 134.436C83.1501 133.734 83.1501 133.031 83.1501 132.33C83.1501 131.628 83.1501 130.926 83.1501 130.224C83.1501 129.539 83.1501 128.852 83.1501 128.167C83.1501 127.466 83.1501 126.763 83.1501 126.061C83.1501 125.361 83.1501 124.66 83.1501 123.927C82.9979 123.908 82.8734 123.881 82.749 123.881C81.9929 123.877 81.2358 123.879 80.4798 123.879C80.2998 123.879 80.1208 123.879 79.9336 123.879C79.9037 123.791 79.8657 123.733 79.8646 123.674C79.8605 122.678 79.8616 121.682 79.8636 120.686C79.8636 120.64 79.8842 120.594 79.9027 120.519C79.9922 120.507 80.0848 120.485 80.1784 120.484C80.6063 120.48 81.0332 120.481 81.4611 120.481C84.4215 120.481 87.382 120.48 90.3424 120.483C90.5368 120.478 90.7364 120.444 90.9246 120.52Z" fill="#B1D572"/>
<path d="M217.916 120.443C217.916 121.099 217.918 121.734 217.914 122.368C217.913 122.468 217.89 122.571 217.709 122.531C217.629 122.401 217.673 122.238 217.667 122.083C217.66 121.905 217.668 121.725 217.665 121.546C217.663 121.389 217.654 121.232 217.646 121.023C217.467 121.129 217.427 121.274 217.354 121.388C217.267 121.526 217.192 121.671 217.106 121.81C217.031 121.931 216.95 122.048 216.851 122.198C216.768 122.122 216.699 122.08 216.661 122.02C216.464 121.701 216.277 121.378 216.09 121.062C215.948 121.085 215.977 121.18 215.976 121.251C215.972 121.544 215.976 121.837 215.973 122.13C215.972 122.259 215.96 122.388 215.954 122.505C215.815 122.584 215.741 122.534 215.733 122.411C215.72 122.2 215.722 121.988 215.722 121.776C215.721 121.337 215.722 120.898 215.722 120.48C215.862 120.363 215.964 120.389 216.035 120.503C216.197 120.768 216.347 121.039 216.504 121.306C216.595 121.459 216.69 121.61 216.804 121.797C216.88 121.695 216.941 121.627 216.986 121.55C217.184 121.213 217.379 120.873 217.576 120.535C217.641 120.429 217.731 120.377 217.916 120.443Z" fill="#B1D572"/>
<path d="M214.382 120.637C214.099 120.599 213.876 120.568 213.653 120.535C213.65 120.534 213.65 120.507 213.649 120.491C213.664 120.468 213.678 120.427 213.696 120.425C214.25 120.366 214.803 120.403 215.34 120.401C215.403 120.545 215.34 120.582 215.248 120.588C215.071 120.601 214.892 120.605 214.689 120.614C214.672 120.734 214.646 120.843 214.645 120.951C214.64 121.374 214.645 121.797 214.64 122.219C214.638 122.313 214.614 122.408 214.59 122.5C214.586 122.518 214.54 122.537 214.513 122.535C214.487 122.534 214.445 122.513 214.44 122.492C214.42 122.416 214.404 122.336 214.403 122.256C214.399 121.85 214.402 121.443 214.4 121.036C214.399 120.908 214.39 120.78 214.382 120.637Z" fill="#B1D572"/>
<path d="M185.72 42.9448C185.743 42.9366 185.765 42.9275 185.78 42.9224C185.768 42.9275 185.748 42.9356 185.726 42.9448C185.725 42.9458 185.72 42.9448 185.72 42.9448Z" fill="#B1D572"/>
<path d="M169.916 74.6124C169.927 74.6399 169.937 74.6664 169.947 74.6938C169.939 74.6633 169.931 74.6338 169.923 74.6023C169.924 74.6002 169.916 74.6124 169.916 74.6124Z" fill="#B1D572"/>
</g>
<defs>
<clipPath id="clip0_257_101">
<rect width="138.055" height="104.509" fill="white" transform="translate(79.8616 38.4287)"/>
</clipPath>
</defs>
</svg>
