<svg width="298" height="182" viewBox="0 0 298 182" fill="none" xmlns="http://www.w3.org/2000/svg">
<rect x="1.5708" y="1.2998" width="294.887" height="178.892" fill="black"/>
<rect x="1.5708" y="1.2998" width="294.887" height="178.892" fill="#84EA51" style="mix-blend-mode:darken"/>
<rect x="1.5708" y="1.2998" width="294.887" height="178.892" stroke="#B1D572" stroke-width="2"/>
<g clip-path="url(#clip0_257_119)">
<path d="M155.201 63.853C155.415 63.6655 155.591 63.5171 155.761 63.3606C156.228 62.9304 156.69 62.4962 157.155 62.064C157.561 61.6849 158.014 61.4703 158.597 61.4984C159.364 61.5345 160.134 61.5084 160.903 61.5084C161.084 61.5084 161.265 61.5084 161.503 61.5084C161.519 61.2738 161.544 61.0832 161.544 60.8917C161.547 58.872 161.558 56.8513 161.538 54.8316C161.533 54.27 161.717 53.8578 162.133 53.4748C164.603 51.2013 167.051 48.9049 169.515 46.6244C169.776 46.3827 169.919 46.1431 169.929 45.769C169.948 45.0159 170.452 44.4573 171.186 44.2798C171.865 44.1153 172.582 44.4042 172.942 45.0359C173.569 46.136 172.817 47.4367 171.723 47.4658C171.3 47.4768 171.013 47.6413 170.72 47.9161C168.403 50.0852 166.08 52.2453 163.747 54.3974C163.469 54.6541 163.338 54.9168 163.342 55.3039C163.361 57.1401 163.352 58.9763 163.353 60.8125C163.353 61.008 163.353 61.2036 163.353 61.4051C163.641 61.4593 163.747 61.2868 163.873 61.1705C165.085 60.0463 166.294 58.9181 167.504 57.7909C169.093 56.3108 170.681 54.8306 172.271 53.3514C172.757 52.8981 173.168 52.8781 173.696 53.2942C174.823 54.1838 175.947 55.0793 177.066 55.9788C177.445 56.2827 177.809 56.5514 178.333 56.6126C178.993 56.6908 179.381 57.1622 179.56 57.7869C179.733 58.3896 179.549 58.9141 179.12 59.3433C178.618 59.8437 177.999 59.932 177.359 59.6843C176.726 59.4386 176.345 58.9332 176.375 58.2562C176.395 57.7799 176.197 57.5282 175.858 57.2705C175.048 56.6537 174.259 56.0079 173.46 55.3751C173.344 55.2829 173.22 55.1966 173.07 55.0853C172.948 55.1816 172.828 55.2648 172.721 55.3631C170.177 57.7288 167.636 60.0954 165.092 62.4621C164.995 62.5534 164.893 62.6396 164.797 62.7329C164.382 63.137 163.902 63.3145 163.306 63.3005C161.852 63.2664 160.398 63.2904 158.945 63.2764C158.607 63.2734 158.348 63.3616 158.095 63.6003C154.838 66.6459 151.573 69.6835 148.301 72.712C147.986 73.0028 147.828 73.2957 147.999 73.759C148.114 73.6788 148.224 73.6196 148.314 73.5363C150.906 71.1255 153.501 68.7168 156.081 66.2919C156.433 65.961 156.788 65.7925 157.28 65.8015C158.683 65.8256 160.087 65.8035 161.491 65.8126C161.807 65.8146 162.054 65.7444 162.297 65.5147C162.811 65.0293 163.536 64.9692 164.157 65.3041C164.731 65.613 165.068 66.2819 164.986 66.9458C164.903 67.6146 164.387 68.1722 163.712 68.3277C163.142 68.459 162.634 68.3156 162.245 67.9015C161.999 67.6407 161.746 67.5625 161.408 67.5745C160.843 67.5946 160.277 67.5805 159.662 67.5805C159.643 67.8222 159.614 68.0158 159.613 68.2093C159.61 69.879 159.592 71.5487 159.621 73.2175C159.632 73.8542 159.439 74.3236 158.95 74.7417C158.151 75.4247 157.411 76.1778 156.626 76.8778C156.355 77.1195 156.235 77.3541 156.254 77.7322C156.296 78.5756 155.65 79.2956 154.832 79.3969C154.014 79.4982 153.269 78.9927 153.049 78.1875C152.795 77.2558 153.426 76.2751 154.398 76.1658C154.742 76.1267 154.988 76.0003 155.227 75.7737C156.002 75.0376 156.786 74.3105 157.574 73.5885C157.761 73.417 157.841 73.2345 157.839 72.9778C157.829 71.3422 157.835 69.7055 157.833 68.0699C157.833 67.9245 157.811 67.7791 157.8 67.6528C157.439 67.4933 157.224 67.6718 157.009 67.8724C156.032 68.7839 155.051 69.6915 154.074 70.6021C152.155 72.3891 150.242 74.1812 148.315 75.9592C148.05 76.2039 147.918 76.4486 147.921 76.8196C147.938 78.7731 147.929 80.7256 147.931 82.6791C147.931 82.8416 147.948 83.0041 147.96 83.2096C148.175 83.2217 148.354 83.2417 148.532 83.2417C151.357 83.2437 154.181 83.2377 157.006 83.2487C157.35 83.2498 157.605 83.1424 157.852 82.9118C160.108 80.8008 162.371 78.6989 164.633 76.593C165.329 75.9441 166.015 75.2833 166.725 74.6495C166.971 74.4299 167.074 74.2032 167.07 73.8723C167.055 72.0532 167.079 70.233 167.051 68.4139C167.043 67.8814 167.216 67.4973 167.601 67.1433C169.25 65.631 170.879 64.0957 172.525 62.5784C172.762 62.3588 172.886 62.1593 172.837 61.8043C172.733 61.0642 173.161 60.3903 173.826 60.1185C174.499 59.8437 175.243 60.0403 175.725 60.6199C176.499 61.5515 175.986 62.9816 174.752 63.2363C174.411 63.3065 174.177 63.4569 173.944 63.6745C172.381 65.1326 170.821 66.5948 169.244 68.0378C168.971 68.2875 168.863 68.5483 168.865 68.9073C168.874 70.7435 168.868 72.5796 168.867 74.4158C168.867 74.5823 168.863 74.7498 168.851 74.9162C168.827 75.2592 168.656 75.5039 168.36 75.6814C168.147 75.8088 167.939 75.9512 167.758 76.1186C164.673 78.9807 161.59 81.8468 158.511 84.7159C158.211 84.9957 157.897 85.1642 157.472 85.0398C157.348 85.0037 157.207 85.0177 157.074 85.0177C154.199 85.0167 151.325 85.0167 148.45 85.0177C148.302 85.0177 148.154 85.0318 148.007 85.0398C147.778 85.4399 147.902 85.832 147.904 86.2703C148.12 86.2883 148.297 86.3164 148.474 86.3164C151.332 86.3194 154.189 86.3134 157.048 86.3224C157.509 86.3234 157.861 86.176 158.204 85.8531C161.346 82.9048 164.506 79.9755 167.658 77.0372C167.946 76.7685 168.254 76.6983 168.655 76.7123C169.823 76.7524 170.992 76.7243 172.161 76.7223C172.174 76.7223 172.188 76.7053 172.258 76.6592C172.265 76.5238 172.283 76.3473 172.283 76.1708C172.285 73.8332 172.282 71.4966 172.286 69.159C172.287 68.809 172.295 68.457 172.335 68.11C172.385 67.6718 172.714 67.3639 173.118 67.3298C173.545 67.2937 173.932 67.5625 174.039 68.0108C174.093 68.2344 174.102 68.4731 174.103 68.7047C174.106 71.1757 174.104 73.6457 174.103 76.1166C174.103 76.2981 174.103 76.4786 174.103 76.7043C174.353 76.7043 174.559 76.7043 174.829 76.7043C174.842 76.5198 174.866 76.3272 174.866 76.1347C174.869 73.6136 174.868 71.0935 174.869 68.5723C174.869 68.4219 174.862 68.2715 174.874 68.1221C174.911 67.6427 175.301 67.2546 175.745 67.2446C176.181 67.2346 176.601 67.6227 176.63 68.101C176.655 68.5332 176.635 68.9685 176.641 69.4027C176.643 69.5621 176.662 69.7216 176.68 69.9743C176.863 69.8339 176.983 69.7577 177.085 69.6634C179.361 67.5485 181.632 65.4295 183.91 63.3185C184.132 63.1129 184.243 62.9023 184.255 62.5865C184.287 61.6298 184.971 60.993 185.901 61.009C186.765 61.024 187.456 61.699 187.489 62.5594C187.524 63.4549 186.863 64.2191 185.944 64.2612C185.573 64.2782 185.317 64.4056 185.071 64.6493C184.646 65.0685 184.206 65.4716 183.734 65.9179C183.913 66.0693 184.048 66.1886 184.187 66.2989C185.677 67.4853 187.167 68.6696 188.657 69.856C188.787 69.9593 188.924 70.0615 189.031 70.1859C189.337 70.5409 189.336 70.9841 189.044 71.3261C188.752 71.6671 188.312 71.7463 187.918 71.5187C187.803 71.4525 187.699 71.3662 187.595 71.283C185.988 70.0034 184.382 68.7228 182.775 67.4432C182.672 67.3609 182.56 67.2877 182.425 67.1894C182.317 67.2677 182.206 67.3339 182.113 67.4201C180.41 68.9985 178.716 70.585 177.007 72.1555C176.737 72.4042 176.626 72.6599 176.634 73.0259C176.656 74.0608 176.642 75.0957 176.642 76.1307C176.642 76.3102 176.642 76.4897 176.642 76.7043C176.842 76.7223 176.987 76.7474 177.13 76.7474C178.952 76.7504 180.774 76.7434 182.595 76.7544C182.887 76.7564 183.098 76.6632 183.305 76.4656C184.103 75.7045 184.913 74.9574 185.721 74.2082C185.855 74.0839 185.992 73.9545 186.147 73.8633C186.503 73.6537 186.928 73.7249 187.202 74.0157C187.504 74.3366 187.549 74.7528 187.297 75.1128C187.193 75.2612 187.059 75.3916 186.925 75.5169C186.244 76.1567 185.552 76.7875 184.877 77.4333C184.663 77.6379 184.473 77.8726 184.299 78.1133C184.119 78.36 183.896 78.5094 183.594 78.5314C183.411 78.5445 183.227 78.5445 183.043 78.5455C181.005 78.5465 178.965 78.5455 176.927 78.5465C174.354 78.5465 171.783 78.5535 169.21 78.5425C168.815 78.5405 168.509 78.6438 168.231 78.9296C167.825 79.3467 167.388 79.7318 166.947 80.147C167.128 80.3275 167.319 80.2703 167.488 80.2714C169.744 80.2754 172.001 80.2734 174.256 80.2734C177.264 80.2734 180.272 80.2724 183.28 80.2754C183.462 80.2754 183.651 80.2814 183.823 80.3315C184.254 80.4569 184.51 80.861 184.458 81.2872C184.408 81.7034 184.103 81.9992 183.654 82.0423C183.422 82.0644 183.187 82.0584 182.953 82.0584C177.137 82.0594 171.321 82.0584 165.506 82.0594C165.141 82.0594 164.755 82.0133 164.545 82.4395C164.66 82.624 164.844 82.5488 164.995 82.5498C165.98 82.5578 166.967 82.5548 167.953 82.5548C173.033 82.5538 178.113 82.5528 183.194 82.5528C183.41 82.5528 183.631 82.5458 183.843 82.5819C184.316 82.6641 184.609 83.0442 184.585 83.5065C184.562 83.9507 184.21 84.2947 183.734 84.3278C183.551 84.3408 183.366 84.3348 183.183 84.3348C179.004 84.3358 174.827 84.3348 170.649 84.3368C170.456 84.3368 170.264 84.3539 169.976 84.3669C170.115 84.5294 170.174 84.6236 170.255 84.6888C171.01 85.2955 171.775 85.8902 172.522 86.5059C172.782 86.7195 173.068 86.7246 173.371 86.7246C175.977 86.7246 178.585 86.7246 181.191 86.7246C181.543 86.7246 181.894 86.7145 182.244 86.7276C182.59 86.7396 182.874 86.6624 183.155 86.4197C183.667 85.9754 184.278 85.9153 184.885 86.2231C185.467 86.517 185.778 87.0063 185.783 87.6722C185.789 88.3852 185.452 88.8857 184.816 89.1755C184.167 89.4713 183.538 89.36 183.062 88.8606C182.765 88.5487 182.467 88.5006 182.09 88.5016C179.984 88.5086 177.878 88.5046 175.772 88.5046C175.608 88.5046 175.443 88.5046 175.18 88.5046C175.304 88.657 175.356 88.7503 175.433 88.8124C176.097 89.346 176.765 89.8734 177.431 90.4059C177.56 90.5102 177.694 90.6155 177.802 90.7409C178.089 91.0768 178.089 91.503 177.82 91.844C177.576 92.1529 177.148 92.2672 176.78 92.0997C176.631 92.0315 176.494 91.9292 176.364 91.8259C173.436 89.4984 170.504 87.1748 167.588 84.8312C167.149 84.4782 166.712 84.2987 166.135 84.3218C165.067 84.3659 163.996 84.3438 162.927 84.3288C162.588 84.3238 162.327 84.411 162.077 84.6517C161.27 85.4269 160.442 86.18 159.624 86.9432C159.516 87.0445 159.418 87.1558 159.268 87.3132C159.549 87.5399 159.801 87.7494 160.06 87.951C160.44 88.2489 160.785 88.652 161.219 88.8064C161.652 88.9609 162.174 88.8736 162.657 88.8756C164.245 88.8806 165.833 88.8766 167.42 88.8786C167.586 88.8786 167.757 88.8766 167.918 88.9137C168.384 89.022 168.662 89.4192 168.611 89.8744C168.562 90.3057 168.23 90.6306 167.764 90.6396C166.829 90.6566 165.892 90.6486 164.957 90.6496C164.623 90.6506 164.288 90.6456 163.954 90.6526C163.863 90.6546 163.773 90.6897 163.63 90.7218C163.717 90.8251 163.759 90.8943 163.819 90.9425C164.431 91.4338 165.039 91.9312 165.666 92.4016C165.813 92.5119 166.027 92.563 166.214 92.5801C166.53 92.6092 166.85 92.5741 167.166 92.5921C167.546 92.6142 167.858 92.5219 168.18 92.2842C168.88 91.7658 169.853 91.9413 170.369 92.6212C170.907 93.3302 170.805 94.2999 170.134 94.8745C169.493 95.4221 168.472 95.397 167.916 94.7532C167.651 94.4473 167.383 94.339 167.009 94.3671C166.677 94.3922 166.34 94.3741 166.011 94.4193C165.602 94.4754 165.27 94.3771 164.945 94.1174C162.782 92.3835 160.588 90.6877 158.452 88.9218C157.74 88.3331 157.032 87.9821 156.104 88.1125C155.828 88.1516 155.542 88.1185 155.227 88.1185C155.206 88.288 155.177 88.4143 155.176 88.5407C155.171 89.1755 155.184 89.8093 155.169 90.444C155.163 90.7178 155.242 90.9114 155.464 91.0849C156.451 91.856 157.429 92.6392 158.402 93.4275C158.615 93.601 158.818 93.627 159.09 93.5859C159.889 93.4636 160.54 93.8246 160.859 94.5115C161.155 95.1483 161.002 95.8944 160.472 96.3908C159.599 97.2101 158.113 96.818 157.828 95.6537C157.721 95.2205 157.504 94.9528 157.175 94.7061C156.668 94.325 156.18 93.9199 155.681 93.5277C155.555 93.4285 155.421 93.3402 155.2 93.1818C155.188 93.5057 155.161 93.7303 155.175 93.9519C155.225 94.7743 154.944 95.4181 154.308 95.9736C153.163 96.9725 152.072 98.0335 150.96 99.0694C150.881 99.1436 150.815 99.2308 150.656 99.4073C150.976 99.4073 151.186 99.4073 151.395 99.4073C164.045 99.4073 176.697 99.4063 189.347 99.4093C189.68 99.4093 190.018 99.4184 190.346 99.4675C191.159 99.5868 191.71 100.242 191.72 101.066C191.73 101.861 191.204 102.521 190.414 102.667C190.137 102.718 189.849 102.723 189.567 102.723C184.152 102.726 178.738 102.725 173.323 102.725C157.781 102.725 142.239 102.731 126.697 102.723C119.094 102.719 111.492 102.687 103.889 102.675C103.102 102.674 102.362 102.509 101.673 102.143C101.51 102.057 101.359 101.896 101.27 101.734C100.786 100.852 100.643 99.9027 100.853 98.924C100.935 98.5409 101.104 98.1668 101.293 97.8189C101.89 96.7147 102.762 95.9135 103.908 95.3609C105.439 94.6228 107.058 94.3069 108.729 94.1716C108.747 94.1706 108.764 94.1716 108.78 94.1686C109.911 93.9148 111.003 94.1836 112.093 94.4333C113.335 94.7181 114.434 95.2677 115.386 96.1371C115.785 96.5021 116.132 96.8902 116.44 97.3295C116.697 97.6965 117.006 98.0264 117.274 98.3865C117.511 98.7043 117.722 99.0393 117.977 99.4133C118.032 99.305 118.109 99.2258 118.102 99.1536C118.066 98.7916 118.053 98.4185 117.949 98.0746C117.782 97.518 117.565 96.9745 117.342 96.4359C117.123 95.9065 116.815 95.4321 116.356 95.0691C116.279 95.0079 116.197 94.9367 116.155 94.8515C115.722 93.9971 114.937 93.5849 114.105 93.26C113.299 92.9451 112.488 92.6182 111.604 92.5911C111.306 92.5821 111.008 92.5941 110.71 92.5951C110.21 92.5981 109.704 92.6473 109.21 92.5921C108.405 92.5029 107.615 92.5229 106.819 92.6613C106.147 92.7786 105.478 92.8699 104.78 92.7636C104.203 92.6753 103.442 91.9453 103.444 91.2804C103.447 90.5153 103.325 89.7511 103.458 88.9839C103.657 87.8477 104.009 86.7867 104.865 85.9544C105.259 85.5723 105.826 85.4439 106.333 85.6806C106.937 85.9634 107.52 86.2893 108.125 86.5701C109.078 87.0134 110.087 87.0796 111.111 86.9382C111.384 86.9 111.66 86.7807 111.903 86.6423C112.528 86.2843 113.107 85.8471 113.577 85.3055C113.843 85.0007 114.052 84.6096 114.171 84.2215C114.412 83.4343 113.976 82.6581 113.18 82.3392C113.157 82.3793 113.115 82.4184 113.111 82.4615C113.034 83.328 112.55 83.9447 111.878 84.4341C111.035 85.0478 110.128 85.4419 109.041 85.3386C107.766 85.2173 107.308 84.4411 107.083 83.351C106.855 82.2429 107.131 81.2371 107.699 80.2894C108.025 79.7459 108.343 79.1963 108.686 78.6638C108.864 78.388 108.964 78.1012 108.985 77.7763C109.009 77.3932 109.047 77.0112 109.078 76.6281C109.183 75.3334 109.649 74.2143 110.633 73.3268C110.778 73.1964 110.885 72.9597 110.901 72.7632C110.962 72.0381 111.127 71.3552 111.474 70.7094C111.724 70.2411 111.855 69.6955 112.165 69.2763C112.657 68.6115 113.209 67.9245 114.111 67.8292C115.063 67.729 116.013 67.8052 116.902 68.2314C117.776 68.6496 118.647 69.0647 119.403 69.6925C119.969 70.1628 120.627 70.3594 121.37 70.1598C121.595 70.0986 121.853 70.1097 122.05 70.0034C122.992 69.497 124.068 69.4368 125.05 69.0677C125.579 68.8692 125.982 68.5693 126.28 68.1C126.791 67.2947 127.234 66.4594 127.567 65.5619C127.703 65.1938 127.907 64.8498 128.051 64.4577C127.468 64.6543 126.908 64.89 126.455 65.3061C125.953 65.7694 125.493 66.2789 124.997 66.7502C124.454 67.2677 123.913 67.7921 123.332 68.2645C122.692 68.7849 121.938 69.0387 121.101 68.9925C120.984 68.9865 120.86 68.9965 120.754 68.9584C119.873 68.6466 119.6 68.3427 119.914 67.3268C120.202 66.3952 120.786 65.6431 121.551 65.0384C121.984 64.6974 122.429 64.3705 122.861 64.0305C123.294 63.6906 123.711 63.3316 124.149 62.9986C124.706 62.5734 125.273 62.1623 125.841 61.7521C126.503 61.2738 127.183 60.8205 127.828 60.3211C128.398 59.8798 128.88 59.3463 129.246 58.7155C129.613 58.0828 130.187 57.6375 130.694 57.1311C131.271 56.5524 131.839 55.9658 132.419 55.3892C133.081 54.7313 134.415 54.3683 135.399 54.8336C135.678 54.966 135.822 55.1866 135.86 55.4985C136.009 56.7099 135.607 57.6796 134.643 58.4357C134.118 58.8469 133.631 59.3072 133.117 59.7334C132.648 60.1225 132.442 60.6831 132.162 61.1885C131.724 61.9807 131.435 62.8362 131.266 63.7257C131.21 64.0245 131.141 64.3474 131.385 64.6052C131.448 64.5941 131.498 64.5991 131.507 64.5811C131.764 64.0977 132.034 63.6204 132.266 63.125C132.933 61.702 133.801 60.4043 135.006 59.4055C135.901 58.6634 136.955 58.1249 138.193 58.1008C138.639 58.0918 139.089 58.0075 139.527 57.9133C140.111 57.7879 140.564 58.0166 140.976 58.3786C141.121 58.5069 141.233 58.6724 141.428 58.9011C141.45 58.6975 141.481 58.5932 141.47 58.4929C141.404 57.8792 141.187 57.3316 140.763 56.8703C140.603 56.6968 140.45 56.6467 140.238 56.7761C140.039 56.8984 139.818 56.9847 139.624 57.113C139.227 57.3748 138.791 57.448 138.332 57.4209C137.625 57.3788 137.164 56.9646 137.041 56.2606C137.001 56.032 136.966 55.7973 136.971 55.5656C136.981 55.0161 136.736 54.5989 136.323 54.275C135.599 53.7094 134.8 53.5329 133.881 53.7184C132.553 53.9862 131.575 54.7022 130.838 55.8103C130.58 56.1964 130.271 56.5514 129.967 56.9044C129.138 57.8661 128.194 58.7115 127.239 59.5439C126.838 59.8949 126.411 60.2168 125.997 60.5527C125.648 60.8355 125.3 61.1223 124.948 61.4021C124.832 61.4954 124.711 61.5886 124.581 61.6588C123.081 62.4691 121.837 63.6124 120.587 64.7435C120.002 65.273 119.566 65.9209 119.285 66.678C119.105 67.1634 118.595 67.7199 117.841 67.5765C117.449 67.5023 117.049 67.4732 116.658 67.396C115.683 67.2035 114.946 66.5978 114.241 65.954C113.901 65.6441 113.858 65.1346 114.149 64.7817C114.414 64.4607 114.716 64.1709 115.002 63.8691C115.334 63.5191 115.706 63.1992 115.992 62.8161C117.504 60.7884 119.225 58.9492 121.016 57.1732C121.452 56.74 121.943 56.3569 122.434 55.9828C124.067 54.7373 125.72 53.5189 127.348 52.2673C128.603 51.3016 129.964 50.5495 131.462 50.028C133.511 49.314 135.557 48.588 137.667 48.0695C139.327 47.6614 141.011 47.5801 142.676 47.9953C144.483 48.4456 145.784 49.5457 146.557 51.2545C146.942 52.1049 147.122 53.0004 147.151 53.924C147.174 54.6621 147.299 55.3771 147.443 56.0992C147.63 57.0288 147.736 57.9765 147.832 58.9211C148.045 60.999 148.114 63.0829 148.055 65.1718C148.01 66.7562 147.972 68.3407 147.934 69.9252C147.93 70.1007 147.947 70.2772 147.955 70.4737C148.354 70.2822 153.388 65.6381 153.83 65.0665C153.703 64.9531 153.577 64.8288 153.438 64.7185C152.852 64.2471 152.257 63.7888 151.679 63.3085C151.446 63.1149 151.223 63.0257 150.907 63.0748C150.195 63.1851 149.625 62.9174 149.247 62.3007C148.889 61.715 148.919 61.1173 149.298 60.5567C149.679 59.9941 150.234 59.7485 150.902 59.8578C151.592 59.9701 152.074 60.3883 152.214 61.0712C152.296 61.4743 152.502 61.713 152.8 61.9436C153.585 62.5604 154.363 63.1882 155.201 63.853ZM112.125 78.5575C112.118 78.5946 112.111 78.6317 112.104 78.6688C112.345 78.6869 112.6 78.7621 112.825 78.7119C113.558 78.5495 114.282 78.3469 114.913 77.9057C115.679 77.3702 116.477 76.8778 117.223 76.3162C118.071 75.6764 119.022 75.2943 120.045 75.0998C120.777 74.9604 121.497 75.0155 122.13 75.531C122.955 76.2029 123.801 76.8387 124.836 77.1967C125.489 77.4223 126.113 77.4825 126.73 77.2027C127.213 76.9841 127.662 76.6882 128.116 76.4085C129.174 75.7546 130.094 74.9473 130.902 73.9946C131.394 73.415 131.962 72.9016 132.737 72.6639C133.6 72.3991 134.294 71.8335 134.938 71.2248C135.421 70.7665 135.842 70.2441 136.307 69.7657C136.526 69.5401 136.757 69.3054 137.028 69.154C137.977 68.6275 138.931 68.103 140.07 68.1201C140.274 68.1231 140.5 68.093 140.642 67.8142C140.419 67.7701 140.229 67.7229 140.036 67.6959C139.538 67.6257 139.171 67.4 138.959 66.9197C138.819 66.6008 138.639 66.2959 138.445 66.0051C138.14 65.5488 137.698 65.2419 137.157 64.8849C137.157 65.1256 137.165 65.267 137.156 65.4074C137.131 65.7885 137.165 66.1896 137.054 66.5446C136.862 67.1634 136.593 67.7601 136.33 68.3537C136.069 68.9434 135.603 69.2944 134.966 69.4157C134.523 69.5 134.082 69.5902 133.64 69.6694C133.348 69.7216 133.166 69.868 133.081 70.1648C133.033 70.3333 132.935 70.5048 132.817 70.6352C132.029 71.5036 131.08 72.0822 129.891 72.2106C129.603 72.2417 129.356 72.352 129.115 72.5235C128.573 72.9116 128.02 73.2887 127.449 73.6336C126.821 74.0137 126.136 74.2042 125.391 74.0749C125.259 74.0518 125.126 74.0348 124.992 74.0348C123.11 74.0317 121.447 73.3358 119.855 72.4192C119.58 72.2607 119.329 72.0582 119.045 71.9208C118.59 71.7002 118.183 71.4344 117.84 71.0493C117.511 70.6813 117.001 70.7535 116.732 71.1606C116.413 71.643 116.448 72.1274 116.823 72.5776C117.068 72.8715 117.336 73.1533 117.533 73.4772C117.883 74.0538 117.822 74.4038 117.312 74.836C116.765 75.2993 116.214 75.7636 115.628 76.1758C114.474 76.9891 113.294 77.7663 112.125 78.5575ZM139.874 87.58C139.768 87.608 139.748 87.607 139.736 87.6171C139.672 87.6692 139.605 87.7194 139.546 87.7775C139.145 88.1706 138.687 88.3852 138.105 88.3401C137.657 88.305 137.204 88.3291 136.752 88.3331C136.485 88.3351 136.207 88.303 135.954 88.3682C134.844 88.651 133.8 89.0521 133.009 89.9527C132.635 90.3779 132.082 90.6155 131.537 90.6215C130.137 90.6366 128.734 90.5975 127.337 90.5082C126.387 90.4471 125.644 89.7351 125.418 88.7954C125.313 88.3602 125.287 87.9049 125.175 87.4717C124.958 86.6373 125.233 85.9323 125.68 85.2574C125.737 85.1712 125.783 85.0789 125.849 84.9606C125.337 85.0288 125.213 85.0869 124.912 85.3547C124.7 85.5432 124.491 85.7358 124.264 85.9042C123.519 86.4588 122.63 86.6594 121.748 86.8168C120.963 86.9562 120.148 86.9251 119.362 87.0625C118.382 87.234 117.559 86.9001 116.751 86.4357C116.625 86.3635 116.502 86.2893 116.356 86.2031C115.939 86.9572 115.585 87.6823 115.731 88.5407C115.838 89.1634 115.952 89.7882 116.57 90.1231C116.878 89.7832 117.156 89.4292 117.482 89.1273C118.373 88.3 119.528 88.2148 120.651 88.0623C121.429 87.957 122.179 88.0643 122.897 88.4023C123.703 88.7824 124.439 89.9025 124.487 90.791C124.526 91.5171 124.37 92.216 124.277 92.925C124.203 93.5027 123.936 93.964 123.538 94.3611C123.326 94.5727 123.086 94.7562 122.859 94.9528C122.709 95.0841 122.567 95.2255 122.41 95.3479C122.262 95.4632 122.1 95.5595 121.943 95.6638C121.945 95.6959 121.948 95.729 121.95 95.761C122.663 95.8222 123.16 96.2103 123.586 96.7328C124.004 97.2472 124.248 97.8449 124.473 98.4546C124.532 98.6151 124.58 98.7796 124.632 98.942C124.67 98.94 124.707 98.938 124.745 98.936C124.99 98.4546 125.254 97.9673 125.252 97.4087C125.249 96.7268 125.183 96.0459 125.152 95.3639C125.142 95.1483 125.119 94.9227 125.168 94.7171C125.512 93.26 126.262 92.1699 127.805 91.7598C129.161 91.3997 130.443 91.5462 131.67 92.209C132.039 92.4086 132.275 92.3554 132.501 91.9784C132.68 91.6775 132.833 91.3596 133.028 91.0688C133.505 90.3598 134.025 89.6889 134.844 89.3339C135.453 89.0702 136.094 89.008 136.748 89.0321C137.414 89.0571 138.077 89.1113 138.744 88.9729C139.006 88.9187 139.314 88.9619 139.571 89.0491C139.864 89.1484 140.122 89.352 140.4 89.5014C140.75 89.6889 141.094 89.8955 141.461 90.0449C142.199 90.3468 142.937 90.1943 143.668 89.9797C143.979 89.8885 144.097 89.6719 144.134 89.3309C143.962 89.354 143.831 89.364 143.705 89.3901C143.11 89.5084 142.522 89.4994 141.926 89.368C141.239 89.2166 140.687 88.9017 140.332 88.2719C140.196 88.0312 140.026 87.8086 139.874 87.58ZM147.529 99.3311C147.896 99.5046 148.089 99.3211 148.29 99.1336C149.875 97.6534 151.46 96.1712 153.055 94.7011C153.295 94.4804 153.407 94.2538 153.405 93.9219C153.391 92.1539 153.399 90.3859 153.397 88.6179C153.397 88.4735 153.372 88.3291 153.36 88.1977C152.772 88.0704 148.349 88.0984 147.969 88.2358C147.969 88.5878 147.989 88.9538 147.964 89.3169C147.929 89.8303 147.96 90.3789 147.786 90.8462C147.354 91.9994 146.82 93.1136 146.332 94.2458C146.211 94.5276 145.994 94.6379 145.701 94.6479C145.129 94.668 144.571 94.6188 144.03 94.4102C143.924 94.3691 143.775 94.3822 143.669 94.4253C143.62 94.4453 143.586 94.6178 143.616 94.692C143.918 95.4422 144.298 96.1572 144.977 96.6255C145.332 96.8692 145.791 97.0005 146.195 96.6826C146.808 96.1983 147.407 95.6939 147.998 95.1804C148.714 94.5566 149.417 93.9148 150.122 93.278C150.349 93.0735 150.598 93.0644 150.868 93.1687C151.414 93.3793 151.61 94.0633 151.245 94.5356C151.114 94.7061 150.945 94.8475 150.787 94.9959C149.921 95.8042 149.048 96.6064 148.187 97.4187C148.059 97.5401 147.923 97.6935 147.877 97.856C147.738 98.3313 147.644 98.8217 147.529 99.3311ZM141.751 70.2481C141.51 70.3855 141.375 70.4747 141.23 70.5419C140.762 70.7585 140.296 70.9791 139.82 71.1737C139.312 71.3813 138.769 71.5126 138.284 71.7613C137.126 72.356 136.276 73.2576 135.909 74.5261C135.716 75.194 135.614 75.891 135.512 76.5809C135.47 76.8617 135.371 77.0864 135.193 77.2929C134.421 78.1865 133.07 78.9155 131.546 78.2446C131.104 78.0501 131.011 78.1123 130.712 78.5064C130.441 78.8644 130.162 79.2184 129.857 79.5473C129.579 79.8472 129.205 80.0036 128.808 80.0999C128.55 80.163 128.294 80.2362 128.035 80.2914C127.661 80.3716 127.288 80.4699 126.908 80.509C126.096 80.5933 125.281 80.6584 124.465 80.7036C124.204 80.7186 123.925 80.6885 123.676 80.6093C123.042 80.4087 122.415 80.1831 121.795 79.9384C121.522 79.8311 121.335 79.8171 121.082 80.0277C120.446 80.5572 119.693 80.7286 118.876 80.5732C118.331 80.4699 118.161 80.5812 118.173 81.1258C118.178 81.3484 118.237 81.5941 118.349 81.7846C118.515 82.0694 118.736 82.3271 118.959 82.5728C119.339 82.994 119.834 83.1675 120.396 83.1575C120.924 83.1475 121.416 82.994 121.886 82.7674C122.457 82.4916 123.028 82.2158 123.587 81.917C123.852 81.7756 124.108 81.7285 124.403 81.7756C125.638 81.9732 126.824 81.7114 127.994 81.3504C128.15 81.3023 128.285 81.1919 128.433 81.1147C128.669 80.9924 128.898 80.7938 129.145 80.7677C129.888 80.6915 130.634 80.5642 131.387 80.6785C131.486 80.6935 131.585 80.7066 131.685 80.7146C132.345 80.7627 132.939 80.6123 133.441 80.153C133.828 79.8 134.256 79.4721 134.793 79.453C135.429 79.431 136.082 79.2785 136.704 79.6065C136.884 79.7007 137.132 79.7118 137.342 79.6937C137.789 79.6546 138.235 79.5824 138.675 79.4962C138.773 79.4771 138.847 79.3427 138.961 79.2344C138.841 79.1612 138.791 79.1161 138.732 79.098C138.187 78.9316 137.767 78.5746 137.368 78.1935C137.267 78.0982 137.188 77.9538 137.154 77.8184C136.958 77.0232 136.835 76.2189 136.877 75.3936C136.917 74.6274 137.114 73.9144 137.55 73.2786C137.905 72.7602 138.4 72.4212 139.021 72.334C139.547 72.2597 140.086 72.2808 140.615 72.2226C140.836 72.1986 141.119 72.1444 141.25 71.995C141.655 71.5337 141.698 70.943 141.751 70.2481ZM142.285 84.7089C141.827 85.7789 142.408 86.6654 143.29 86.545C143.29 86.16 143.268 85.7618 143.297 85.3687C143.319 85.0769 143.293 84.8603 143 84.7059C142.849 84.6256 142.734 84.4592 142.627 84.3138C142.419 84.034 142.235 83.7361 142.029 83.4543C141.703 83.0121 141.583 82.5377 141.75 82.0012C141.799 81.8438 141.827 81.6763 141.839 81.5108C141.859 81.2361 141.726 81.1217 141.478 81.2391C141.196 81.3725 140.911 81.5309 140.684 81.7395C140.196 82.1888 139.761 82.6952 139.274 83.1435C138.987 83.4062 138.642 83.6037 138.321 83.8324C138.351 84.0249 138.496 84.057 138.652 84.063C139.087 84.0811 139.498 83.9979 139.775 83.6388C140.04 83.2949 140.373 83.3561 140.726 83.3831C141.039 83.4072 141.231 83.5255 141.383 83.8174C141.509 84.058 141.748 84.2416 141.947 84.4401C142.05 84.5454 142.176 84.6246 142.285 84.7089ZM135.612 96.1522C135.453 96.3016 135.296 96.3868 135.238 96.5172C135.085 96.8591 134.813 96.9705 134.478 96.9845C134.279 96.9925 134.078 96.9835 133.88 96.9644C133.602 96.9384 133.326 96.8962 133.061 96.8621C132.851 97.2843 132.819 97.4468 132.988 97.6273C133.357 98.0204 133.774 98.3834 134.316 98.4707C134.855 98.5569 135.41 98.5599 135.958 98.5599C136.146 98.5599 136.351 98.4727 136.517 98.3744C136.984 98.0996 137.017 97.6153 136.558 97.3395C136.217 97.1349 136.012 96.8702 135.866 96.5232C135.824 96.4189 135.74 96.3327 135.612 96.1522Z" fill="#B1D572"/>
<path d="M138.989 128.831C138.989 126.897 138.988 124.961 138.99 123.027C138.99 122.727 138.991 122.425 139.017 122.127C139.097 121.2 139.762 120.572 140.7 120.534C140.967 120.523 141.234 120.53 141.502 120.53C143.773 120.53 146.043 120.548 148.315 120.523C149.751 120.507 150.942 121.038 151.971 121.994C152.749 122.717 153.34 123.583 153.495 124.633C153.691 125.967 153.677 127.306 152.771 128.447C152.601 128.661 152.558 128.83 152.751 129.06C153.309 129.724 153.529 130.511 153.581 131.366C153.649 132.496 153.469 133.56 152.841 134.518C151.994 135.809 150.863 136.714 149.328 137.058C149.184 137.091 149.031 137.103 148.882 137.103C146.177 137.106 143.472 137.111 140.766 137.103C139.722 137.1 139.044 136.445 139.013 135.386C138.98 134.236 138.993 133.084 138.99 131.933C138.986 130.899 138.989 129.865 138.989 128.831ZM143.157 132.947C143.389 132.964 143.552 132.986 143.716 132.986C145.218 132.988 146.721 132.987 148.224 132.985C148.375 132.985 148.526 132.983 148.674 132.962C148.973 132.921 149.21 132.769 149.344 132.497C149.764 131.647 149.271 130.834 148.319 130.808C147.885 130.796 147.449 130.818 147.017 130.798C146.349 130.768 145.656 130.394 145.424 129.645C145.26 129.116 145.247 128.583 145.35 128.063C145.483 127.387 145.907 126.933 146.62 126.826C146.982 126.771 147.347 126.739 147.712 126.714C148.011 126.694 148.315 126.715 148.613 126.689C149.097 126.646 149.367 126.366 149.41 125.887C149.424 125.721 149.426 125.553 149.414 125.388C149.385 124.991 149.159 124.746 148.766 124.68C148.652 124.66 148.533 124.658 148.417 124.657C146.814 124.652 145.211 124.648 143.608 124.645C143.542 124.645 143.475 124.65 143.409 124.654C143.229 124.666 143.137 124.762 143.134 124.942C143.132 125.043 143.129 125.143 143.129 125.242C143.128 127.627 143.128 130.013 143.129 132.397C143.129 132.561 143.145 132.724 143.157 132.947Z" fill="#B1D572"/>
<path d="M176.229 124.69C176.229 124.946 176.229 125.158 176.229 125.371C176.229 128.457 176.232 131.544 176.225 134.632C176.224 134.996 176.18 135.362 176.126 135.722C176.009 136.503 175.486 136.929 174.763 137.066C174.245 137.163 173.704 137.172 173.183 136.968C172.517 136.708 172.18 136.219 172.122 135.528C172.096 135.213 172.1 134.894 172.1 134.578C172.099 130.74 172.099 126.902 172.1 123.064C172.1 122.78 172.105 122.496 172.116 122.214C172.15 121.244 172.778 120.597 173.814 120.538C174.446 120.502 175.083 120.53 175.718 120.53C177.606 120.53 179.494 120.554 181.381 120.522C182.686 120.5 183.798 120.938 184.772 121.766C185.687 122.544 186.321 123.504 186.601 124.683C186.616 124.748 186.634 124.813 186.637 124.879C186.717 126.221 186.661 127.544 186.141 128.811C185.709 129.865 185.037 130.63 183.842 130.801C183.795 130.808 183.753 130.841 183.705 130.863C183.646 131.101 183.851 131.184 183.969 131.305C184.656 132.011 185.36 132.701 186.04 133.413C186.728 134.132 186.907 135.29 186.501 136.15C186.312 136.55 186.013 136.826 185.6 136.966C184.452 137.355 183.411 137.048 182.549 136.052C181.633 134.993 180.77 133.887 179.883 132.802C179.282 132.065 178.68 131.328 178.077 130.593C177.585 129.994 177.264 129.334 177.331 128.534C177.418 127.502 178.039 126.834 178.992 126.811C179.426 126.801 179.858 126.773 180.292 126.751C180.742 126.729 181.196 126.734 181.641 126.673C182.321 126.578 182.662 126.063 182.514 125.42C182.427 125.042 182.039 124.737 181.542 124.685C181.243 124.654 180.941 124.648 180.641 124.647C179.389 124.644 178.136 124.645 176.882 124.65C176.687 124.649 176.492 124.672 176.229 124.69Z" fill="#B1D572"/>
<path d="M159.707 124.687C159.695 124.909 159.68 125.09 159.68 125.27C159.678 127.639 159.679 130.009 159.679 132.378C159.679 132.478 159.683 132.578 159.682 132.677C159.68 132.881 159.782 132.988 159.983 132.997C160.132 133.004 160.283 133.006 160.433 133.006C162.789 133.006 165.143 133.002 167.499 133.01C167.882 133.011 168.264 133.054 168.644 133.1C169.397 133.19 169.866 133.643 170.033 134.352C170.163 134.902 170.179 135.473 169.971 136.026C169.71 136.72 169.166 137.013 168.475 137.101C168.359 137.116 168.241 137.106 168.124 137.106C164.599 137.106 161.076 137.106 157.551 137.105C157.367 137.105 157.18 137.111 157.002 137.078C156.111 136.914 155.596 136.325 155.569 135.413C155.544 134.596 155.541 133.779 155.54 132.961C155.537 129.657 155.537 126.354 155.541 123.049C155.541 122.683 155.526 122.307 155.596 121.951C155.767 121.089 156.221 120.692 157.179 120.53C157.244 120.519 157.313 120.526 157.379 120.526C161.053 120.526 164.729 120.524 168.403 120.527C169.21 120.528 169.817 120.918 170.022 121.682C170.205 122.361 170.219 123.069 169.881 123.728C169.671 124.136 169.331 124.409 168.884 124.496C168.478 124.576 168.059 124.632 167.646 124.634C165.207 124.647 162.768 124.64 160.329 124.643C160.133 124.647 159.938 124.671 159.707 124.687Z" fill="#B1D572"/>
<path d="M116.118 137.104C115.248 137.104 114.378 137.142 113.512 137.095C112.171 137.022 110.866 136.765 109.656 136.142C108.085 135.335 107.085 134.05 106.549 132.392C106.219 131.371 106.062 130.324 106.057 129.244C106.052 128.073 106.083 126.912 106.382 125.77C107.014 123.354 108.47 121.72 110.89 120.989C111.969 120.663 113.069 120.515 114.196 120.525C115.75 120.539 117.304 120.523 118.858 120.531C119.647 120.535 120.276 120.933 120.495 121.618C120.695 122.247 120.697 122.902 120.466 123.53C120.267 124.073 119.852 124.399 119.286 124.5C118.943 124.561 118.591 124.595 118.242 124.599C117.006 124.611 115.769 124.592 114.534 124.61C113.75 124.621 112.966 124.655 112.229 124.986C111.213 125.446 110.6 126.226 110.346 127.301C110.068 128.478 110.076 129.645 110.48 130.795C110.859 131.877 111.643 132.541 112.727 132.809C113.335 132.959 113.979 133.003 114.608 133.019C115.861 133.051 117.114 133.01 118.367 133.041C118.808 133.052 119.267 133.128 119.682 133.277C120.271 133.487 120.534 133.995 120.587 134.602C120.611 134.883 120.594 135.168 120.595 135.452C120.598 136.359 119.869 137.06 118.924 137.105C118.891 137.107 118.857 137.106 118.823 137.106C117.921 137.106 117.019 137.106 116.117 137.106C116.118 137.105 116.118 137.105 116.118 137.104Z" fill="#B1D572"/>
<path d="M129.685 137.126C129.454 137.101 129.215 137.106 128.994 137.047C128.318 136.865 127.898 136.427 127.794 135.726C127.741 135.364 127.695 134.998 127.69 134.633C127.669 133.081 127.659 131.529 127.661 129.978C127.661 129.66 127.58 129.41 127.368 129.163C126.325 127.948 125.301 126.716 124.264 125.494C123.876 125.037 123.468 124.595 123.069 124.147C122.435 123.438 122.294 122.613 122.531 121.72C122.715 121.028 123.249 120.664 123.909 120.567C124.358 120.501 124.836 120.568 125.292 120.637C125.718 120.703 126.046 120.976 126.323 121.303C127.306 122.461 128.295 123.613 129.27 124.776C129.785 125.39 129.81 125.386 130.321 124.754C131.328 123.509 132.343 122.269 133.379 121.048C134.086 120.213 135.577 120.033 136.495 120.624C136.822 120.835 137.031 121.137 137.12 121.5C137.35 122.447 137.194 123.303 136.528 124.065C135.047 125.762 133.593 127.482 132.118 129.185C131.897 129.44 131.794 129.701 131.796 130.042C131.806 131.744 131.802 133.446 131.79 135.148C131.788 135.393 131.752 135.649 131.676 135.88C131.414 136.682 130.837 137.088 129.987 137.105C129.887 137.107 129.787 137.105 129.686 137.105C129.687 137.113 129.686 137.119 129.685 137.126Z" fill="#B1D572"/>
<path d="M179.922 112.188C180.135 112.002 180.26 111.9 180.374 111.789C180.839 111.333 181.336 110.903 181.752 110.405C182.265 109.789 183.681 109.799 184.198 110.415C184.617 110.912 185.099 111.355 185.555 111.819C185.668 111.933 185.792 112.036 186.007 112.231C186.036 111.945 186.067 111.775 186.068 111.605C186.072 110.17 186.069 108.734 186.071 107.298C186.071 107.049 186.077 106.797 186.098 106.548C186.15 105.956 186.492 105.529 187.067 105.428C187.389 105.371 187.737 105.373 188.06 105.428C188.561 105.513 188.899 105.825 188.993 106.347C189.034 106.575 189.072 106.808 189.072 107.039C189.076 109.943 189.074 112.846 189.067 115.75C189.066 115.982 189.044 116.218 188.994 116.443C188.853 117.071 188.437 117.41 187.803 117.464C187.18 117.516 186.671 117.332 186.227 116.873C185.286 115.902 184.317 114.958 183.359 114.003C183.254 113.898 183.142 113.8 182.989 113.656C182.849 113.781 182.711 113.891 182.587 114.014C181.601 114.989 180.609 115.957 179.64 116.947C179.154 117.443 178.573 117.543 177.938 117.437C177.318 117.334 176.95 116.897 176.894 116.262C176.877 116.063 176.881 115.862 176.881 115.661C176.88 112.841 176.88 110.02 176.881 107.2C176.881 106.984 176.877 106.765 176.897 106.549C176.964 105.85 177.409 105.429 178.108 105.387C178.158 105.384 178.209 105.387 178.259 105.384C179.443 105.323 179.845 105.947 179.855 106.9C179.871 108.436 179.859 109.971 179.864 111.506C179.866 111.696 179.896 111.885 179.922 112.188Z" fill="#B1D572"/>
<path d="M106.745 112.178C106.952 112.004 107.08 111.909 107.192 111.798C107.645 111.354 108.125 110.933 108.534 110.45C109.117 109.762 110.512 109.798 111.055 110.44C111.464 110.924 111.93 111.357 112.375 111.81C112.488 111.926 112.613 112.03 112.731 112.139C112.963 111.984 112.891 111.784 112.891 111.616C112.897 110.165 112.893 108.713 112.896 107.261C112.896 107.012 112.898 106.76 112.927 106.512C112.994 105.938 113.329 105.532 113.885 105.435C114.223 105.377 114.587 105.385 114.926 105.441C115.39 105.518 115.707 105.815 115.81 106.288C115.866 106.546 115.902 106.814 115.902 107.078C115.906 109.947 115.904 112.817 115.896 115.686C115.895 115.951 115.863 116.219 115.817 116.479C115.716 117.047 115.329 117.349 114.795 117.44C114.177 117.545 113.612 117.432 113.142 116.951C112.185 115.972 111.207 115.015 110.236 114.051C110.108 113.923 109.973 113.802 109.814 113.65C109.657 113.795 109.519 113.912 109.392 114.039C108.407 115.013 107.421 115.985 106.444 116.968C105.91 117.505 105.278 117.564 104.594 117.384C104.084 117.25 103.821 116.886 103.749 116.378C103.724 116.198 103.726 116.012 103.726 115.829C103.725 112.892 103.725 109.956 103.725 107.02C103.725 106.853 103.714 106.683 103.743 106.52C103.778 106.326 103.814 106.114 103.915 105.952C104.306 105.323 104.945 105.338 105.568 105.402C106.095 105.457 106.477 105.752 106.596 106.286C106.667 106.608 106.691 106.947 106.693 107.278C106.703 108.678 106.696 110.08 106.699 111.481C106.7 111.676 106.724 111.869 106.745 112.178Z" fill="#B1D572"/>
<path d="M154.142 111.228C154.129 111.403 154.106 111.579 154.105 111.754C154.103 113.156 154.108 114.559 154.102 115.961C154.101 116.193 154.078 116.428 154.03 116.654C153.931 117.116 153.603 117.374 153.16 117.443C152.73 117.511 152.294 117.487 151.877 117.319C151.41 117.13 151.168 116.783 151.12 116.292C151.112 116.209 151.116 116.126 151.116 116.041C151.116 112.953 151.116 109.865 151.117 106.776C151.117 106.66 151.111 106.541 151.128 106.426C151.193 105.994 151.427 105.673 151.835 105.527C152.617 105.245 153.61 105.302 154.268 106.159C155.283 107.484 156.328 108.786 157.361 110.098C157.681 110.504 157.998 110.913 158.323 111.316C158.42 111.436 158.537 111.542 158.645 111.654C158.682 111.64 158.718 111.627 158.755 111.613C158.766 111.438 158.786 111.264 158.786 111.089C158.79 109.721 158.788 108.352 158.793 106.983C158.794 106.749 158.802 106.514 158.834 106.284C158.896 105.82 159.172 105.51 159.622 105.421C160.065 105.335 160.522 105.338 160.956 105.509C161.417 105.69 161.693 106.015 161.711 106.526C161.719 106.742 161.727 106.96 161.728 107.176C161.732 110.047 161.735 112.92 161.738 115.791C161.738 115.908 161.739 116.024 161.734 116.142C161.699 116.897 161.477 117.195 160.749 117.389C159.96 117.6 159.265 117.466 158.73 116.785C157.575 115.315 156.411 113.852 155.249 112.387C154.931 111.986 154.607 111.59 154.286 111.191C154.238 111.204 154.191 111.216 154.142 111.228Z" fill="#B1D572"/>
<path d="M163.197 111.417C163.157 108.11 165.831 105.297 169.435 105.383C172.481 105.455 175.358 107.76 175.369 111.399C175.38 115.174 172.397 117.481 169.234 117.461C165.755 117.439 163.148 114.675 163.197 111.417ZM166.194 111.396C166.121 112.942 167.401 114.444 169.276 114.465C170.987 114.484 172.415 113.075 172.407 111.412C172.398 109.729 171.029 108.4 169.338 108.353C167.65 108.307 166.13 109.673 166.194 111.396Z" fill="#B1D572"/>
<path d="M120.422 108.363C120.409 108.63 120.394 108.795 120.394 108.958C120.392 110.593 120.393 112.228 120.393 113.863C120.393 113.946 120.397 114.029 120.395 114.114C120.388 114.357 120.492 114.492 120.749 114.486C120.883 114.483 121.016 114.488 121.15 114.489C122.837 114.49 124.523 114.488 126.21 114.492C126.443 114.493 126.677 114.51 126.909 114.538C127.039 114.554 127.173 114.591 127.293 114.644C127.884 114.906 128.15 115.616 127.984 116.465C127.875 117.024 127.42 117.415 126.819 117.463C126.735 117.47 126.652 117.466 126.568 117.466C123.996 117.466 121.424 117.467 118.852 117.463C118.672 117.463 118.484 117.443 118.311 117.392C117.755 117.228 117.451 116.835 117.416 116.262C117.407 116.112 117.41 115.962 117.41 115.811C117.41 112.908 117.41 110.006 117.41 107.103C117.41 106.936 117.408 106.769 117.417 106.602C117.454 105.93 117.868 105.482 118.532 105.397C118.664 105.38 118.799 105.385 118.933 105.385C121.488 105.385 124.043 105.384 126.599 105.386C126.765 105.386 126.935 105.388 127.097 105.419C127.224 105.444 127.355 105.498 127.465 105.568C128.122 105.985 128.058 106.644 127.989 107.274C127.931 107.803 127.607 108.157 127.074 108.271C126.815 108.326 126.547 108.36 126.283 108.361C124.546 108.369 122.809 108.365 121.072 108.365C120.875 108.363 120.679 108.363 120.422 108.363Z" fill="#B1D572"/>
<path d="M148.188 105.384C148.934 105.384 149.412 105.653 149.579 106.212C149.701 106.616 149.728 107.041 149.543 107.435C149.433 107.673 149.283 107.903 149.107 108.097C148.207 109.083 147.293 110.055 146.385 111.034C146.034 111.411 146.032 111.415 146.392 111.801C147.222 112.693 148.056 113.58 148.887 114.471C149.023 114.617 149.155 114.768 149.286 114.919C149.727 115.427 149.718 116.019 149.584 116.621C149.512 116.949 149.276 117.168 148.976 117.312C148.412 117.582 147.353 117.542 146.818 116.893C145.662 115.49 144.468 114.118 143.3 112.724C142.693 111.999 142.672 110.985 143.244 110.225C143.584 109.772 143.958 109.343 144.324 108.91C145.142 107.941 145.96 106.973 146.788 106.013C147.23 105.503 147.524 105.384 148.188 105.384Z" fill="#B1D572"/>
<path d="M142.025 111.41C142.025 112.827 142.029 114.244 142.021 115.66C142.02 115.925 141.995 116.194 141.939 116.451C141.803 117.071 141.374 117.437 140.741 117.455C140.446 117.463 140.138 117.44 139.856 117.361C139.352 117.218 139.107 116.832 139.057 116.323C139.041 116.158 139.047 115.99 139.047 115.824C139.046 112.873 139.046 109.923 139.046 106.973C139.046 106.839 139.033 106.703 139.057 106.574C139.093 106.379 139.122 106.17 139.216 106.002C139.564 105.371 140.173 105.348 140.788 105.39C141.31 105.425 141.73 105.655 141.896 106.176C141.986 106.456 142.025 106.764 142.027 107.059C142.04 108.509 142.033 109.959 142.033 111.409C142.03 111.41 142.027 111.41 142.025 111.41Z" fill="#B1D572"/>
<path d="M164.941 126.83C165.659 126.83 166.375 126.842 167.093 126.827C168.476 126.798 169.118 127.699 169.1 128.952C169.096 129.214 169.043 129.485 168.959 129.735C168.772 130.291 168.396 130.677 167.807 130.804C167.484 130.873 167.15 130.927 166.821 130.931C165.553 130.945 164.286 130.941 163.018 130.933C162.753 130.931 162.486 130.902 162.224 130.86C161.418 130.73 160.961 130.23 160.802 129.452C160.685 128.884 160.727 128.32 160.967 127.788C161.26 127.143 161.811 126.858 162.489 126.837C163.305 126.811 164.123 126.831 164.941 126.831V126.83Z" fill="#B1D572"/>
<path d="M124.224 109.984C124.758 109.984 125.292 109.997 125.825 109.981C126.86 109.951 127.386 110.678 127.258 111.69C127.156 112.502 126.777 112.895 125.95 112.935C124.819 112.99 123.679 113.006 122.549 112.938C121.344 112.865 120.762 111.465 121.476 110.473C121.718 110.137 122.071 109.995 122.473 109.988C123.056 109.977 123.64 109.985 124.224 109.985C124.224 109.985 124.224 109.985 124.224 109.984Z" fill="#B1D572"/>
</g>
<defs>
<clipPath id="clip0_257_119">
<rect width="90.9617" height="92.8971" fill="white" transform="translate(100.757 44.2349)"/>
</clipPath>
</defs>
</svg>
