<svg width="298" height="182" viewBox="0 0 298 182" fill="none" xmlns="http://www.w3.org/2000/svg">
<rect x="1.2085" y="1.61572" width="294.887" height="178.892" fill="black"/>
<rect x="1.2085" y="1.61572" width="294.887" height="178.892" fill="#84EA51" style="mix-blend-mode:darken"/>
<rect x="1.2085" y="1.61572" width="294.887" height="178.892" stroke="#B1D572" stroke-width="2"/>
<path d="M103.467 82.8872C104.615 83.513 104.996 84.4807 104.906 85.758C104.828 86.8805 104.886 88.0095 104.886 89.2287C105.989 88.6997 107.034 88.261 108.189 88.0869C112.924 87.3772 117.382 90.4674 118.285 95.1122C119.208 99.8667 116.24 104.428 111.518 105.505C105.976 106.77 100.693 102.576 100.68 96.8927C100.674 93.1898 100.719 89.4803 100.654 85.7773C100.635 84.5065 100.938 83.5323 102.073 82.8872C102.538 82.8872 103.002 82.8872 103.467 82.8872ZM104.886 96.8024C104.841 99.3764 106.867 101.492 109.434 101.55C112.06 101.615 114.24 99.5055 114.266 96.8863C114.292 94.3897 112.189 92.2156 109.718 92.1834C107.002 92.1382 104.931 94.1252 104.886 96.8024Z" fill="#BCE180"/>
<path d="M236.091 98.641C235.794 98.9571 235.82 99.3958 235.684 99.77C234.22 103.925 230.104 106.324 225.608 105.57C221.556 104.892 218.344 101.067 218.395 96.8798C218.479 90.1835 225.343 85.9322 231.343 88.9513C231.497 89.0287 231.652 89.1191 231.93 89.2674C231.93 87.9707 231.994 86.7773 231.91 85.5903C231.827 84.3065 232.304 83.4291 233.452 82.8872C233.813 82.8872 234.175 82.8872 234.536 82.8872C235.233 83.1517 235.749 83.6162 236.084 84.2742C236.091 89.0674 236.091 93.8542 236.091 98.641ZM231.936 96.854C231.936 94.2219 229.878 92.1769 227.246 92.1834C224.666 92.1898 222.608 94.2477 222.601 96.8347C222.595 99.4668 224.646 101.55 227.259 101.55C229.878 101.55 231.936 99.4861 231.936 96.854Z" fill="#BCE180"/>
<path d="M74.5277 82.8901C75.1212 83.2579 75.8308 83.245 76.4695 83.4836C77.6113 83.9159 78.6758 84.4707 79.6305 85.2255C80.6176 86.0061 80.8111 87.1544 80.1079 88.0704C79.4177 88.9736 78.2564 89.0704 77.2307 88.3156C72.5536 84.8448 66.1734 87.3995 65.1605 93.1346C64.6509 96.0183 66.0508 99.0762 68.6055 100.683C71.1343 102.27 74.4567 102.218 76.8436 100.553C77.0307 100.418 77.2113 100.27 77.4049 100.141C78.3209 99.5084 79.437 99.6568 80.1015 100.495C80.7918 101.36 80.6627 102.489 79.7918 103.231C75.1792 107.166 67.7346 106.36 63.7477 101.508C62.5865 100.089 61.8059 98.4956 61.4188 96.7021C61.3866 96.5602 61.4188 96.3796 61.2124 96.3344C61.2124 94.999 61.2124 93.6572 61.2124 92.3218C61.4769 92.225 61.3866 91.9734 61.4317 91.7928C62.6446 87.2189 65.5347 84.3288 70.1215 83.1224C70.3021 83.0772 70.5537 83.1611 70.6505 82.903C71.9472 82.8901 73.2374 82.8901 74.5277 82.8901Z" fill="#BCE180"/>
<path d="M86.2888 112.538C84.6502 111.312 84.476 110.564 85.4308 108.693C86.1984 107.184 86.9661 105.668 87.7596 104.171C87.9596 103.79 87.9596 103.494 87.7661 103.113C85.792 99.2164 83.8438 95.307 81.8891 91.3975C81.7407 91.1008 81.5794 90.7976 81.5084 90.475C81.2762 89.417 81.8503 88.4106 82.8374 88.0687C83.8631 87.7139 84.9082 88.172 85.4179 89.1848C86.9403 92.2168 88.4628 95.2489 89.9853 98.2745C90.0885 98.4809 90.1982 98.6809 90.3659 98.997C91.3788 96.9714 92.3464 95.036 93.3141 93.1071C93.9463 91.8427 94.5656 90.5782 95.2043 89.3138C95.8236 88.0816 96.9655 87.6301 98.0751 88.1526C99.1911 88.6816 99.5589 89.9138 98.9331 91.1782C96.759 95.5457 94.5721 99.9131 92.3916 104.281C91.3142 106.442 90.224 108.596 89.1724 110.77C88.7789 111.59 88.2435 112.216 87.379 112.538C87.0113 112.538 86.65 112.538 86.2888 112.538Z" fill="#BCE180"/>
<path d="M215.666 82.8888C217.066 83.3662 217.486 84.3661 217.479 85.7918C217.428 91.6043 217.453 97.4233 217.466 103.236C217.466 104.242 217.182 105.074 216.221 105.52C214.789 106.19 213.241 105.158 213.221 103.507C213.196 101.475 213.215 99.4425 213.215 97.4104C213.215 93.5268 213.215 89.6367 213.215 85.7531C213.215 83.9919 213.499 83.5468 215.047 82.8823C215.254 82.8888 215.46 82.8888 215.666 82.8888Z" fill="#BCE180"/>
<path d="M159.851 98.9782C161.509 95.7139 163.115 92.5851 164.689 89.4434C165.121 88.5725 165.67 87.9145 166.708 87.9145C167.753 87.9145 168.315 88.5854 168.741 89.4434C170.302 92.598 171.869 95.7397 173.482 98.9847C174.314 97.3525 175.095 95.8107 175.882 94.2624C176.759 92.5206 177.617 90.7659 178.521 89.037C178.972 88.1725 179.753 87.8112 180.63 87.9403C181.482 88.0693 182.153 88.6821 182.333 89.5143C182.456 90.0691 182.32 90.5917 182.075 91.082C179.837 95.5914 177.598 100.094 175.34 104.597C174.966 105.346 174.295 105.733 173.45 105.713C172.566 105.694 171.96 105.204 171.579 104.436C170.082 101.449 168.592 98.4621 167.102 95.4752C166.979 95.2236 166.844 94.9721 166.676 94.6366C165.921 96.1397 165.192 97.5719 164.476 99.0105C163.58 100.804 162.689 102.597 161.812 104.397C161.418 105.204 160.806 105.707 159.889 105.72C158.98 105.726 158.348 105.249 157.941 104.442C155.806 100.172 153.664 95.901 151.522 91.6239C151.271 91.1207 151.013 90.6175 151 90.0304C150.987 89.0821 151.522 88.2822 152.367 88.0112C153.258 87.7274 154.225 88.0435 154.729 88.8628C155.064 89.4047 155.328 89.9982 155.619 90.5723C157.012 93.3334 158.406 96.1075 159.851 98.9782Z" fill="#BCE180"/>
<path d="M131.929 98.9513C130.845 98.9513 129.762 98.9642 128.684 98.9448C127.362 98.9254 126.401 98.0223 126.401 96.8353C126.401 95.6611 127.284 94.7644 128.594 94.7064C129.749 94.6548 130.916 94.6935 132.071 94.687C132.245 94.687 132.471 94.7644 132.568 94.5967C132.697 94.3774 132.465 94.2225 132.349 94.0677C131.142 92.4356 128.975 91.784 127.033 92.4549C125.143 93.1129 123.82 95.0418 123.898 97.0417C123.975 99.0738 125.381 100.887 127.342 101.396C129.246 101.893 131 101.699 132.516 100.267C133.413 99.4157 134.684 99.4996 135.497 100.351C136.284 101.177 136.258 102.403 135.445 103.267C132.994 105.873 128.691 106.596 125.059 105.022C121.562 103.506 119.504 100.112 119.737 96.2482C119.956 92.642 122.53 89.4293 126.033 88.3842C131.31 86.8166 136.471 90.1583 137.368 95.7257C137.51 96.5966 137.671 97.461 136.968 98.2029C136.516 98.6803 135.994 98.9319 135.329 98.9254C134.194 98.9125 133.058 98.9254 131.929 98.9254C131.929 98.9319 131.929 98.9448 131.929 98.9513Z" fill="#BCE180"/>
<path d="M199.906 96.9078C199.906 101.804 195.978 105.727 191.075 105.727C186.114 105.727 182.088 101.701 182.153 96.8045C182.217 91.8758 186.12 87.9987 191.023 87.9922C196.016 87.9793 199.906 91.8887 199.906 96.9078ZM195.726 96.8691C195.732 94.237 193.668 92.1597 191.055 92.1597C188.449 92.1597 186.327 94.2757 186.352 96.8562C186.378 99.4237 188.443 101.514 190.997 101.553C193.565 101.591 195.719 99.456 195.726 96.8691Z" fill="#BCE180"/>
<path d="M201.294 99.6603C201.339 98.1571 201.165 96.4347 201.565 94.7315C202.481 90.8221 206.235 87.8868 210.261 87.9578C211.409 87.9772 212.306 88.8803 212.332 90.0222C212.351 91.1576 211.474 92.1704 210.325 92.1317C207.867 92.0479 205.326 94.2026 205.513 97.2088C205.642 99.2603 205.558 101.318 205.532 103.376C205.513 105.053 204.255 106.066 202.81 105.608C202.029 105.363 201.577 104.828 201.403 104.028C201.255 103.337 201.313 102.647 201.3 101.957C201.287 101.267 201.294 100.57 201.294 99.6603Z" fill="#BCE180"/>
<path d="M138.962 99.9264C139.046 98.2361 138.82 96.533 139.194 94.8557C140.078 90.8689 143.865 87.8755 147.942 87.9659C149.078 87.9917 149.974 88.9077 149.981 90.056C149.987 91.1914 149.11 92.1269 147.949 92.1462C145.916 92.1849 144.484 93.1397 143.568 94.9073C143.291 95.4363 143.188 96.0234 143.194 96.6233C143.201 98.7845 143.213 100.939 143.213 103.1C143.213 103.429 143.168 103.765 143.097 104.094C142.884 105.081 142.02 105.752 141.039 105.72C140.027 105.687 139.214 105.016 139.059 104.004C138.852 102.655 139.033 101.288 138.962 99.9264Z" fill="#BCE180"/>
</svg>
