<svg width="298" height="182" viewBox="0 0 298 182" fill="none" xmlns="http://www.w3.org/2000/svg">
<rect x="1.90479" y="1.61572" width="294.887" height="178.892" fill="black"/>
<rect x="1.90479" y="1.61572" width="294.887" height="178.892" fill="#84EA51" style="mix-blend-mode:darken"/>
<rect x="1.90479" y="1.61572" width="294.887" height="178.892" stroke="#B1D572" stroke-width="2"/>
<path d="M52.8238 94.0436C51.8017 93.4047 50.8837 92.6287 49.9184 91.9141C49.6203 91.6917 49.4404 91.6207 49.1755 91.9946C48.4656 93.0072 47.6943 93.9773 46.9609 94.971C46.6201 95.4348 46.2321 95.8559 45.8914 96.3244C45.5696 96.7692 45.6927 96.9632 46.0712 97.1904C46.1659 97.2472 46.2368 97.3371 46.3173 97.4128C44.0364 98.8229 42.2666 100.825 40.3123 102.613C39.9858 102.916 39.7208 103.366 39.2003 103.432C39.1435 103.233 39.0772 103.039 39.0394 102.836C38.8832 101.974 38.7365 101.113 38.5898 100.247C38.5898 99.0406 38.5898 97.8292 38.5898 96.6225C38.8501 96.0925 38.798 95.5058 38.9305 94.9474C39.1009 94.2186 39.2334 93.4804 39.5079 92.7801C40.1704 92.7138 40.7902 92.4583 41.3817 92.2075C44.0979 91.0434 46.8 89.8557 49.554 88.7815C52.0715 87.7972 54.622 87.6553 57.2105 88.4645C57.9913 88.7058 58.597 89.2169 59.2642 89.6711C60.2863 90.3667 61.3368 91.034 62.3684 91.7248C63.083 92.2075 63.7786 92.7186 64.4836 93.2202C62.6571 93.3574 60.8731 93.8637 58.9945 93.6082C57.9581 93.4662 56.8792 93.3479 55.8051 93.5656C54.8208 93.7644 53.8034 93.7596 52.8238 94.0436Z" fill="#BCE180"/>
<path d="M56.4153 118.03C55.6014 117.878 54.7827 117.741 53.9688 117.575C53.33 117.448 52.6912 117.306 52.0854 117.06C52.3268 116.638 52.7716 116.847 53.1123 116.733C54.002 116.444 54.9152 116.463 55.8285 116.572C57.4469 116.761 59.07 116.761 60.6694 116.506C62.6853 116.184 64.597 115.536 66.4047 114.542C67.7675 113.79 69.0215 112.905 70.1524 111.85C72.0878 110.037 73.5595 107.884 74.5817 105.447C75.5139 103.223 76.0013 100.9 75.9445 98.4815C75.9256 97.7907 75.5707 97.5777 74.9318 97.8616C74.5533 98.032 74.2126 98.2733 73.8671 98.5005C73.5311 98.7229 73.2993 99.1109 72.8355 99.1535C72.6652 99.1677 72.4806 99.2197 72.5705 98.9831C72.6983 98.6377 72.6746 98.2733 72.703 97.9279C72.7882 96.9389 72.8639 95.9404 72.6462 94.9514C72.6888 94.9041 72.7267 94.852 72.7693 94.8047C72.8308 94.7953 72.8923 94.7858 72.9538 94.7763C73.0485 94.7763 73.1431 94.7716 73.2377 94.7716C74.3072 94.871 75.3672 94.7574 76.3467 94.3268C76.9666 94.0571 76.9808 94.4025 77.0518 94.7953C78.0881 100.488 76.995 105.722 73.4696 110.34C70.0436 114.826 65.4583 117.339 59.8224 117.921C59.7325 117.93 59.6331 117.916 59.5952 118.034C58.5352 118.03 57.4753 118.03 56.4153 118.03Z" fill="#BCE180"/>
<path d="M72.6469 94.9531C72.8646 95.9421 72.7889 96.9406 72.7037 97.9296C72.6753 98.275 72.699 98.6394 72.5712 98.9848C72.4813 99.2262 72.6706 99.1694 72.8362 99.1552C73.3 99.1126 73.5318 98.7246 73.8678 98.5022C74.2132 98.2703 74.5492 98.0337 74.9325 97.8633C75.5713 97.5794 75.9263 97.7924 75.9452 98.4832C76.0067 100.906 75.5146 103.225 74.5823 105.449C73.5602 107.891 72.0885 110.044 70.1531 111.851C69.0269 112.907 67.7729 113.791 66.4053 114.544C64.6024 115.538 62.6859 116.191 60.6701 116.508C59.0659 116.763 57.4476 116.763 55.8292 116.574C54.9112 116.465 54.0026 116.446 53.113 116.735C52.7723 116.844 52.3275 116.64 52.0861 117.061C48.3431 115.888 45.272 113.735 42.8208 110.692C41.7088 109.31 40.7718 107.82 40.1377 106.154C41.2308 105.463 42.0968 104.488 43.1662 103.764C44.0227 103.187 44.5007 102.203 45.4092 101.63C46.5591 100.901 47.6191 100.031 48.7169 99.2214C49.2848 99.6426 49.8999 99.9975 50.4015 100.513C50.5908 100.707 50.8322 100.731 51.0309 100.419C51.3054 99.9928 51.6555 99.6142 51.9394 99.193C52.124 98.9233 52.2565 98.8429 52.5499 99.0795C53.6335 99.9502 54.7266 100.835 55.8813 101.592C56.7141 102.136 56.6952 102.553 56.4586 103.395C55.7393 105.931 57.386 108.577 59.9272 109.178C62.5109 109.788 65.1419 108.156 65.6908 105.567C65.9842 104.195 65.7287 102.908 64.8911 101.763C64.7491 101.569 64.6403 101.431 64.8343 101.181C66.3817 99.1694 67.9101 97.1441 69.4433 95.1282C70.5222 95.2087 71.5917 95.1708 72.6469 94.9531Z" fill="#BCE180"/>
<path d="M64.489 93.2196C63.7839 92.7227 63.0883 92.2069 62.3737 91.7243C61.3469 91.0287 60.2964 90.3614 59.2695 89.6706C58.6023 89.2163 57.9966 88.7052 57.2158 88.4639C54.6274 87.6594 52.0768 87.7967 49.5594 88.7809C46.8053 89.8551 44.1033 91.0429 41.3871 92.2069C40.7956 92.4625 40.1757 92.718 39.5132 92.7795C40.029 90.8678 40.9328 89.1406 42.0732 87.5317C45.1207 83.2302 49.266 80.5803 54.4286 79.5629C56.7757 79.0991 59.1607 79.1228 61.5172 79.5487C64.0631 80.0077 66.4386 80.9399 68.6153 82.3548C68.975 82.5867 68.9087 82.7286 68.6721 82.9889C66.5474 85.2934 66.2824 88.4733 67.792 91.3126C68.0191 91.7337 68.3835 92.0839 68.7052 92.453C68.8709 92.647 68.9702 92.8126 68.781 93.0445C68.3362 93.6029 67.8961 94.1613 67.456 94.7244C66.4528 94.2512 65.4354 93.8016 64.489 93.2196Z" fill="#BCE180"/>
<path d="M73.749 78.2761C73.749 74.2113 76.9715 70.9935 81.0411 71.003C85.0728 71.0124 88.2812 74.2397 88.319 78.2477C88.3569 82.251 84.9876 85.6203 80.9275 85.5493C76.9479 85.4783 73.749 82.2936 73.749 78.2761Z" fill="#BCE180"/>
<path d="M233.361 104.89C233.361 104.544 233.361 104.36 233.361 104.18C233.361 101.331 233.371 98.4827 233.352 95.6292C233.347 95.227 233.423 95.0614 233.872 95.0803C234.724 95.1182 235.576 95.104 236.423 95.085C236.745 95.0803 236.887 95.1418 236.887 95.5157C236.858 100.555 236.844 105.59 236.839 110.63C236.839 111.018 236.74 111.179 236.338 111.131C236.04 111.098 235.723 111.065 235.434 111.117C234.194 111.344 233.47 110.762 232.76 109.778C230.721 106.944 228.558 104.199 226.448 101.421C226.372 101.322 226.329 101.185 226.098 101.123C226.098 101.45 226.098 101.762 226.098 102.07C226.098 104.899 226.088 107.729 226.107 110.564C226.112 111.013 225.989 111.146 225.544 111.122C224.697 111.079 223.845 111.079 222.993 111.089C222.676 111.094 222.572 111.004 222.572 110.677C222.596 105.619 222.615 100.565 222.62 95.5062C222.62 95.156 222.733 95.0472 223.079 95.0614C223.798 95.085 224.517 95.1087 225.232 95.0566C225.738 95.0188 226.017 95.227 226.301 95.6056C228.502 98.5347 230.721 101.445 232.931 104.365C233.04 104.488 233.148 104.62 233.361 104.89Z" fill="#BCE180"/>
<path d="M211.247 102.996C211.247 107.723 207.566 111.305 202.711 111.305C197.879 111.305 194.179 107.699 194.207 103.024C194.236 98.311 197.936 94.7477 202.796 94.7524C207.618 94.7524 211.247 98.292 211.247 102.996ZM207.528 103.043C207.528 99.6028 204.523 97.2746 201.291 98.221C198.774 98.9592 197.349 101.813 198.14 104.505C198.75 106.592 200.529 108.121 202.9 108.021C205.682 107.912 207.528 105.859 207.528 103.043Z" fill="#BCE180"/>
<path d="M130.992 94.8232C132.847 94.8232 134.697 94.8326 136.552 94.8137C136.95 94.809 137.111 94.8468 137.059 95.3295C136.983 96.0582 137.011 96.8012 137.044 97.5346C137.063 97.9369 136.94 98.0315 136.543 98.0268C134.03 97.9984 131.513 98.0031 129 97.9747C128.598 97.97 128.437 98.0362 128.465 98.4858C128.508 99.2193 128.503 99.9575 128.465 100.691C128.442 101.112 128.598 101.174 128.972 101.169C131.144 101.159 133.32 101.188 135.492 101.169C135.932 101.164 136.036 101.297 136.013 101.708C135.97 102.442 135.956 103.18 135.98 103.913C135.994 104.306 135.852 104.368 135.502 104.368C133.33 104.354 131.153 104.372 128.976 104.349C128.565 104.344 128.413 104.429 128.437 104.869C128.475 105.641 128.47 106.417 128.437 107.188C128.418 107.581 128.565 107.642 128.915 107.642C131.446 107.647 133.978 107.685 136.51 107.671C137.03 107.666 137.134 107.822 137.106 108.295C137.063 109.01 137.082 109.729 137.101 110.444C137.111 110.747 137.049 110.87 136.704 110.87C133.528 110.855 130.349 110.865 127.173 110.86C126.553 110.86 125.929 110.808 125.309 110.818C124.978 110.822 124.855 110.751 124.855 110.387C124.869 107.141 124.826 103.895 124.878 100.653C124.907 98.8975 124.916 97.1466 124.897 95.3958C124.892 94.8705 125.058 94.7948 125.527 94.7995C127.339 94.8279 129.156 94.809 130.973 94.809C130.992 94.8184 130.992 94.8232 130.992 94.8232Z" fill="#BCE180"/>
<path d="M113.872 104.417C112.945 104.417 112.017 104.436 111.095 104.407C110.735 104.398 110.659 104.507 110.664 104.848C110.678 106.66 110.65 108.472 110.678 110.28C110.683 110.72 110.55 110.81 110.143 110.796C109.254 110.763 108.364 110.772 107.479 110.791C107.157 110.8 107.063 110.706 107.068 110.379C107.096 105.307 107.11 100.229 107.12 95.1563C107.12 94.8771 107.176 94.7635 107.493 94.773C108.44 94.7967 109.386 94.7967 110.328 94.773C110.678 94.7635 110.721 94.9102 110.716 95.2036C110.692 96.9971 110.697 98.7858 110.669 100.579C110.664 100.963 110.74 101.086 111.151 101.086C112.983 101.076 114.819 101.095 116.65 101.133C117.043 101.142 117.156 101.038 117.152 100.641C117.133 98.8473 117.156 97.0539 117.142 95.2651C117.142 94.9197 117.194 94.7588 117.596 94.7777C118.519 94.8203 119.447 94.8203 120.374 94.8156C120.677 94.8109 120.753 94.9102 120.753 95.2036C120.715 99.4293 120.691 103.655 120.663 107.876C120.658 108.723 120.649 109.575 120.667 110.422C120.677 110.739 120.587 110.838 120.261 110.829C119.352 110.805 118.443 110.805 117.54 110.829C117.189 110.838 117.095 110.739 117.1 110.389C117.128 108.557 117.118 106.731 117.152 104.9C117.156 104.507 117.062 104.389 116.659 104.403C115.727 104.436 114.8 104.417 113.872 104.417Z" fill="#BCE180"/>
<path d="M171.499 110.931C170.08 110.931 168.745 110.931 167.411 110.931C167.122 110.931 167.046 110.69 166.919 110.519C165.485 108.555 164.051 106.592 162.641 104.609C162.366 104.221 162.267 104.254 161.879 104.547C160.649 105.48 160.303 106.672 160.455 108.139C160.54 108.943 160.459 109.762 160.474 110.571C160.478 110.836 160.407 110.94 160.128 110.936C159.144 110.912 158.164 110.893 157.18 110.903C156.792 110.907 156.872 110.666 156.877 110.458C156.882 108.607 156.891 106.762 156.896 104.912C156.901 101.779 156.91 98.6465 156.882 95.5139C156.877 94.9744 157.048 94.8561 157.544 94.8798C158.354 94.9176 159.172 94.9129 159.981 94.8798C160.393 94.8608 160.521 94.9555 160.516 95.3956C160.483 97.3783 160.497 99.3563 160.497 101.339C160.497 101.448 160.497 101.557 160.497 101.803C161.174 101.083 161.775 100.454 162.366 99.82C163.795 98.2916 165.229 96.7584 166.649 95.2252C166.824 95.0359 166.98 94.9129 167.264 94.9176C168.551 94.9318 169.834 94.9271 171.149 94.9271C171.163 95.1779 170.96 95.282 170.827 95.4145C168.897 97.4114 166.971 99.4083 165.031 101.386C164.77 101.651 164.799 101.812 165.002 102.091C167.08 104.893 169.147 107.699 171.215 110.51C171.296 110.633 171.376 110.756 171.499 110.931Z" fill="#BCE180"/>
<path d="M179.269 102.972C179.269 100.483 179.279 97.9896 179.26 95.5006C179.255 95.0463 179.388 94.9327 179.832 94.9375C182.194 94.9611 184.564 94.8523 186.916 95.0652C189.05 95.2592 190.782 96.2482 191.558 98.3398C192.325 100.408 192.174 102.442 190.674 104.189C189.566 105.476 188.052 105.973 186.4 106.148C185.359 106.257 184.323 106.157 183.287 106.152C182.922 106.152 182.79 106.247 182.799 106.63C182.823 107.894 182.785 109.162 182.818 110.425C182.833 110.913 182.667 111.031 182.213 111.008C181.403 110.965 180.585 110.946 179.776 110.979C179.288 111.003 179.231 110.799 179.231 110.388C179.246 107.917 179.241 105.443 179.241 102.972C179.25 102.972 179.26 102.972 179.269 102.972ZM182.837 100.597C182.837 101.274 182.847 101.955 182.833 102.632C182.823 102.925 182.927 103.025 183.225 103.02C184.153 103.001 185.08 103.048 186.003 102.987C187.498 102.887 188.383 101.917 188.35 100.483C188.322 99.1348 187.399 98.2594 185.908 98.2026C185.019 98.1695 184.129 98.2073 183.244 98.1836C182.913 98.1742 182.828 98.2972 182.837 98.6095C182.851 99.2768 182.837 99.9345 182.837 100.597Z" fill="#BCE180"/>
<path d="M147.853 111.159C143.674 111.164 140.409 108.575 139.661 104.492C138.71 99.3149 142.302 94.6727 147.744 94.597C150.096 94.5639 152.211 95.1648 153.966 96.8116C154.217 97.0482 154.231 97.1712 153.995 97.422C153.389 98.0703 152.807 98.7375 152.244 99.4237C152.04 99.6745 151.936 99.6934 151.686 99.4757C150.805 98.7186 149.835 98.1413 148.648 97.9615C146.106 97.5829 143.792 99.2249 143.367 101.757C143.012 103.862 143.513 105.703 145.269 107.033C146.849 108.235 149.178 108.15 150.933 106.924C151.132 106.782 151.354 106.654 151.51 106.474C151.903 106.025 152.211 106.02 152.604 106.508C153.044 107.047 153.55 107.534 154.061 108.008C154.326 108.254 154.288 108.386 154.052 108.628C152.376 110.336 150.394 111.154 147.853 111.159Z" fill="#BCE180"/>
<path d="M97.8455 111.013C94.093 111.169 90.2363 108.59 89.607 104.023C88.935 99.1351 92.0866 95.1838 96.511 94.5828C99.2462 94.209 101.764 94.6964 103.888 96.6034C104.186 96.8731 104.253 97.0388 103.95 97.3558C103.377 97.9568 102.833 98.5862 102.313 99.2297C102.071 99.5278 101.934 99.5657 101.622 99.296C100.581 98.3779 99.3834 97.777 97.9543 97.7628C95.5646 97.7344 93.5251 99.5704 93.3027 101.979C93.1134 104.066 93.6434 105.897 95.5173 107.066C97.2634 108.15 99.038 107.927 100.751 106.915C100.898 106.829 101.025 106.711 101.167 106.626C101.499 106.422 101.754 105.911 102.095 105.978C102.417 106.044 102.663 106.493 102.942 106.773C103.302 107.132 103.652 107.506 104.03 107.847C104.291 108.083 104.309 108.235 104.035 108.509C102.336 110.232 100.282 111.079 97.8455 111.013Z" fill="#BCE180"/>
<path d="M246.639 95.1558C248.66 95.1558 250.685 95.1653 252.706 95.1464C253.108 95.1416 253.274 95.2126 253.25 95.6622C253.208 96.4335 253.222 97.2095 253.245 97.9809C253.255 98.3263 253.151 98.4351 252.801 98.4304C251.495 98.4115 250.193 98.4399 248.887 98.4115C248.457 98.402 248.348 98.5345 248.348 98.9557C248.357 102.822 248.338 106.688 248.348 110.554C248.348 111.008 248.263 111.183 247.77 111.155C246.942 111.108 246.109 111.108 245.277 111.136C244.855 111.15 244.789 110.989 244.789 110.62C244.808 106.773 244.794 102.926 244.832 99.0787C244.837 98.5156 244.676 98.3973 244.146 98.4115C242.901 98.4446 241.652 98.3973 240.407 98.402C240.071 98.402 239.939 98.3121 239.948 97.9525C239.972 97.1812 239.977 96.4051 239.948 95.6338C239.934 95.2363 240.062 95.1274 240.455 95.1274C242.513 95.1464 244.576 95.1369 246.635 95.1369C246.639 95.1464 246.639 95.1511 246.639 95.1558Z" fill="#BCE180"/>
<path d="M214.68 103.035C214.68 100.546 214.689 98.0572 214.67 95.5729C214.666 95.1564 214.765 95.0145 215.2 95.0381C216.028 95.0807 216.861 95.0855 217.694 95.0571C218.148 95.0381 218.262 95.1801 218.257 95.6249C218.229 99.3585 218.229 103.087 218.215 106.821C218.21 108.084 218.172 109.343 218.177 110.607C218.177 110.971 218.087 111.103 217.703 111.094C216.833 111.07 215.967 111.07 215.096 111.094C214.727 111.103 214.618 110.999 214.618 110.621C214.637 108.094 214.628 105.567 214.628 103.045C214.651 103.035 214.665 103.035 214.68 103.035Z" fill="#BCE180"/>
<path d="M64.4884 93.2197C65.4348 93.8018 66.4522 94.2513 67.4507 94.7245C66.9917 95.3255 66.5374 95.9217 66.0784 96.5227C65.8891 96.447 65.6998 96.3145 65.5058 96.3003C63.8307 96.1773 62.1886 96.4375 60.5513 96.7451C60.3242 96.7877 60.168 96.9344 60.0119 97.1189C59.6049 97.6016 59.0087 97.9234 58.4503 98.0559C57.3619 98.3114 56.2499 98.5007 55.1615 98.7752C54.6315 98.3871 54.1063 97.9896 53.5621 97.6158C53.3255 97.4502 53.3444 97.3177 53.5053 97.1189C53.8318 96.7073 54.1347 96.2719 54.4659 95.8602C54.6741 95.6047 54.6741 95.4485 54.3855 95.2403C53.8555 94.857 53.2924 94.5021 52.8286 94.0336C53.8034 93.7544 54.8255 93.7544 55.8098 93.5557C56.8792 93.3428 57.9629 93.4563 58.9992 93.5983C60.8731 93.8633 62.6618 93.357 64.4884 93.2197Z" fill="#BCE180"/>
<path d="M48.7204 99.225C47.6226 100.034 46.5626 100.905 45.4127 101.634C44.5041 102.206 44.0262 103.19 43.1697 103.768C42.1003 104.492 41.2343 105.467 40.1412 106.157C39.7106 105.291 39.4314 104.369 39.209 103.432C39.7248 103.361 39.9898 102.911 40.321 102.613C42.2753 100.824 44.0451 98.8228 46.326 97.4126C47.121 98.0183 47.9207 98.6193 48.7204 99.225Z" fill="#BCE180"/>
<path d="M55.1616 98.7815C56.25 98.5071 57.362 98.3178 58.4504 98.0623C59.0088 97.9298 59.605 97.608 60.012 97.1253C60.1681 96.9408 60.3243 96.7941 60.5514 96.7515C62.1887 96.4392 63.8308 96.1789 65.5059 96.3067C65.6999 96.3209 65.8892 96.4534 66.0785 96.5291C65.2362 97.66 64.3891 98.7863 63.561 99.9267C63.3575 100.206 63.2014 100.315 62.8276 100.163C61.2376 99.5245 59.7139 99.7185 58.3084 100.689C58.0387 100.873 57.8778 100.868 57.627 100.674C56.8179 100.031 55.985 99.4109 55.1616 98.7815Z" fill="#BCE180"/>
<path d="M258.937 96.1064C259.216 95.936 259.302 95.6521 259.463 95.4249C259.581 95.2593 259.694 95.1316 259.917 95.1789C260.172 95.2309 260.092 95.4391 260.092 95.5906C260.101 96.0969 260.097 96.608 260.097 97.1143C260.097 97.2704 260.097 97.4171 259.874 97.4219C259.638 97.4219 259.666 97.261 259.661 97.1143C259.661 96.802 259.661 96.4897 259.661 96.1016C259.283 96.2909 259.226 96.6316 258.961 96.8446C258.776 96.5938 258.597 96.3524 258.341 96.0117C258.317 96.4613 258.303 96.802 258.284 97.1474C258.275 97.2846 258.246 97.4077 258.062 97.4029C257.858 97.3982 257.877 97.2515 257.877 97.1237C257.873 96.5796 257.873 96.0306 257.877 95.4865C257.877 95.3729 257.811 95.2025 258.01 95.1694C258.161 95.141 258.313 95.1505 258.407 95.3019C258.582 95.5669 258.762 95.8319 258.937 96.1064Z" fill="#BCE180"/>
<path d="M72.6471 94.9529C71.5919 95.1706 70.5224 95.2085 69.4482 95.1328C69.6091 94.7258 69.9498 94.4372 70.1817 94.0728C70.2858 93.9072 70.4514 93.8551 70.6265 93.945C71.2795 94.2857 71.9704 94.5081 72.6897 94.6643C72.7276 94.6738 72.7465 94.7542 72.7749 94.8015C72.7276 94.8536 72.6897 94.9009 72.6471 94.9529Z" fill="#BCE180"/>
<path d="M256.412 95.1549C256.62 95.1549 256.828 95.1502 257.032 95.1549C257.159 95.1549 257.306 95.1265 257.311 95.3348C257.315 95.5146 257.211 95.5761 257.065 95.5572C256.601 95.4909 256.601 95.7748 256.615 96.1061C256.629 96.4421 256.615 96.7828 256.62 97.1187C256.62 97.2938 256.573 97.4074 256.364 97.3979C256.166 97.3885 256.185 97.2418 256.185 97.114C256.18 96.8112 256.18 96.513 256.185 96.2102C256.185 95.8647 256.279 95.4578 255.683 95.5477C255.541 95.5714 255.508 95.4436 255.508 95.3206C255.508 95.1549 255.626 95.1549 255.74 95.1549C255.957 95.1549 256.185 95.1597 256.412 95.1549Z" fill="#BCE180"/>
<path d="M73.2319 94.7679C73.1377 94.7679 73.0435 94.7726 72.9492 94.7726C73.0435 94.7019 73.1377 94.6925 73.2319 94.7679Z" fill="#BCE180"/>
</svg>
