<svg width="298" height="182" viewBox="0 0 298 182" fill="none" xmlns="http://www.w3.org/2000/svg">
<rect x="1.60107" y="1.61572" width="294.887" height="178.892" fill="black"/>
<rect x="1.60107" y="1.61572" width="294.887" height="178.892" fill="#84EA51" style="mix-blend-mode:darken"/>
<rect x="1.60107" y="1.61572" width="294.887" height="178.892" stroke="#B1D572" stroke-width="2"/>
<path d="M73.6809 80.4705C73.7712 80.5543 73.8808 80.6511 73.9905 80.7543C76.1 82.8638 78.1967 84.9863 80.3385 87.0636C80.8094 87.5216 80.4675 87.6893 80.2094 87.9474C74.655 93.5019 69.1005 99.0563 63.5331 104.598C63.0622 105.062 62.9461 105.34 63.5073 105.83C64.346 106.572 65.133 107.378 65.8943 108.204C66.3136 108.662 66.5458 108.688 67.0103 108.223C72.5325 102.669 78.0805 97.1468 83.6028 91.5923C84.1189 91.0698 84.364 91.0569 84.8801 91.5923C86.8477 93.6309 88.8605 95.6178 90.8862 97.5984C91.2732 97.979 91.2539 98.1725 90.8797 98.5402C85.2543 104.133 79.6417 109.739 74.0486 115.358C73.6357 115.778 73.4422 115.746 73.0551 115.346C71.0939 113.339 69.0683 111.397 67.1264 109.372C66.5587 108.778 66.2878 108.888 65.7846 109.404C63.8299 111.417 61.8171 113.372 59.8495 115.371C59.4882 115.739 59.2947 115.784 58.9076 115.391C56.8884 113.333 54.8498 111.294 52.7919 109.281C52.379 108.875 52.3403 108.662 52.779 108.223C58.3528 102.688 63.9008 97.121 69.4747 91.5923C69.9779 91.0891 69.965 90.8246 69.4618 90.3666C68.5586 89.5408 67.7264 88.6377 66.849 87.7861C66.591 87.541 66.5716 87.4055 66.8426 87.1345C69.0037 85.0056 71.1455 82.8509 73.2938 80.7091C73.3776 80.6188 73.4486 80.4576 73.6809 80.4705Z" fill="#BCE180"/>
<path d="M106.097 90.4367C109.355 86.1144 115.993 86.3789 119.341 90.727C122.593 94.9526 122.509 102.1 119.07 106.165C116.167 109.597 111.084 110.3 107.723 107.732C107.265 107.384 106.871 106.965 106.497 106.474C106.323 106.771 106.4 107.023 106.394 107.268C106.387 109.971 106.368 112.674 106.407 115.371C106.413 116.003 106.213 116.119 105.639 116.106C103.981 116.067 102.317 116.074 100.659 116.106C100.169 116.112 100.014 116.003 100.014 115.48C100.033 106.41 100.027 97.333 100.014 88.2627C100.014 87.8111 100.104 87.6369 100.601 87.6498C102.104 87.6821 103.613 87.6756 105.123 87.6563C105.504 87.6498 105.646 87.7595 105.691 88.153C105.787 88.8755 105.942 89.5916 106.097 90.4367ZM106.213 98.004C106.213 99.0103 106.252 99.7458 106.433 100.468C106.942 102.488 108.426 103.868 110.245 104.01C112.284 104.165 113.942 103.165 114.664 101.204C115.419 99.1458 115.419 97.0556 114.522 95.0429C113.806 93.4365 112.503 92.5721 110.736 92.5527C108.968 92.5334 107.678 93.372 106.878 94.9461C106.342 95.9912 106.194 97.1202 106.213 98.004Z" fill="#BCE180"/>
<path d="M191.93 106.196C190.627 107.854 189.027 108.757 187.111 109.137C184.182 109.718 181.086 108.595 179.569 106.37C177.944 103.983 177.963 99.3187 181.84 97.2866C183.608 96.3576 185.517 95.977 187.479 95.7641C188.388 95.6673 189.304 95.5834 190.214 95.448C190.853 95.3512 191.498 95.1835 191.62 94.39C191.736 93.6997 191.266 93.003 190.459 92.7062C188.975 92.1643 187.498 92.4159 186.027 92.7901C184.492 93.1836 183.047 93.8223 181.66 94.5706C181.215 94.8158 181.002 94.8609 180.795 94.2997C180.311 92.9901 179.763 91.7063 179.234 90.416C179.118 90.1386 179.06 89.958 179.428 89.7645C183.008 87.8872 186.743 86.8872 190.833 87.4743C194.962 88.0743 197.801 91.0547 197.891 95.2093C197.981 99.5896 197.93 103.976 197.955 108.357C197.955 108.808 197.807 108.899 197.388 108.892C195.904 108.873 194.427 108.86 192.943 108.899C192.459 108.912 192.323 108.718 192.265 108.318C192.175 107.667 192.059 107.002 191.93 106.196ZM191.601 99.1639C190.13 99.9767 188.537 100.015 187.001 100.325C186.556 100.415 186.124 100.551 185.711 100.764C185.027 101.119 184.73 101.699 184.73 102.441C184.737 103.189 185.092 103.738 185.769 104.086C186.188 104.299 186.64 104.364 187.092 104.428C189.485 104.77 191.298 103.531 191.588 101.306C191.672 100.635 191.601 99.9509 191.601 99.1639Z" fill="#BCE180"/>
<path d="M136.457 106.203C135.147 107.861 133.547 108.758 131.631 109.145C128.18 109.835 124.67 108.223 123.541 105.287C122.483 102.526 123.109 98.9844 126.444 97.2555C128.199 96.3459 130.076 95.9782 132.012 95.7653C132.921 95.6621 133.838 95.5846 134.747 95.4492C135.386 95.3524 136.024 95.1782 136.147 94.3912C136.25 93.7203 135.812 93.03 135.05 92.7397C133.844 92.2752 132.599 92.3591 131.36 92.6106C129.496 92.9913 127.773 93.7203 126.115 94.6299C125.722 94.8428 125.541 94.875 125.361 94.3783C124.864 93.0493 124.303 91.7397 123.761 90.4301C123.645 90.1398 123.606 89.9721 123.961 89.785C127.541 87.9077 131.276 86.9078 135.366 87.5013C139.495 88.1013 142.334 91.0946 142.418 95.2427C142.508 99.6231 142.456 104.01 142.476 108.39C142.476 108.758 142.418 108.932 141.985 108.926C140.456 108.9 138.921 108.887 137.392 108.932C136.902 108.945 136.857 108.674 136.805 108.345C136.689 107.668 136.586 107.003 136.457 106.203ZM136.154 99.1457C134.831 99.8553 133.496 100.01 132.167 100.197C131.593 100.281 131.018 100.404 130.483 100.642C129.638 101.023 129.238 101.617 129.264 102.481C129.289 103.313 129.741 103.907 130.631 104.203C131.489 104.487 132.36 104.545 133.263 104.358C135.025 103.991 136.063 102.829 136.154 101.036C136.173 100.455 136.154 99.8682 136.154 99.1457Z" fill="#BCE180"/>
<path d="M166.409 109.261C160.881 109.241 156.758 106.371 155.584 101.642C154.539 97.4421 155.055 93.4746 158.313 90.2619C160.203 88.3975 162.571 87.5201 165.203 87.3524C168.177 87.1589 170.951 87.7588 173.319 89.6555C176.344 92.0811 177.376 95.3648 177.138 99.0936C176.783 104.661 173.467 108.261 167.951 109.157C167.345 109.254 166.726 109.241 166.409 109.261ZM170.635 98.2227C170.68 97.6937 170.59 97.0937 170.48 96.4937C170.067 94.1907 168.467 92.6553 166.371 92.5521C164.281 92.4488 162.584 93.7133 161.977 95.9325C161.526 97.5775 161.532 99.2549 162.055 100.893C162.674 102.835 164.171 103.99 166.022 104.016C168.042 104.048 169.493 103.003 170.216 101.003C170.532 100.132 170.661 99.2355 170.635 98.2227Z" fill="#BCE180"/>
<path d="M226.38 98.4994C226.386 92.6675 229.444 88.6742 234.741 87.584C239.856 86.5324 244.882 88.4097 247.159 92.874C249.327 97.1124 248.882 104.183 243.779 107.473C239.134 110.466 231.038 109.937 227.728 104.041C226.722 102.241 226.309 100.299 226.38 98.4994ZM232.85 98.3575C232.889 99.5187 233.037 100.699 233.631 101.777C234.457 103.26 235.715 104.041 237.424 104.015C239.108 103.989 240.392 103.215 241.095 101.712C242.159 99.4542 242.166 97.1253 241.101 94.8674C240.392 93.3578 239.102 92.5837 237.431 92.5514C235.728 92.5191 234.45 93.2997 233.625 94.79C233.031 95.8867 232.883 97.093 232.85 98.3575Z" fill="#BCE180"/>
<path d="M66.4675 87.3339C66.3901 87.6758 66.1836 87.7984 66.0224 87.9597C63.0097 90.9724 59.997 93.9787 56.9843 96.9914C54.3844 99.5847 51.7782 102.172 49.1977 104.784C48.8235 105.159 48.6429 105.178 48.2623 104.791C46.2301 102.714 44.1657 100.662 42.0949 98.63C41.7207 98.2622 41.7014 98.0687 42.0885 97.6816C47.7139 92.0885 53.3264 86.4888 58.9196 80.8634C59.326 80.4505 59.526 80.457 59.926 80.8634C61.9581 82.9407 64.029 84.9857 66.0869 87.0372C66.2095 87.1598 66.3643 87.2565 66.4675 87.3339Z" fill="#BCE180"/>
<path d="M211.413 93.9897C211.413 90.4222 211.433 87.4934 211.4 84.5645C211.394 83.9452 211.497 83.7001 212.2 83.6355C213.794 83.4743 215.381 83.2098 216.955 82.913C217.677 82.7775 217.813 83.0098 217.78 83.6743C217.729 84.7903 217.787 85.9193 217.755 87.0353C217.742 87.5192 217.858 87.6804 218.374 87.674C220.419 87.6417 222.458 87.6804 224.503 87.6482C225.025 87.6417 225.212 87.7514 225.193 88.3062C225.148 89.4997 225.148 90.6996 225.193 91.8995C225.212 92.4608 225.019 92.564 224.503 92.5511C222.438 92.5253 220.367 92.5446 218.297 92.5317C217.942 92.5317 217.748 92.564 217.755 93.0091C217.781 95.8347 217.742 98.6668 217.8 101.492C217.845 103.505 218.909 104.318 220.916 103.976C221.896 103.808 222.851 103.544 223.748 103.092C224.083 102.925 224.264 102.899 224.425 103.312C224.883 104.524 225.374 105.718 225.87 106.918C225.98 107.182 226.051 107.369 225.722 107.537C222.438 109.176 219.032 109.885 215.465 108.692C213.032 107.879 211.845 105.963 211.581 103.505C211.194 100.131 211.523 96.7315 211.413 93.9897Z" fill="#BCE180"/>
<path d="M207.865 94.5393C207.865 99.0938 207.852 103.655 207.877 108.209C207.884 108.783 207.736 108.932 207.161 108.919C205.478 108.88 203.794 108.887 202.11 108.919C201.633 108.925 201.517 108.796 201.517 108.325C201.53 99.1325 201.53 89.9396 201.517 80.7531C201.517 80.2563 201.646 80.1144 202.149 80.1209C203.833 80.1531 205.516 80.1531 207.2 80.1209C207.742 80.1079 207.871 80.2628 207.871 80.7918C207.852 85.3721 207.865 89.9589 207.865 94.5393Z" fill="#BCE180"/>
<path d="M146.062 94.4491C146.062 89.9203 146.075 85.3851 146.049 80.8564C146.043 80.2371 146.236 80.1081 146.81 80.121C148.442 80.1597 150.075 80.1532 151.707 80.121C152.21 80.1145 152.403 80.1984 152.403 80.7661C152.384 89.9332 152.384 99.0939 152.403 108.261C152.403 108.816 152.236 108.926 151.72 108.919C150.036 108.887 148.352 108.887 146.668 108.919C146.139 108.932 146.049 108.751 146.049 108.274C146.068 103.661 146.062 99.0552 146.062 94.4491Z" fill="#BCE180"/>
<path d="M218.09 117.402C218.309 116.447 218.535 115.486 218.754 114.531C218.857 114.08 220.012 113.706 220.354 114.015C220.515 114.157 220.399 114.338 220.36 114.506C219.986 115.899 219.599 117.293 219.257 118.699C219.167 119.08 219.019 119.17 218.657 119.183C217.07 119.228 217.07 119.241 216.619 117.725C216.477 117.247 216.322 116.764 216.109 116.073C215.8 117.073 215.529 117.86 215.309 118.667C215.206 119.041 215.051 119.183 214.638 119.189C213.084 119.209 213.077 119.228 212.684 117.757C212.393 116.654 212.135 115.544 211.813 114.448C211.697 114.054 211.774 113.983 212.161 113.964C213.374 113.919 213.374 113.899 213.651 115.073C213.838 115.86 214.013 116.647 214.245 117.654C214.612 116.473 214.98 115.506 215.206 114.506C215.354 113.861 215.761 113.97 216.18 113.97C216.574 113.97 216.954 113.88 217.09 114.48C217.316 115.48 217.67 116.447 217.967 117.428C218.006 117.422 218.051 117.409 218.09 117.402Z" fill="#BCE180"/>
<path d="M193.453 116.436C193.453 117.19 193.433 117.945 193.459 118.694C193.491 119.455 192.93 119.113 192.607 119.158C192.278 119.203 191.904 119.293 191.924 118.681C191.969 117.281 191.949 115.881 191.93 114.481C191.924 114.087 192.033 113.991 192.44 113.952C193.227 113.881 193.781 114.094 194.207 114.791C194.627 115.468 195.162 116.074 195.781 116.9C195.781 115.945 195.82 115.223 195.768 114.5C195.723 113.771 196.227 114.004 196.588 113.978C196.955 113.958 197.336 113.855 197.31 114.507C197.259 115.907 197.284 117.307 197.304 118.706C197.31 119.074 197.194 119.152 196.833 119.184C196.059 119.255 195.491 119.068 195.059 118.358C194.64 117.668 194.091 117.048 193.601 116.403C193.549 116.416 193.504 116.429 193.453 116.436Z" fill="#BCE180"/>
<path d="M233.353 117.563C233.708 118.053 234.063 118.543 234.424 119.04C233.153 119.382 232.811 119.266 232.121 118.298C232.063 118.214 232.005 118.13 231.947 118.046C231.708 117.698 231.347 117.795 231.037 117.84C230.657 117.892 230.786 118.253 230.818 118.459C230.953 119.324 230.36 119.124 229.876 119.175C229.276 119.24 229.16 119.008 229.173 118.453C229.212 117.13 229.199 115.808 229.179 114.485C229.173 114.092 229.282 113.943 229.695 113.956C230.508 113.982 231.327 113.956 232.14 113.969C233.25 113.982 233.953 114.369 234.192 115.098C234.501 116.04 234.218 116.885 233.353 117.563ZM231.592 116.569C231.747 116.569 231.895 116.569 232.05 116.569C232.482 116.569 232.708 116.369 232.714 115.924C232.721 115.459 232.476 115.292 232.05 115.285C231.747 115.285 231.437 115.279 231.134 115.279C230.973 115.279 230.863 115.311 230.811 115.505C230.599 116.227 230.837 116.569 231.592 116.569Z" fill="#BCE180"/>
<path d="M224.555 119.324C222.716 119.317 221.6 118.272 221.613 116.563C221.626 114.879 222.787 113.808 224.6 113.821C226.4 113.834 227.561 114.931 227.548 116.608C227.535 118.304 226.406 119.33 224.555 119.324ZM225.967 116.595C225.974 115.692 225.445 115.163 224.555 115.176C223.703 115.189 223.193 115.711 223.193 116.569C223.187 117.453 223.664 117.956 224.529 117.975C225.445 117.988 225.961 117.498 225.967 116.595Z" fill="#BCE180"/>
<path d="M199.252 116.583C199.252 115.867 199.265 115.157 199.246 114.447C199.233 114.092 199.336 113.957 199.717 113.963C200.917 113.983 202.116 113.996 203.316 113.963C204.032 113.944 203.787 114.46 203.858 114.802C203.949 115.247 203.691 115.305 203.329 115.292C202.639 115.273 201.949 115.286 201.265 115.286C201.033 115.286 200.813 115.254 200.813 115.621C200.813 115.996 201.039 115.95 201.265 115.95C201.775 115.95 202.284 115.976 202.794 115.944C203.297 115.912 203.226 116.241 203.226 116.544C203.226 116.847 203.297 117.176 202.794 117.15C202.31 117.124 201.826 117.15 201.342 117.144C201.058 117.144 200.8 117.092 200.807 117.55C200.813 118.028 201.117 117.918 201.375 117.924C202.065 117.931 202.755 117.937 203.439 117.924C203.755 117.918 204.039 117.937 203.903 118.357C203.813 118.647 204.194 119.189 203.484 119.182C202.207 119.176 200.929 119.17 199.659 119.189C199.297 119.195 199.239 119.034 199.246 118.731C199.259 118.008 199.252 117.292 199.252 116.583Z" fill="#BCE180"/>
<path d="M247.7 115.745C246.739 115.307 245.984 115.087 245.178 115.165C244.952 115.184 244.675 115.191 244.668 115.494C244.668 115.752 244.92 115.758 245.114 115.816C245.701 115.971 246.32 116.003 246.894 116.223C247.533 116.468 247.907 116.887 247.913 117.584C247.92 118.261 247.61 118.765 246.984 119.029C245.759 119.539 244.539 119.358 243.333 118.945C243.139 118.881 243.062 118.752 243.069 118.539C243.088 118.21 243.075 117.881 243.075 117.552C243.346 117.384 243.527 117.61 243.72 117.681C244.204 117.861 244.694 117.984 245.197 118.036C245.61 118.081 246.223 118.19 246.288 117.681C246.339 117.248 245.707 117.352 245.365 117.255C244.901 117.126 244.417 117.094 243.965 116.9C243.423 116.668 243.088 116.294 243.049 115.7C243.01 115.12 243.236 114.629 243.727 114.333C244.894 113.629 246.146 113.707 247.326 114.204C247.9 114.436 247.397 115.12 247.7 115.745Z" fill="#BCE180"/>
<path d="M241.746 114.055C241.21 114.733 240.752 115.378 240.21 115.952C239.823 116.365 239.875 116.636 240.223 117.036C240.772 117.668 241.262 118.352 241.785 119.016C240.701 119.397 240.088 119.236 239.436 118.403C239.172 118.061 238.901 117.72 238.643 117.378C238.501 117.191 238.307 117.152 238.101 117.191C237.785 117.242 237.927 117.507 237.907 117.681C237.882 117.881 237.869 118.094 237.907 118.294C238.043 119.042 237.733 119.242 237.004 119.203C236.449 119.178 236.256 119.074 236.275 118.487C236.327 117.165 236.314 115.836 236.282 114.513C236.262 113.72 236.817 114.023 237.178 113.991C237.54 113.959 237.998 113.862 237.907 114.513C237.869 114.817 237.888 115.126 237.907 115.429C237.914 115.591 237.817 115.816 238.056 115.887C238.288 115.958 238.507 115.926 238.669 115.707C238.836 115.481 239.056 115.287 239.185 115.042C239.714 113.991 240.578 113.765 241.746 114.055Z" fill="#BCE180"/>
<path d="M207.903 113.971C208.593 113.971 209.277 113.99 209.967 113.965C210.703 113.945 210.387 114.494 210.464 114.829C210.555 115.229 210.367 115.332 209.974 115.339C208.651 115.358 208.651 115.377 208.651 116.693C208.651 117.377 208.632 118.068 208.658 118.751C208.671 119.093 208.548 119.164 208.219 119.184C207.09 119.235 207.09 119.248 207.09 118.158C207.09 117.397 207.064 116.629 207.103 115.868C207.122 115.423 206.968 115.274 206.542 115.326C206.368 115.352 206.187 115.326 206.006 115.332C205.613 115.332 205.194 115.448 205.258 114.765C205.31 114.248 205.31 113.894 205.994 113.965C206.626 114.023 207.264 113.971 207.903 113.971Z" fill="#BCE180"/>
<path d="M252.843 92.5389C250.882 92.5389 249.411 91.0744 249.404 89.1197C249.404 87.1844 250.901 85.6748 252.83 85.6748C254.752 85.6748 256.275 87.1908 256.281 89.1133C256.288 91.0486 254.791 92.5389 252.843 92.5389ZM255.72 89.1391C255.726 87.3908 254.533 86.178 252.823 86.1909C251.133 86.2038 249.972 87.3908 249.959 89.1004C249.953 90.8293 251.172 92.0744 252.862 92.0615C254.533 92.0486 255.714 90.8422 255.72 89.1391Z" fill="#BCE180"/>
<path d="M254.287 90.7416C253.746 90.9351 253.449 90.7416 253.288 90.2835C253.255 90.1868 253.184 90.1029 253.158 90.0061C253.049 89.6707 252.797 89.6062 252.494 89.6578C252.133 89.7158 252.294 90.0061 252.268 90.2061C252.23 90.4642 252.359 90.7932 251.901 90.8061C251.404 90.8254 251.565 90.4577 251.559 90.2255C251.539 89.6642 251.513 89.103 251.565 88.5482C251.597 88.1869 251.275 87.6773 251.778 87.4837C252.546 87.1805 253.894 87.5353 254.165 88.0321C254.352 88.3675 254.436 88.8127 254.152 89.032C253.494 89.5352 253.887 89.9545 254.139 90.419C254.191 90.5029 254.223 90.5997 254.287 90.7416ZM252.817 89.032C253.152 89.0062 253.571 89.0643 253.546 88.5288C253.526 88.0321 253.133 88.1288 252.823 88.0966C252.449 88.0579 252.23 88.1159 252.236 88.5933C252.249 89.0707 252.494 89.0578 252.817 89.032Z" fill="#BCE180"/>
</svg>
