<svg width="298" height="182" viewBox="0 0 298 182" fill="none" xmlns="http://www.w3.org/2000/svg">
<rect x="1.90479" y="1.8125" width="294.887" height="178.892" fill="black"/>
<rect x="1.90479" y="1.8125" width="294.887" height="178.892" fill="#84EA51" style="mix-blend-mode:darken"/>
<rect x="1.90479" y="1.8125" width="294.887" height="178.892" stroke="#B1D572" stroke-width="2"/>
<path d="M115.685 104.753V93.5028H105.793V104.753H100.743V78.1084H105.793V89.0795H115.685V78.1084H120.735V104.753H115.685Z" fill="#B1D572"/>
<path d="M134.423 97.2986H130.835C129.233 97.2986 128.781 97.7513 128.781 99.2142C128.781 100.572 129.233 101.165 130.731 101.165C132.159 101.165 133.482 100.677 134.423 100.155C134.423 100.189 134.423 97.2986 134.423 97.2986ZM139.334 104.682H135.328L134.98 103.359C133.239 104.473 131.253 105.065 129.164 105.065C125.611 105.065 124.079 102.627 124.079 99.2838C124.079 95.3133 125.785 93.8157 129.756 93.8157H134.423V91.7608C134.423 89.6014 133.831 88.8351 130.696 88.8351C128.92 88.8351 127.004 89.0789 125.298 89.4272L124.706 85.7005C126.551 85.1433 129.233 84.795 131.393 84.795C137.523 84.795 139.299 86.9544 139.299 91.8304L139.334 104.682ZM148.772 105.065C146.683 105.065 143.861 104.578 142.05 103.951L142.747 100.224C144.384 100.712 146.543 101.06 148.563 101.06C150.723 101.06 151.036 100.572 151.036 99.1097C151.036 97.9255 150.792 97.2986 147.623 96.5672C142.851 95.4178 142.294 94.1988 142.294 90.4373C142.294 86.5016 144.001 84.795 149.573 84.795C151.384 84.795 153.718 85.0388 155.425 85.4916L154.937 89.3576C153.439 89.0789 151.106 88.8003 149.573 88.8003C147.449 88.8003 147.101 89.2879 147.101 90.4721C147.101 92.0394 147.205 92.1439 149.852 92.8405C155.285 94.2685 155.808 94.9999 155.808 99.0052C155.808 102.767 154.624 105.065 148.772 105.065ZM170.331 104.682V91.099C170.331 90.0542 169.879 89.5317 168.764 89.5317C167.58 89.5317 165.455 90.2631 163.679 91.1687V104.682H158.803V77.2371L163.679 76.5405V86.6757C165.838 85.5612 168.729 84.795 170.784 84.795C174.023 84.795 175.173 87.0937 175.173 90.5418V104.647H170.331V104.682Z" fill="#B1D572"/>
<path d="M178.795 104.683H183.671V85.2136H178.795V104.683ZM178.795 82.4272H183.671V76.785H178.795V82.4272ZM187.084 85.3529C187.084 80.4768 189.94 77.6209 196.558 77.6209C199.031 77.6209 201.608 77.9343 203.802 78.4916L203.245 82.8452C201.086 82.4621 198.578 82.1486 196.732 82.1486C193.249 82.1486 192.135 83.3328 192.135 86.1888V96.4285C192.135 99.2844 193.249 100.469 196.732 100.469C198.578 100.469 201.086 100.19 203.245 99.772L203.802 104.126C201.608 104.683 199.031 104.996 196.558 104.996C189.906 104.996 187.084 102.14 187.084 97.2644C187.084 97.3689 187.084 85.3529 187.084 85.3529ZM213.798 88.9403C211.186 88.9403 210.211 90.0896 210.211 92.2838V97.5082C210.211 99.7024 211.221 100.852 213.798 100.852C216.41 100.852 217.386 99.7024 217.386 97.5082V92.2838C217.386 90.1244 216.41 88.9403 213.798 88.9403ZM213.798 105.066C207.111 105.066 205.335 101.374 205.335 97.4037V92.4928C205.335 88.4875 207.146 84.7956 213.798 84.7956C220.485 84.7956 222.262 88.4875 222.262 92.4928V97.4037C222.262 101.409 220.485 105.066 213.798 105.066ZM235.218 89.2885C233.337 90.1244 231.805 90.9952 230.063 92.1445V104.718H225.187V85.2484H229.297L229.611 87.4078C230.69 86.6764 233.024 85.3181 234.73 84.8304L235.218 89.2885ZM242.079 100.399C243.368 100.678 245.005 100.921 246.398 100.921C248.174 100.921 248.836 100.086 248.836 98.3092V91.4131C248.836 89.811 248.244 88.9403 246.433 88.9403C244.831 88.9403 243.124 89.7413 242.079 90.7165V100.399ZM253.747 98.2048C253.747 102.524 251.831 105.101 247.304 105.101C245.597 105.101 243.612 104.857 242.114 104.544V112.589L237.238 113.286V85.2484H241.104L241.592 86.8854C243.298 85.6315 245.318 84.8304 247.756 84.8304C251.692 84.8304 253.747 87.164 253.747 91.5873V98.2048ZM63.999 66.7891L44.7734 77.8647V104.509L51.983 108.688V82.0441L63.999 75.1132V66.7891Z" fill="#B1D572"/>
<path d="M71.661 66.7891V87.9999H63.9986V80.0589L56.7891 84.2384V111.44L63.9986 115.619V94.4781H71.661V102.349L78.8706 98.1699V70.9685L71.661 66.7891Z" fill="#B1D572"/>
<path d="M71.6611 115.619L90.8867 104.543V77.8992L83.6771 73.7197V100.364L71.6611 107.295V115.619Z" fill="#B1D572"/>
</svg>
