<svg width="298" height="182" viewBox="0 0 298 182" fill="none" xmlns="http://www.w3.org/2000/svg">
<rect x="1.60107" y="1.8125" width="294.887" height="178.892" fill="black"/>
<rect x="1.60107" y="1.8125" width="294.887" height="178.892" fill="#84EA51" style="mix-blend-mode:darken"/>
<rect x="1.60107" y="1.8125" width="294.887" height="178.892" stroke="#B1D572" stroke-width="2"/>
<path d="M77.4467 78.6877L73.0907 82.9915C72.8331 83.2461 72.4153 83.2461 72.1577 82.9915L67.8016 78.6877C67.544 78.4331 67.544 78.0203 67.8016 77.7658L72.1576 73.4619C72.4153 73.2074 72.833 73.2074 73.0907 73.4619L77.4467 77.7658C77.7044 78.0203 77.7044 78.4331 77.4467 78.6877Z" fill="#B1D572"/>
<path d="M222.511 96.4903L230.25 107.837C230.528 108.229 230.225 108.751 229.719 108.751H223.216C222.781 108.751 222.375 108.539 222.127 108.185L217.654 101.421L213.181 108.185C212.935 108.539 212.528 108.751 212.093 108.751H205.59C205.083 108.751 204.78 108.229 205.058 107.837L212.774 96.4903L205.058 85.1431C204.78 84.7512 205.083 84.2295 205.59 84.2295H212.37C212.625 84.2295 212.861 84.3451 212.992 84.5343L217.654 91.5492L222.029 84.5371C222.16 84.3463 222.397 84.2295 222.653 84.2295H229.499C230.006 84.2295 230.309 84.7498 230.032 85.1418L222.511 96.4903Z" fill="#B1D572"/>
<path d="M116.918 74.3213H111.525C111 74.3213 110.496 74.5273 110.125 74.8941L105.058 79.9007C104.687 80.2674 104.478 80.7648 104.478 81.2835V85.2239H101.454C101.095 85.2239 100.805 85.5107 100.805 85.8645V90.2873C100.805 90.6411 101.095 90.9279 101.454 90.9279H104.478V108.097C104.478 108.457 104.774 108.749 105.138 108.749H110.829C111.193 108.749 111.489 108.457 111.489 108.097V90.9279H116.008C116.366 90.9279 116.657 90.6411 116.657 90.2873V85.8645C116.657 85.5107 116.366 85.2239 116.008 85.2239H111.489V82.4292C111.489 81.3491 112.375 80.4735 113.468 80.4735H116.918C117.282 80.4735 117.578 80.1817 117.578 79.8216V74.9732C117.578 74.6131 117.282 74.3213 116.918 74.3213Z" fill="#B1D572"/>
<path d="M236.484 106.429C236.484 107.931 235.268 109.133 233.742 109.133C232.25 109.133 231.023 107.92 231.023 106.429C231.023 104.933 232.239 103.737 233.753 103.737C235.268 103.737 236.484 104.933 236.484 106.429ZM236.064 106.441C236.064 105.146 235.03 104.119 233.753 104.119C232.476 104.119 231.443 105.135 231.443 106.435C231.443 107.718 232.487 108.751 233.742 108.751C235.03 108.751 236.064 107.729 236.064 106.441ZM234.34 106.866L235.024 107.92H234.572L233.808 106.725H233.709H233.112V107.92H232.731V104.895H233.919C234.505 104.895 234.886 105.206 234.886 105.785C234.886 106.255 234.599 106.544 234.189 106.659C234.245 106.719 234.3 106.795 234.34 106.866ZM233.792 106.369C234.223 106.369 234.489 106.167 234.489 105.812C234.489 105.468 234.306 105.25 233.93 105.25H233.112V106.369H233.792Z" fill="#B1D572"/>
<path d="M178.666 108.749H172.976C172.611 108.749 172.316 108.457 172.316 108.097V74.9732C172.316 74.6131 172.611 74.3213 172.976 74.3213H178.666C179.031 74.3213 179.326 74.6131 179.326 74.9732V108.097C179.326 108.457 179.031 108.749 178.666 108.749Z" fill="#B1D572"/>
<path d="M158.755 83.7108C155.519 83.7108 152.829 85.0952 151.137 87.3687V74.9732C151.137 74.6131 150.841 74.3213 150.477 74.3213H144.786C144.422 74.3213 144.126 74.6131 144.126 74.9732V108.097C144.126 108.457 144.422 108.749 144.786 108.749H150.477C150.841 108.749 151.137 108.457 151.137 108.097V105.656C152.829 107.93 155.519 109.245 158.805 109.245C165.726 109.245 170.437 103.729 170.437 96.5126C170.437 89.2961 165.726 83.7108 158.755 83.7108ZM157.361 102.74C153.776 102.74 151.137 99.8734 151.137 96.5124C151.137 93.1516 153.776 90.3338 157.361 90.3338C160.896 90.3338 163.485 93.1516 163.485 96.5124C163.485 99.8734 160.896 102.74 157.361 102.74Z" fill="#B1D572"/>
<path d="M129.47 83.7119C122.247 83.7119 116.657 89.2715 116.657 96.4546C116.657 103.638 122.247 109.246 129.47 109.246C136.692 109.246 142.283 103.638 142.283 96.4546C142.283 89.2715 136.692 83.7119 129.47 83.7119ZM129.495 102.673C125.967 102.673 123.309 99.8335 123.309 96.4547C123.309 93.0759 125.967 90.285 129.495 90.285C133.073 90.285 135.63 93.0759 135.63 96.4547C135.63 99.8335 133.073 102.673 129.495 102.673Z" fill="#B1D572"/>
<path d="M193.982 83.7119C186.759 83.7119 181.169 89.2715 181.169 96.4546C181.169 103.638 186.759 109.246 193.982 109.246C201.205 109.246 206.794 103.638 206.794 96.4546C206.794 89.2715 201.205 83.7119 193.982 83.7119ZM194.007 102.673C190.48 102.673 187.822 99.8335 187.822 96.4547C187.822 93.0759 190.48 90.285 194.007 90.285C197.586 90.285 200.142 93.0759 200.142 96.4547C200.142 99.8335 197.586 102.673 194.007 102.673Z" fill="#B1D572"/>
<path d="M72.6522 108.751H66.9615C66.5972 108.751 66.3018 108.459 66.3018 108.099V90.6387C66.3018 90.2879 66.4449 89.9518 66.6988 89.7064L72.191 84.4009C72.6087 83.9974 73.312 84.2898 73.312 84.8671V108.099C73.312 108.459 73.0166 108.751 72.6522 108.751Z" fill="#B1D572"/>
<path d="M99.8708 92.512C99.8708 87.7539 95.8925 83.7649 90.8815 83.7072C87.6202 83.6696 85.4178 85.2492 84.0079 87.3812V84.8811C84.0079 84.5211 83.7125 84.2293 83.3482 84.2293H77.6573C77.293 84.2293 76.9976 84.5211 76.9976 84.8811V108.099C76.9976 108.459 77.293 108.751 77.6573 108.751H83.3482C83.7125 108.751 84.0079 108.459 84.0079 108.099V94.5956C84.1652 91.9977 85.8315 90.3802 88.4338 90.3802C91.1415 90.3802 92.8606 92.1954 92.8606 94.8938V108.099C92.8606 108.459 93.1561 108.751 93.5204 108.751H99.2111C99.5755 108.751 99.8709 108.459 99.8709 108.099L99.8708 92.512Z" fill="#B1D572"/>
</svg>
