<svg width="374" height="182" viewBox="0 0 374 182" fill="none" xmlns="http://www.w3.org/2000/svg">
<path d="M369.501 64.6068C341.21 58.0592 312.178 54.7235 283.022 54.4764C268.444 54.3529 253.866 55.0942 239.412 56.5767C225.699 57.9356 211.986 59.9123 198.643 63.1243C186.166 66.0893 173.935 70.4132 163.064 77.3316C153.057 83.7557 144.903 92.4035 139.591 103.152C134.649 113.158 132.796 124.895 136.008 135.643C139.097 146.267 146.756 155.162 155.775 161.463C166.399 168.752 178.753 172.458 191.354 174.188C205.191 176.164 219.522 176.164 233.358 175.547C246.33 175.053 259.673 173.076 271.038 166.405C280.551 160.845 288.458 152.197 290.805 141.202C295.747 118.471 275.362 99.3219 258.067 88.4502C247.319 81.6555 235.582 76.4668 223.722 71.7722C211.368 66.9541 198.767 62.8772 186.042 59.5416C160.222 52.8704 133.908 48.9171 107.346 46.5698C80.5381 44.2225 53.7296 43.3578 26.9212 42.9871C20.3735 42.8636 13.7023 42.74 7.1546 42.74C3.20129 42.74 3.20129 36.563 7.1546 36.563C35.1984 36.9336 63.1188 37.3042 91.0391 39.1573C118.836 41.0104 146.633 44.2225 173.812 50.276C200.62 56.206 226.934 65.101 251.395 77.5786C262.267 83.138 272.644 90.3034 281.169 99.1983C289.199 107.599 295.747 117.977 297.229 129.713C298.712 141.573 294.264 153.309 286.234 161.957C277.586 171.223 265.603 176.782 253.249 179.253C238.918 182.218 223.969 181.971 209.391 181.477C194.937 180.983 180.112 179.377 166.523 173.941C155.404 169.493 145.274 162.451 137.861 152.815C130.449 143.179 126.866 131.072 128.225 118.965C129.584 106.734 135.143 95.3685 143.05 86.1029C151.451 76.0961 162.693 69.0543 174.676 63.9891C187.154 58.8004 200.373 55.7119 213.715 53.4881C228.54 51.0173 243.489 49.4113 258.561 48.5465C288.828 46.9405 319.219 48.7935 349.116 53.9823C356.405 55.2177 363.694 56.7002 370.86 58.4298C375.06 59.5416 373.454 65.5952 369.501 64.6068Z" fill="#B1D572"/>
<path d="M50.3942 5.67781C43.1052 12.4726 35.6928 18.8967 28.0333 25.1973C24.2035 28.2858 20.3737 31.3743 16.4204 34.3393C14.4437 35.8218 12.4671 37.4279 10.3669 38.9104C9.00794 39.8987 7.27837 41.0105 6.66066 42.6166C6.1665 41.5047 5.67228 40.2693 5.30166 39.1574C22.3503 46.9405 39.2755 54.8471 56.3241 62.6302C57.8066 63.3715 58.1773 65.4717 57.436 66.8307C56.5712 68.4367 54.7181 68.6837 53.2356 67.9425C36.1869 60.1594 19.2618 52.2528 2.21313 44.4697C0.977722 43.9755 0.360046 42.1224 0.854214 41.0105C2.3367 36.316 7.40187 33.7216 11.1081 30.8802C15.0614 27.9152 19.0147 24.7031 22.8445 21.6146C30.8747 15.0669 38.5342 8.27217 46.0702 1.35387C49.0352 -1.36403 53.3592 2.9599 50.3942 5.67781Z" fill="#B1D572"/>
</svg>
