<svg width="844" height="470" viewBox="0 0 844 470" fill="none" xmlns="http://www.w3.org/2000/svg">
<g filter="url(#filter0_b_9_1918)">
<rect x="0.5" y="0.25" width="843" height="469" fill="black" fill-opacity="0.5"/>
<rect x="1" y="0.75" width="842" height="468" stroke="#B1D572"/>
<path d="M79.5177 258.064C79.8969 255.613 80.1601 253.133 80.6922 250.716C81.0714 248.987 81.7592 247.315 82.4271 245.665C82.5856 245.274 83.2082 244.844 83.6328 244.827C85.795 244.742 87.9658 244.787 90.363 244.787C89.9413 245.8 89.5677 246.678 89.2111 247.561C86.7686 253.609 85.5997 259.821 86.8705 266.328C87.6177 270.16 89.845 272.489 93.0856 272.88C95.4007 273.16 97.4752 272.401 98.5932 270.451C100.523 267.086 102.094 263.517 103.792 260.022C103.905 259.787 103.852 259.465 103.852 259.184C103.854 251.455 103.854 243.729 103.852 236C103.852 235.77 103.826 235.541 103.801 235.165C96.0998 235.165 88.4441 235.165 80.6809 235.165C80.6809 232.354 80.6809 229.697 80.6809 226.81C81.2299 226.81 81.7733 226.81 82.3167 226.81C92.5479 226.81 102.782 226.841 113.013 226.782C114.782 226.77 116.593 226.552 118.308 226.122C121.86 225.233 124.065 222.907 124.838 219.29C125.551 215.95 125.398 212.631 124.382 209.39C122.794 204.327 118.86 202.094 113.984 201.262C111.629 200.86 109.209 200.696 106.818 200.673C98.6611 200.605 90.5045 200.648 82.345 200.648C81.8328 200.648 81.3205 200.648 80.6894 200.648C80.6894 197.857 80.6894 195.154 80.6894 192.296C88.3337 192.296 95.9922 192.296 103.75 192.296C103.75 187.977 103.75 183.808 103.75 179.483C96.1167 179.483 88.4611 179.483 80.6894 179.483C80.6894 176.676 80.6894 174.021 80.6894 171.194C81.2016 171.165 81.7422 171.115 82.2828 171.115C92.5139 171.109 102.748 171.129 112.979 171.092C114.524 171.086 116.095 170.97 117.609 170.682C122.163 169.813 124.699 167.039 125.121 162.417C125.508 158.158 124.951 154.111 121.659 150.958C119.389 148.782 116.505 147.901 113.477 147.516C111.66 147.284 109.815 147.199 107.984 147.194C99.4507 147.163 90.9148 147.18 82.3818 147.18C81.8696 147.18 81.3545 147.18 80.7063 147.18C80.7063 144.398 80.7063 141.698 80.7063 138.794C81.2299 138.794 81.779 138.794 82.3252 138.794C92.6526 138.794 102.977 138.811 113.304 138.777C114.802 138.771 116.333 138.678 117.793 138.366C122.788 137.299 125.262 134.036 125.245 128.56C125.239 127.065 125.067 125.54 124.724 124.085C123.807 120.191 121.334 117.528 117.533 116.461C114.751 115.68 111.821 115.105 108.943 115.046C100.13 114.862 91.3111 114.972 82.4922 114.966C81.9318 114.966 81.3714 114.966 80.6922 114.966C80.6922 112.173 80.6922 109.473 80.6922 106.561C81.2271 106.561 81.7733 106.561 82.3196 106.561C99.4875 106.558 116.65 106.549 133.812 106.541C138.952 106.541 142.314 103.207 142.337 98.0928C142.342 96.9211 142.337 95.7494 142.337 94.3711C143.769 94.3711 145.116 94.3711 146.463 94.3711C147.827 94.3711 149.191 94.3711 150.66 94.3711C151.271 100.725 150.193 106.422 145.136 110.919C147.304 112.999 149.021 115.354 149.842 118.204C150.321 119.86 150.714 121.606 150.737 123.318C150.833 130.762 150.782 138.208 150.779 145.654C150.779 145.926 150.737 146.198 150.708 146.551C147.929 146.551 145.223 146.551 142.337 146.551C142.337 146.016 142.337 145.515 142.337 145.015C142.337 138.086 142.342 131.161 142.334 124.232C142.328 118.606 138.691 114.992 133.034 114.983C130.354 114.978 127.673 114.983 124.563 114.983C130.305 118.977 132.439 124.394 132.264 130.818C132.088 137.22 130.155 142.688 123.722 145.609C123.949 145.903 124.051 146.124 124.223 146.243C130.489 150.485 132.558 156.624 132.216 163.858C132.054 167.249 131.364 170.489 129.366 173.314C126.615 177.205 122.534 178.609 118.056 179.144C116.013 179.387 113.947 179.424 111.819 179.557C111.819 183.749 111.819 187.915 111.819 192.199C118.277 192.199 124.671 192.199 131.293 192.199C131.293 194.407 131.321 196.501 131.251 198.596C131.242 198.816 130.679 199.139 130.334 199.207C128.412 199.595 126.476 199.917 124.379 200.291C124.597 200.625 124.671 200.846 124.823 200.959C130.673 205.258 132.468 211.303 132.23 218.203C132.1 221.967 131.412 225.601 129.23 228.777C126.513 232.736 122.446 234.287 117.904 234.845C115.908 235.091 113.89 235.122 111.813 235.258C111.813 238.991 111.813 242.699 111.813 246.644C114.125 245.138 116.602 244.668 119.222 244.742C123.298 244.855 126.428 246.621 128.735 249.938C131.341 253.688 132.083 257.97 132.241 262.394C132.448 268.159 131.494 273.732 129.25 279.067C129.142 279.321 128.987 279.556 128.777 279.938C126.609 279.021 124.467 278.116 122.409 277.247C123.267 274.184 124.229 271.247 124.891 268.244C125.658 264.766 125.684 261.231 124.755 257.755C124.54 256.949 124.195 256.15 123.762 255.437C121.761 252.12 117.533 251.642 115.085 254.642C113.129 257.039 111.643 259.697 111.7 263.062C111.827 270.833 111.739 278.611 111.739 286.385C111.739 286.9 111.739 287.416 111.739 287.902C113.933 288.534 116.104 288.981 118.138 289.779C125.687 292.742 130.741 297.955 131.967 306.188C134.002 319.864 126.083 329.201 113.907 330.746C113.254 330.828 112.603 330.944 111.844 331.06C111.844 333.508 111.844 335.976 111.844 338.495C113.726 338.993 115.699 339.392 117.589 340.035C126.377 343.02 131.556 349.96 132.145 359.223C132.482 364.518 131.868 369.641 129.906 374.585C129.841 374.747 129.872 374.945 129.861 375.129C129.388 375.129 128.919 375.129 128.446 375.129C126.51 374.339 124.571 373.55 122.607 372.746C122.837 372.061 123.046 371.441 123.25 370.821C124.47 367.083 125.254 363.302 124.815 359.317C124.113 352.943 119.712 348.301 111.688 347.472C111.688 352.496 111.688 357.505 111.688 362.512C108.983 362.512 106.461 362.512 103.812 362.512C103.812 357.299 103.812 352.179 103.812 346.994C100.461 347.082 97.3394 347.619 94.3818 348.952C90.5724 350.67 87.8667 353.489 87.2611 357.635C86.8394 360.517 86.9582 363.553 87.3403 366.454C87.6969 369.16 88.7214 371.778 89.4799 374.532C87.363 374.532 85.1639 374.566 82.9677 374.495C82.628 374.484 82.1299 374.062 81.9997 373.719C81.3969 372.146 80.7941 370.558 80.3894 368.925C79.9733 367.252 79.7894 365.52 79.5063 363.817C79.5063 362.308 79.5063 360.8 79.5063 359.294C79.5941 358.988 79.7356 358.688 79.7667 358.374C80.7545 348.236 86.6582 341.489 96.6488 339.239C98.9696 338.716 101.355 338.481 103.741 338.11C103.741 324.236 103.741 310.32 103.741 296.3C102.278 296.475 100.92 296.597 99.5752 296.803C92.7573 297.856 88.2092 302.048 87.0941 308.792C86.1658 314.407 86.9271 319.951 88.8941 325.306C89.3016 326.416 89.7148 327.522 90.1677 328.745C87.8696 328.745 85.795 328.793 83.7262 328.705C83.3101 328.688 82.7016 328.235 82.5516 327.842C81.8497 326.002 81.1394 324.146 80.6979 322.233C80.163 319.917 79.8941 317.54 79.5092 315.188C79.5092 313.397 79.5092 311.608 79.5092 309.817C79.6054 309.417 79.7611 309.021 79.7894 308.617C80.5139 299.031 86.6554 291.471 95.9582 288.947C98.4743 288.265 101.095 287.959 103.753 287.467C103.753 284.212 103.753 280.818 103.753 277.283C103.487 277.484 103.328 277.572 103.212 277.697C99.0601 282.134 91.1639 281.693 87.0969 279.092C83.2252 276.616 81.3997 272.829 80.4035 268.552C79.9931 266.783 79.8007 264.961 79.5092 263.164C79.5177 261.457 79.5177 259.762 79.5177 258.064ZM111.844 296.71C111.844 305.206 111.844 313.7 111.844 322.196C119.664 322.054 124.962 318.228 125.35 311.407C125.837 302.826 120.589 297.174 111.844 296.71Z" fill="#B1D572"/>
<path d="M202.02 375.12C202.02 367.824 202.02 360.528 202.02 353.039C201.451 353.039 200.953 353.039 200.455 353.039C192.626 353.039 184.801 353.039 176.973 353.039C167.673 353.036 160.818 347.302 159.188 338.149C159.08 337.549 159.041 336.932 159.038 336.324C159.026 330.338 159.032 324.355 159.032 318.369C159.032 318.004 159.032 317.636 159.032 317.178C162.052 317.178 164.942 317.178 167.99 317.178C167.99 317.769 167.99 318.273 167.99 318.78C167.99 324.341 167.978 329.899 167.992 335.461C168.007 340.581 171.468 344.05 176.591 344.062C184.606 344.079 192.624 344.067 200.639 344.064C201.055 344.064 201.468 344.031 201.963 344.008C201.963 331.951 201.963 319.963 201.963 307.801C201.431 307.801 200.927 307.801 200.426 307.801C192.598 307.801 184.773 307.801 176.944 307.801C167.667 307.798 160.555 302.033 159.21 292.895C158.115 285.454 159.663 278.704 166.167 273.924C169.226 271.677 172.699 270.647 176.483 270.644C181.999 270.638 187.521 270.514 193.031 270.678C198.881 270.85 202.566 266.478 202.331 261.327C202.204 258.516 202.309 255.697 202.309 252.763C187.858 252.763 173.542 252.763 159.125 252.763C159.125 249.76 159.125 246.873 159.125 243.918C176.469 243.918 193.753 243.918 211.062 243.918C211.122 244.153 211.204 244.331 211.204 244.51C211.164 251.059 211.34 257.616 211.017 264.151C210.612 272.328 202.968 279.412 194.769 279.522C188.783 279.604 182.792 279.539 176.803 279.545C171.474 279.55 168.009 283.034 167.922 288.383C167.876 291.112 167.978 293.772 169.94 295.948C171.711 297.913 173.902 298.844 176.571 298.835C187.464 298.804 198.355 298.821 209.248 298.821C209.811 298.821 210.375 298.821 211.105 298.821C211.144 299.512 211.215 300.143 211.215 300.774C211.156 324.989 211.091 349.204 211.028 373.419C211.026 373.982 211.059 374.548 211.074 375.112C208.057 375.12 205.04 375.12 202.02 375.12Z" fill="#B1D572"/>
<path d="M150.697 374.73C147.921 374.73 145.212 374.73 142.422 374.73C142.422 301.436 142.422 228.197 142.422 154.872C145.195 154.872 147.901 154.872 150.697 154.872C150.697 228.174 150.697 301.411 150.697 374.73Z" fill="#B1D572"/>
<path d="M202.308 115.221C187.855 115.221 173.542 115.221 159.125 115.221C159.125 112.201 159.125 109.312 159.125 106.334C176.409 106.334 193.693 106.334 211.051 106.334C211.099 106.521 211.204 106.739 211.204 106.954C211.164 113.503 211.308 120.058 211.02 126.596C210.68 134.268 203.514 141.463 195.87 141.805C189.422 142.094 182.958 141.95 176.5 142.006C172.458 142.043 169.209 144.313 168.298 148.046C167.61 150.856 167.463 153.805 168.745 156.494C170.341 159.836 173.217 161.297 176.89 161.294C187.688 161.283 198.485 161.291 209.285 161.291C209.845 161.291 210.405 161.291 211.093 161.291C211.093 164.274 211.093 167.152 211.093 170.158C210.587 170.158 210.122 170.158 209.658 170.158C198.671 170.158 187.685 170.167 176.701 170.155C167.641 170.147 160.54 164.444 159.255 155.481C158.118 147.528 159.462 140.718 167.194 135.664C169.846 133.932 172.815 133.088 176.01 133.094C181.764 133.105 187.515 133.102 193.269 133.097C198.731 133.091 202.288 129.542 202.308 124.08C202.317 121.17 202.308 118.261 202.308 115.221Z" fill="#B1D572"/>
<path d="M211.433 207.041C211.433 211.846 211.444 216.652 211.43 221.46C211.399 231.437 203.865 238.985 193.897 238.977C187.345 238.971 180.782 239.135 174.247 238.776C166.125 238.328 159.103 230.661 159.049 222.533C158.981 212.214 158.984 201.895 159.043 191.577C159.092 183.414 165.989 175.733 174.171 175.289C181.45 174.895 188.794 174.796 196.062 175.277C204.949 175.866 211.362 183.352 211.43 192.338C211.461 197.24 211.43 202.142 211.433 207.041ZM167.936 206.939C167.936 211.744 167.913 216.55 167.942 221.353C167.973 226.594 171.513 230.073 176.772 230.076C182.429 230.081 188.084 230.081 193.742 230.076C198.941 230.073 202.549 226.498 202.558 221.302C202.575 211.739 202.575 202.176 202.558 192.612C202.549 187.597 198.904 183.977 193.9 183.972C188.197 183.966 182.494 183.969 176.789 183.972C171.448 183.975 167.961 187.442 167.942 192.805C167.919 197.517 167.936 202.229 167.936 206.939Z" fill="#B1D572"/>
<path d="M187.574 207.063C188.825 211.329 190.056 215.514 191.279 219.703C191.907 221.857 191.183 222.847 188.941 222.862C186.442 222.879 183.946 222.881 181.447 222.862C179.299 222.845 178.532 221.829 179.126 219.794C180.284 215.829 181.461 211.866 182.627 207.904C182.706 207.638 182.752 207.366 182.808 207.109C177.988 204.304 176.29 201.08 177.445 196.982C178.402 193.58 181.886 191.019 185.401 191.135C189.145 191.257 192.439 193.94 193.133 197.599C193.747 200.829 192.768 204.873 187.574 207.063Z" fill="#B1D572"/>
<path d="M707.679 336.951C707.909 337.222 708.023 337.628 708.023 338.171V348.87C708.023 349.392 707.909 349.788 707.679 350.059C707.45 350.33 707.168 350.466 706.834 350.466C706.522 350.466 706.24 350.351 705.99 350.122C705.739 349.872 705.604 349.538 705.583 349.121L705.176 344.49H694.977V359.883H714.218L714.718 352.03C714.739 351.676 714.885 351.384 715.156 351.154C715.428 350.925 715.74 350.81 716.095 350.81C716.45 350.81 716.752 350.956 717.002 351.248C717.273 351.519 717.409 351.916 717.409 352.437V360.884C717.409 361.406 717.242 361.812 716.908 362.104C716.596 362.396 716.178 362.542 715.657 362.542H686.686C686.186 362.542 685.79 362.407 685.498 362.136C685.226 361.864 685.091 361.552 685.091 361.197C685.091 360.842 685.226 360.54 685.498 360.29C685.79 360.019 686.175 359.883 686.655 359.883H691.974V328.597H687.75C687.27 328.597 686.895 328.472 686.624 328.222C686.374 327.951 686.248 327.638 686.248 327.283C686.248 326.908 686.384 326.585 686.655 326.313C686.947 326.042 687.333 325.907 687.813 325.907H715.282C715.803 325.907 716.22 326.063 716.533 326.376C716.867 326.668 717.034 327.075 717.034 327.596V336.043C717.034 336.481 716.908 336.825 716.658 337.076C716.408 337.305 716.116 337.42 715.782 337.42C715.448 337.42 715.146 337.316 714.875 337.107C714.625 336.898 714.489 336.606 714.468 336.231L714.03 328.597H694.977V342.081H705.176L705.583 337.92C705.625 337.482 705.76 337.138 705.99 336.888C706.24 336.638 706.522 336.513 706.834 336.513C707.168 336.513 707.45 336.659 707.679 336.951Z" fill="#B1D572"/>
<path d="M671.926 350.873C672.301 351.144 672.489 351.457 672.489 351.811C672.489 351.916 672.478 351.989 672.458 352.03C672.04 353.908 671.217 355.691 669.986 357.38C668.755 359.049 667.087 360.415 664.98 361.479C662.895 362.542 660.423 363.074 657.566 363.074C654.354 363.074 651.475 362.271 648.931 360.665C646.386 359.059 644.384 356.786 642.924 353.845C641.485 350.883 640.765 347.452 640.765 343.552C640.765 340.006 641.485 336.857 642.924 334.104C644.384 331.351 646.386 329.213 648.931 327.69C651.475 326.168 654.343 325.406 657.534 325.406C659.161 325.406 660.715 325.646 662.196 326.126C663.677 326.585 664.97 327.221 666.075 328.034C667.202 328.848 668.046 329.765 668.609 330.787V327.471C668.609 326.991 668.755 326.616 669.047 326.345C669.36 326.053 669.725 325.907 670.142 325.907C670.56 325.907 670.914 326.053 671.206 326.345C671.519 326.616 671.675 327.002 671.675 327.502V336.669C671.675 337.149 671.529 337.514 671.237 337.764C670.966 338.014 670.633 338.14 670.236 338.14C669.861 338.14 669.538 338.014 669.266 337.764C668.995 337.493 668.818 337.128 668.735 336.669C668.422 334.98 667.733 333.488 666.67 332.195C665.627 330.902 664.323 329.901 662.759 329.192C661.195 328.462 659.484 328.097 657.628 328.097C654.812 328.097 652.362 328.764 650.276 330.099C648.19 331.434 646.584 333.29 645.458 335.668C644.332 338.046 643.769 340.747 643.769 343.771C643.769 347.171 644.394 350.132 645.646 352.656C646.918 355.159 648.607 357.078 650.714 358.413C652.821 359.727 655.115 360.384 657.597 360.384C660.559 360.384 663.061 359.581 665.105 357.975C667.149 356.369 668.599 354.147 669.454 351.311C669.663 350.727 670.08 350.435 670.706 350.435C671.144 350.435 671.55 350.581 671.926 350.873Z" fill="#B1D572"/>
<path d="M600.35 359.852V328.597H595.47C594.99 328.597 594.614 328.472 594.343 328.222C594.072 327.951 593.937 327.638 593.937 327.283C593.937 326.908 594.072 326.585 594.343 326.313C594.635 326.042 595.021 325.907 595.501 325.907H604.48C604.814 325.907 605.074 325.969 605.262 326.094C605.45 326.199 605.606 326.386 605.731 326.658L620.936 356.473V328.597H616.275C615.795 328.597 615.419 328.472 615.148 328.222C614.877 327.951 614.742 327.638 614.742 327.283C614.742 326.908 614.877 326.585 615.148 326.313C615.44 326.042 615.837 325.907 616.337 325.907H626.88C627.36 325.907 627.736 326.042 628.007 326.313C628.299 326.585 628.445 326.908 628.445 327.283C628.445 327.638 628.309 327.951 628.038 328.222C627.788 328.472 627.423 328.597 626.943 328.597H623.94V361.072C623.94 361.718 623.794 362.209 623.502 362.542C623.21 362.876 622.845 363.043 622.407 363.043C622.073 363.043 621.739 362.939 621.405 362.73C621.093 362.521 620.842 362.229 620.655 361.854L603.354 328.629V359.852H607.671C608.151 359.852 608.526 359.987 608.797 360.258C609.068 360.53 609.204 360.842 609.204 361.197C609.204 361.572 609.068 361.896 608.797 362.167C608.526 362.417 608.14 362.542 607.64 362.542H596.439C595.939 362.542 595.553 362.417 595.282 362.167C595.011 361.896 594.875 361.572 594.875 361.197C594.875 360.842 595.011 360.53 595.282 360.258C595.553 359.987 595.928 359.852 596.408 359.852H600.35Z" fill="#B1D572"/>
<path d="M572.074 336.951C572.304 337.222 572.418 337.628 572.418 338.171V348.87C572.418 349.392 572.304 349.788 572.074 350.059C571.845 350.33 571.563 350.466 571.229 350.466C570.917 350.466 570.635 350.351 570.385 350.122C570.134 349.872 569.999 349.538 569.978 349.121L569.571 344.49H559.372V359.883H578.613L579.113 352.03C579.134 351.676 579.28 351.384 579.551 351.154C579.823 350.925 580.135 350.81 580.49 350.81C580.845 350.81 581.147 350.956 581.397 351.248C581.668 351.519 581.804 351.916 581.804 352.437V360.884C581.804 361.406 581.637 361.812 581.303 362.104C580.991 362.396 580.573 362.542 580.052 362.542H551.081C550.581 362.542 550.185 362.407 549.893 362.136C549.621 361.864 549.486 361.552 549.486 361.197C549.486 360.842 549.621 360.54 549.893 360.29C550.185 360.019 550.57 359.883 551.05 359.883H556.369V328.597H552.145C551.665 328.597 551.29 328.472 551.019 328.222C550.769 327.951 550.643 327.638 550.643 327.283C550.643 326.908 550.779 326.585 551.05 326.313C551.342 326.042 551.728 325.907 552.208 325.907H579.677C580.198 325.907 580.615 326.063 580.928 326.376C581.262 326.668 581.429 327.075 581.429 327.596V336.043C581.429 336.481 581.303 336.825 581.053 337.076C580.803 337.305 580.511 337.42 580.177 337.42C579.843 337.42 579.541 337.316 579.27 337.107C579.02 336.898 578.884 336.606 578.863 336.231L578.425 328.597H559.372V342.081H569.571L569.978 337.92C570.02 337.482 570.155 337.138 570.385 336.888C570.635 336.638 570.917 336.513 571.229 336.513C571.563 336.513 571.845 336.659 572.074 336.951Z" fill="#B1D572"/>
<path d="M514.452 359.977H520.083C520.563 359.977 520.939 360.102 521.21 360.352C521.481 360.603 521.616 360.905 521.616 361.26C521.616 361.593 521.481 361.896 521.21 362.167C520.939 362.417 520.553 362.542 520.052 362.542H507.569C507.069 362.542 506.672 362.417 506.38 362.167C506.109 361.896 505.974 361.593 505.974 361.26C505.974 360.905 506.109 360.603 506.38 360.352C506.651 360.102 507.037 359.977 507.538 359.977H511.449V328.597H508.414C507.934 328.597 507.548 328.472 507.256 328.222C506.985 327.951 506.85 327.638 506.85 327.283C506.85 326.908 506.985 326.585 507.256 326.313C507.548 326.042 507.945 325.907 508.445 325.907H518.457C521.815 325.907 524.589 326.167 526.779 326.689C528.969 327.189 530.679 328.17 531.909 329.63C533.161 331.069 533.787 333.144 533.787 335.856C533.787 338.087 533.171 339.912 531.941 341.331C530.731 342.728 529.198 343.771 527.342 344.459L533.724 359.977H536.352C537.082 359.977 537.593 360.102 537.885 360.352C538.198 360.582 538.354 360.874 538.354 361.228C538.354 361.604 538.198 361.917 537.885 362.167C537.572 362.417 537.072 362.542 536.383 362.542H529.031C528.531 362.542 528.134 362.417 527.842 362.167C527.571 361.896 527.436 361.583 527.436 361.228C527.436 360.895 527.571 360.603 527.842 360.352C528.113 360.102 528.489 359.977 528.969 359.977H530.564L524.933 345.147C524.703 345.231 523.994 345.325 522.805 345.429C521.616 345.533 520.657 345.585 519.927 345.585H514.452V359.977ZM518.425 328.597H514.452V343.176H517.8C520.72 343.176 523.087 343.01 524.901 342.676C526.737 342.321 528.176 341.633 529.219 340.611C530.262 339.568 530.783 338.056 530.783 336.075C530.783 333.968 530.376 332.383 529.563 331.319C528.75 330.255 527.477 329.536 525.746 329.16C524.015 328.785 521.575 328.597 518.425 328.597Z" fill="#B1D572"/>
<path d="M481.671 336.951C481.9 337.222 482.015 337.628 482.015 338.171V348.87C482.015 349.392 481.9 349.788 481.671 350.059C481.441 350.33 481.16 350.466 480.826 350.466C480.513 350.466 480.232 350.351 479.981 350.122C479.731 349.872 479.596 349.538 479.575 349.121L479.168 344.49H468.969V359.883H488.21L488.71 352.03C488.731 351.676 488.877 351.384 489.148 351.154C489.419 350.925 489.732 350.81 490.087 350.81C490.441 350.81 490.744 350.956 490.994 351.248C491.265 351.519 491.401 351.916 491.401 352.437V360.884C491.401 361.406 491.234 361.812 490.9 362.104C490.587 362.396 490.17 362.542 489.649 362.542H460.678C460.178 362.542 459.781 362.407 459.489 362.136C459.218 361.864 459.083 361.552 459.083 361.197C459.083 360.842 459.218 360.54 459.489 360.29C459.781 360.019 460.167 359.883 460.647 359.883H465.965V328.597H461.742C461.262 328.597 460.887 328.472 460.616 328.222C460.365 327.951 460.24 327.638 460.24 327.283C460.24 326.908 460.376 326.585 460.647 326.313C460.939 326.042 461.325 325.907 461.804 325.907H489.273C489.795 325.907 490.212 326.063 490.525 326.376C490.858 326.668 491.025 327.075 491.025 327.596V336.043C491.025 336.481 490.9 336.825 490.65 337.076C490.4 337.305 490.108 337.42 489.774 337.42C489.44 337.42 489.138 337.316 488.867 337.107C488.616 336.898 488.481 336.606 488.46 336.231L488.022 328.597H468.969V342.081H479.168L479.575 337.92C479.616 337.482 479.752 337.138 479.981 336.888C480.232 336.638 480.513 336.513 480.826 336.513C481.16 336.513 481.441 336.659 481.671 336.951Z" fill="#B1D572"/>
<path d="M436.813 336.951C437.043 337.222 437.157 337.628 437.157 338.171V348.87C437.157 349.392 437.043 349.788 436.813 350.059C436.584 350.33 436.302 350.466 435.969 350.466C435.656 350.466 435.374 350.351 435.124 350.122C434.874 349.872 434.738 349.538 434.717 349.121L434.31 344.49H423.767V359.883H434.717C435.176 359.883 435.531 360.019 435.781 360.29C436.031 360.54 436.156 360.842 436.156 361.197C436.156 361.572 436.031 361.896 435.781 362.167C435.531 362.417 435.186 362.542 434.748 362.542H415.476C414.976 362.542 414.58 362.407 414.288 362.136C414.016 361.864 413.881 361.552 413.881 361.197C413.881 360.842 414.016 360.54 414.288 360.29C414.58 360.019 414.965 359.883 415.445 359.883H420.764V328.597H416.54C416.06 328.597 415.685 328.472 415.414 328.222C415.164 327.951 415.038 327.638 415.038 327.283C415.038 326.908 415.174 326.585 415.445 326.313C415.737 326.042 416.123 325.907 416.603 325.907H444.478C445 325.907 445.417 326.063 445.73 326.376C446.063 326.668 446.23 327.075 446.23 327.596V336.043C446.23 336.481 446.105 336.825 445.855 337.076C445.605 337.305 445.313 337.42 444.979 337.42C444.645 337.42 444.343 337.316 444.072 337.107C443.821 336.898 443.686 336.606 443.665 336.231L443.227 328.597H423.767V342.081H434.31L434.717 337.92C434.759 337.482 434.894 337.138 435.124 336.888C435.374 336.638 435.656 336.513 435.969 336.513C436.302 336.513 436.584 336.659 436.813 336.951Z" fill="#B1D572"/>
<path d="M374.343 359.852V328.597H369.462C368.982 328.597 368.607 328.472 368.336 328.222C368.065 327.951 367.929 327.638 367.929 327.283C367.929 326.908 368.065 326.585 368.336 326.313C368.628 326.042 369.014 325.907 369.493 325.907H378.472C378.806 325.907 379.067 325.969 379.255 326.094C379.442 326.199 379.599 326.386 379.724 326.658L394.929 356.473V328.597H390.267C389.787 328.597 389.412 328.472 389.141 328.222C388.87 327.951 388.734 327.638 388.734 327.283C388.734 326.908 388.87 326.585 389.141 326.313C389.433 326.042 389.829 325.907 390.33 325.907H400.873C401.353 325.907 401.728 326.042 401.999 326.313C402.291 326.585 402.437 326.908 402.437 327.283C402.437 327.638 402.302 327.951 402.031 328.222C401.78 328.472 401.415 328.597 400.936 328.597H397.932V361.072C397.932 361.718 397.786 362.209 397.494 362.542C397.202 362.876 396.837 363.043 396.399 363.043C396.065 363.043 395.732 362.939 395.398 362.73C395.085 362.521 394.835 362.229 394.647 361.854L377.346 328.629V359.852H381.664C382.143 359.852 382.519 359.987 382.79 360.258C383.061 360.53 383.197 360.842 383.197 361.197C383.197 361.572 383.061 361.896 382.79 362.167C382.519 362.417 382.133 362.542 381.632 362.542H370.432C369.931 362.542 369.546 362.417 369.274 362.167C369.003 361.896 368.868 361.572 368.868 361.197C368.868 360.842 369.003 360.53 369.274 360.258C369.546 359.987 369.921 359.852 370.401 359.852H374.343Z" fill="#B1D572"/>
<path d="M353.794 335.136C355.024 338.014 355.64 341.08 355.64 344.334C355.64 347.588 355.024 350.643 353.794 353.501C352.584 356.358 350.769 358.673 348.35 360.446C345.931 362.198 343.021 363.074 339.621 363.074C336.222 363.074 333.312 362.198 330.893 360.446C328.473 358.673 326.648 356.358 325.418 353.501C324.208 350.643 323.603 347.588 323.603 344.334C323.603 341.08 324.208 338.014 325.418 335.136C326.648 332.237 328.473 329.891 330.893 328.097C333.312 326.303 336.222 325.406 339.621 325.406C343.021 325.406 345.931 326.303 348.35 328.097C350.769 329.891 352.584 332.237 353.794 335.136ZM351.166 352.187C352.146 349.726 352.636 347.108 352.636 344.334C352.636 341.518 352.136 338.88 351.134 336.419C350.133 333.937 348.652 331.935 346.692 330.412C344.731 328.869 342.374 328.097 339.621 328.097C336.868 328.097 334.511 328.869 332.551 330.412C330.59 331.935 329.109 333.937 328.108 336.419C327.107 338.88 326.606 341.518 326.606 344.334C326.606 347.108 327.097 349.726 328.077 352.187C329.057 354.627 330.528 356.609 332.488 358.131C334.449 359.633 336.826 360.384 339.621 360.384C342.416 360.384 344.794 359.633 346.754 358.131C348.715 356.609 350.185 354.627 351.166 352.187Z" fill="#B1D572"/>
<path d="M310.313 350.873C310.688 351.144 310.876 351.457 310.876 351.811C310.876 351.916 310.866 351.989 310.845 352.03C310.428 353.908 309.604 355.691 308.373 357.38C307.143 359.049 305.474 360.415 303.367 361.479C301.282 362.542 298.81 363.074 295.953 363.074C292.741 363.074 289.862 362.271 287.318 360.665C284.773 359.059 282.771 356.786 281.311 353.845C279.872 350.883 279.152 347.452 279.152 343.552C279.152 340.006 279.872 336.857 281.311 334.104C282.771 331.351 284.773 329.213 287.318 327.69C289.862 326.168 292.73 325.406 295.921 325.406C297.548 325.406 299.102 325.646 300.583 326.126C302.064 326.585 303.357 327.221 304.462 328.034C305.589 328.848 306.433 329.765 306.997 330.787V327.471C306.997 326.991 307.143 326.616 307.435 326.345C307.747 326.053 308.112 325.907 308.53 325.907C308.947 325.907 309.301 326.053 309.593 326.345C309.906 326.616 310.063 327.002 310.063 327.502V336.669C310.063 337.149 309.917 337.514 309.625 337.764C309.353 338.014 309.02 338.14 308.623 338.14C308.248 338.14 307.925 338.014 307.654 337.764C307.382 337.493 307.205 337.128 307.122 336.669C306.809 334.98 306.121 333.488 305.057 332.195C304.014 330.902 302.71 329.901 301.146 329.192C299.582 328.462 297.872 328.097 296.015 328.097C293.2 328.097 290.749 328.764 288.663 330.099C286.577 331.434 284.971 333.29 283.845 335.668C282.719 338.046 282.156 340.747 282.156 343.771C282.156 347.171 282.781 350.132 284.033 352.656C285.305 355.159 286.995 357.078 289.101 358.413C291.208 359.727 293.502 360.384 295.984 360.384C298.946 360.384 301.449 359.581 303.493 357.975C305.537 356.369 306.986 354.147 307.841 351.311C308.05 350.727 308.467 350.435 309.093 350.435C309.531 350.435 309.937 350.581 310.313 350.873Z" fill="#B1D572"/>
<path d="M615.43 256.202C615.722 255.952 616.108 255.827 616.588 255.827H624.753C625.254 255.827 625.64 255.952 625.911 256.202C626.203 256.432 626.349 256.713 626.349 257.047C626.349 257.36 626.213 257.631 625.942 257.86C625.671 258.09 625.296 258.205 624.816 258.205H623.095L612.99 275.318V289.772H620.248C620.728 289.772 621.093 289.907 621.343 290.179C621.614 290.429 621.75 290.731 621.75 291.086C621.75 291.461 621.604 291.785 621.312 292.056C621.041 292.327 620.665 292.462 620.186 292.462H601.883C601.383 292.462 600.987 292.327 600.695 292.056C600.403 291.785 600.257 291.461 600.257 291.086C600.257 290.731 600.392 290.429 600.663 290.179C600.955 289.907 601.341 289.772 601.821 289.772H609.986V275.161L599.506 258.205H596.878C596.398 258.205 596.012 258.09 595.72 257.86C595.449 257.61 595.313 257.329 595.313 257.016C595.313 256.703 595.459 256.432 595.751 256.202C596.043 255.952 596.429 255.827 596.909 255.827H607.233C607.734 255.827 608.12 255.952 608.391 256.202C608.683 256.432 608.829 256.703 608.829 257.016C608.829 257.329 608.683 257.61 608.391 257.86C608.12 258.09 607.744 258.205 607.265 258.205H603.01L611.645 272.659L620.029 258.205H616.556C616.077 258.205 615.691 258.09 615.399 257.86C615.128 257.61 614.992 257.329 614.992 257.016C614.992 256.703 615.138 256.432 615.43 256.202Z" fill="#B1D572"/>
<path d="M564.065 258.517H553.177L552.802 266.996C552.781 267.455 552.646 267.809 552.395 268.06C552.145 268.289 551.853 268.404 551.519 268.404C551.123 268.404 550.768 268.258 550.456 267.966C550.143 267.653 549.986 267.236 549.986 266.714V257.516C549.986 256.932 550.08 256.505 550.268 256.234C550.476 255.962 550.821 255.827 551.3 255.827H579.958C580.396 255.827 580.709 255.973 580.897 256.265C581.105 256.536 581.209 256.953 581.209 257.516V266.714C581.209 267.236 581.063 267.642 580.771 267.934C580.5 268.206 580.167 268.341 579.77 268.341C579.416 268.341 579.103 268.226 578.832 267.997C578.561 267.747 578.415 267.413 578.394 266.996L578.081 258.517H567.068V289.772H574.639C575.119 289.772 575.495 289.907 575.766 290.179C576.037 290.429 576.172 290.731 576.172 291.086C576.172 291.461 576.026 291.785 575.734 292.056C575.463 292.327 575.077 292.462 574.577 292.462H556.556C556.056 292.462 555.659 292.327 555.367 292.056C555.075 291.785 554.929 291.461 554.929 291.086C554.929 290.731 555.065 290.429 555.336 290.179C555.628 289.907 556.014 289.772 556.494 289.772H564.065V258.517Z" fill="#B1D572"/>
<path d="M533.318 292.087C533.047 292.337 532.661 292.462 532.16 292.462H510.729C510.229 292.462 509.833 292.337 509.541 292.087C509.269 291.816 509.134 291.493 509.134 291.117C509.134 290.763 509.269 290.45 509.541 290.179C509.833 289.907 510.218 289.772 510.698 289.772H520.24V258.517H510.698C510.218 258.517 509.833 258.392 509.541 258.142C509.269 257.871 509.134 257.558 509.134 257.203C509.134 256.828 509.269 256.505 509.541 256.234C509.833 255.962 510.229 255.827 510.729 255.827H532.16C532.64 255.827 533.015 255.962 533.286 256.234C533.578 256.505 533.724 256.828 533.724 257.203C533.724 257.558 533.589 257.871 533.318 258.142C533.047 258.392 532.671 258.517 532.191 258.517H523.244V289.772H532.191C532.671 289.772 533.047 289.907 533.318 290.179C533.589 290.45 533.724 290.763 533.724 291.117C533.724 291.493 533.589 291.816 533.318 292.087Z" fill="#B1D572"/>
<path d="M469.25 289.897H474.882C475.362 289.897 475.737 290.022 476.008 290.272C476.279 290.523 476.415 290.825 476.415 291.18C476.415 291.513 476.279 291.816 476.008 292.087C475.737 292.337 475.351 292.462 474.851 292.462H462.368C461.867 292.462 461.471 292.337 461.179 292.087C460.908 291.816 460.772 291.513 460.772 291.18C460.772 290.825 460.908 290.523 461.179 290.272C461.45 290.022 461.836 289.897 462.336 289.897H466.247V258.517H463.212C462.733 258.517 462.347 258.392 462.055 258.142C461.784 257.871 461.648 257.558 461.648 257.203C461.648 256.828 461.784 256.505 462.055 256.234C462.347 255.962 462.743 255.827 463.244 255.827H473.255C476.613 255.827 479.387 256.088 481.577 256.609C483.767 257.11 485.477 258.09 486.708 259.55C487.959 260.989 488.585 263.064 488.585 265.776C488.585 268.007 487.97 269.832 486.739 271.251C485.529 272.648 483.996 273.691 482.14 274.379L488.522 289.897H491.15C491.88 289.897 492.391 290.022 492.683 290.272C492.996 290.502 493.153 290.794 493.153 291.148C493.153 291.524 492.996 291.837 492.683 292.087C492.371 292.337 491.87 292.462 491.182 292.462H483.83C483.329 292.462 482.933 292.337 482.641 292.087C482.37 291.816 482.234 291.503 482.234 291.148C482.234 290.815 482.37 290.523 482.641 290.272C482.912 290.022 483.287 289.897 483.767 289.897H485.363L479.731 275.068C479.502 275.151 478.793 275.245 477.604 275.349C476.415 275.453 475.455 275.506 474.725 275.506H469.25V289.897ZM473.224 258.517H469.25V273.097H472.598C475.518 273.097 477.885 272.93 479.7 272.596C481.535 272.241 482.974 271.553 484.017 270.531C485.06 269.488 485.582 267.976 485.582 265.995C485.582 263.888 485.175 262.303 484.361 261.239C483.548 260.176 482.276 259.456 480.545 259.081C478.813 258.705 476.373 258.517 473.224 258.517Z" fill="#B1D572"/>
<path d="M443.666 258.517V279.604C443.666 282.232 443.134 284.558 442.07 286.581C441.027 288.604 439.546 290.179 437.627 291.305C435.729 292.431 433.55 292.994 431.089 292.994C428.586 292.994 426.375 292.462 424.456 291.399C422.558 290.314 421.077 288.76 420.014 286.737C418.95 284.714 418.418 282.315 418.418 279.541V258.517H413.882C413.402 258.517 413.026 258.392 412.755 258.142C412.484 257.871 412.349 257.558 412.349 257.203C412.349 256.828 412.484 256.505 412.755 256.234C413.047 255.962 413.433 255.827 413.913 255.827H426.458C426.938 255.827 427.314 255.962 427.585 256.234C427.877 256.505 428.023 256.828 428.023 257.203C428.023 257.558 427.887 257.871 427.616 258.142C427.345 258.392 426.969 258.517 426.49 258.517H421.421V279.541C421.421 282.962 422.256 285.611 423.924 287.488C425.593 289.365 427.981 290.304 431.089 290.304C433.008 290.304 434.687 289.855 436.126 288.958C437.565 288.041 438.681 286.779 439.473 285.173C440.266 283.546 440.662 281.69 440.662 279.604V258.517H436.877C436.397 258.517 436.011 258.392 435.719 258.142C435.448 257.871 435.312 257.558 435.312 257.203C435.312 256.828 435.448 256.505 435.719 256.234C436.011 255.962 436.407 255.827 436.908 255.827H447.326C448.014 255.827 448.546 255.962 448.922 256.234C449.318 256.505 449.516 256.828 449.516 257.203C449.516 257.558 449.328 257.871 448.953 258.142C448.577 258.392 448.046 258.517 447.357 258.517H443.666Z" fill="#B1D572"/>
<path d="M400.716 280.793C401.092 281.064 401.279 281.377 401.279 281.731C401.279 281.836 401.269 281.909 401.248 281.95C400.831 283.827 400.007 285.611 398.777 287.3C397.546 288.969 395.877 290.335 393.771 291.399C391.685 292.462 389.214 292.994 386.356 292.994C383.144 292.994 380.266 292.191 377.721 290.585C375.177 288.979 373.174 286.706 371.714 283.765C370.275 280.803 369.556 277.372 369.556 273.472C369.556 269.926 370.275 266.777 371.714 264.024C373.174 261.27 375.177 259.133 377.721 257.61C380.266 256.087 383.134 255.326 386.325 255.326C387.952 255.326 389.506 255.566 390.986 256.046C392.467 256.505 393.76 257.141 394.866 257.954C395.992 258.768 396.837 259.685 397.4 260.707V257.391C397.4 256.911 397.546 256.536 397.838 256.265C398.151 255.973 398.516 255.827 398.933 255.827C399.35 255.827 399.705 255.973 399.997 256.265C400.31 256.536 400.466 256.922 400.466 257.422V266.589C400.466 267.069 400.32 267.434 400.028 267.684C399.757 267.934 399.423 268.059 399.027 268.059C398.651 268.059 398.328 267.934 398.057 267.684C397.786 267.413 397.609 267.048 397.525 266.589C397.212 264.9 396.524 263.408 395.46 262.115C394.417 260.822 393.114 259.821 391.55 259.112C389.985 258.382 388.275 258.017 386.419 258.017C383.603 258.017 381.152 258.684 379.067 260.019C376.981 261.354 375.375 263.21 374.249 265.588C373.122 267.966 372.559 270.667 372.559 273.691C372.559 277.091 373.185 280.052 374.436 282.576C375.709 285.079 377.398 286.998 379.505 288.333C381.611 289.647 383.905 290.304 386.387 290.304C389.349 290.304 391.852 289.501 393.896 287.895C395.94 286.289 397.39 284.067 398.245 281.231C398.453 280.647 398.87 280.355 399.496 280.355C399.934 280.355 400.341 280.501 400.716 280.793Z" fill="#B1D572"/>
<path d="M346.067 266.871C346.296 267.142 346.411 267.549 346.411 268.091V278.791C346.411 279.312 346.296 279.708 346.067 279.979C345.837 280.251 345.556 280.386 345.222 280.386C344.909 280.386 344.628 280.271 344.377 280.042C344.127 279.792 343.992 279.458 343.971 279.041L343.564 274.411H333.365V289.803H352.606L353.106 281.95C353.127 281.596 353.273 281.304 353.544 281.074C353.815 280.845 354.128 280.73 354.483 280.73C354.837 280.73 355.14 280.876 355.39 281.168C355.661 281.439 355.797 281.836 355.797 282.357V290.804C355.797 291.326 355.63 291.732 355.296 292.024C354.983 292.316 354.566 292.462 354.045 292.462H325.074C324.574 292.462 324.177 292.327 323.885 292.056C323.614 291.785 323.479 291.472 323.479 291.117C323.479 290.763 323.614 290.46 323.885 290.21C324.177 289.939 324.563 289.803 325.043 289.803H330.361V258.517H326.138C325.658 258.517 325.283 258.392 325.012 258.142C324.761 257.871 324.636 257.558 324.636 257.203C324.636 256.828 324.772 256.505 325.043 256.234C325.335 255.962 325.721 255.827 326.2 255.827H353.669C354.191 255.827 354.608 255.983 354.921 256.296C355.254 256.588 355.421 256.995 355.421 257.516V265.963C355.421 266.401 355.296 266.746 355.046 266.996C354.796 267.225 354.504 267.34 354.17 267.34C353.836 267.34 353.534 267.236 353.263 267.027C353.012 266.819 352.877 266.527 352.856 266.151L352.418 258.517H333.365V272.002H343.564L343.971 267.841C344.012 267.403 344.148 267.058 344.377 266.808C344.628 266.558 344.909 266.433 345.222 266.433C345.556 266.433 345.837 266.579 346.067 266.871Z" fill="#B1D572"/>
<path d="M303.743 265.619V262.772C303.618 261.75 303.128 260.885 302.273 260.175C301.438 259.445 300.395 258.903 299.144 258.549C297.913 258.194 296.652 258.017 295.358 258.017C292.689 258.017 290.603 258.622 289.101 259.831C287.6 261.02 286.849 262.657 286.849 264.743C286.849 266.141 287.099 267.225 287.6 267.997C288.121 268.769 288.841 269.373 289.758 269.811C290.676 270.249 292.178 270.833 294.263 271.563L298.518 273.034C300.708 273.785 302.481 274.577 303.837 275.412C305.213 276.225 306.267 277.237 306.997 278.446C307.727 279.635 308.092 281.095 308.092 282.826C308.092 285.183 307.57 287.123 306.527 288.645C305.485 290.168 304.098 291.273 302.366 291.962C300.635 292.65 298.706 292.994 296.579 292.994C294.806 292.994 292.939 292.65 290.978 291.962C289.018 291.273 287.485 290.345 286.379 289.177C286.379 290.387 286.254 291.326 286.004 291.993C285.754 292.66 285.389 292.994 284.909 292.994C284.367 292.994 283.981 292.827 283.751 292.494C283.522 292.16 283.407 291.555 283.407 290.679V280.855C283.407 280.376 283.532 280.011 283.783 279.76C284.054 279.51 284.388 279.385 284.784 279.385C285.18 279.385 285.514 279.52 285.785 279.792C286.077 280.063 286.223 280.438 286.223 280.918V284.641C286.223 285.517 286.734 286.403 287.756 287.3C288.778 288.176 290.092 288.896 291.698 289.459C293.325 290.022 294.983 290.304 296.672 290.304C299.154 290.304 301.178 289.709 302.742 288.52C304.306 287.331 305.088 285.475 305.088 282.951C305.088 281.658 304.817 280.584 304.275 279.729C303.733 278.874 302.95 278.165 301.928 277.602C300.927 277.038 299.582 276.465 297.893 275.881L292.762 274.129C290.801 273.461 289.206 272.794 287.975 272.127C286.744 271.438 285.743 270.521 284.972 269.373C284.221 268.205 283.845 266.714 283.845 264.9C283.845 262.876 284.325 261.145 285.284 259.706C286.244 258.267 287.537 257.182 289.164 256.452C290.812 255.702 292.637 255.326 294.639 255.326C296.474 255.326 298.195 255.535 299.801 255.952C301.428 256.369 302.731 257.12 303.712 258.204C303.712 257.245 303.837 256.525 304.087 256.046C304.337 255.566 304.755 255.326 305.339 255.326C305.777 255.326 306.089 255.493 306.277 255.827C306.486 256.16 306.59 256.724 306.59 257.516V265.431C306.59 265.974 306.454 266.391 306.183 266.683C305.912 266.954 305.568 267.09 305.151 267.09C304.775 267.09 304.442 266.964 304.15 266.714C303.879 266.443 303.743 266.078 303.743 265.619Z" fill="#B1D572"/>
<path d="M469.25 219.817H474.882C475.362 219.817 475.737 219.942 476.008 220.192C476.279 220.443 476.415 220.745 476.415 221.1C476.415 221.433 476.279 221.736 476.008 222.007C475.737 222.257 475.351 222.382 474.851 222.382H462.368C461.867 222.382 461.471 222.257 461.179 222.007C460.908 221.736 460.772 221.433 460.772 221.1C460.772 220.745 460.908 220.443 461.179 220.192C461.45 219.942 461.836 219.817 462.336 219.817H466.247V188.437H463.212C462.733 188.437 462.347 188.312 462.055 188.062C461.784 187.791 461.648 187.478 461.648 187.123C461.648 186.748 461.784 186.425 462.055 186.154C462.347 185.882 462.743 185.747 463.244 185.747H473.255C476.613 185.747 479.387 186.008 481.577 186.529C483.767 187.03 485.477 188.01 486.708 189.47C487.959 190.909 488.585 192.984 488.585 195.696C488.585 197.927 487.97 199.752 486.739 201.171C485.529 202.568 483.996 203.611 482.14 204.299L488.522 219.817H491.15C491.88 219.817 492.391 219.942 492.683 220.192C492.996 220.422 493.153 220.714 493.153 221.068C493.153 221.444 492.996 221.757 492.683 222.007C492.371 222.257 491.87 222.382 491.182 222.382H483.83C483.329 222.382 482.933 222.257 482.641 222.007C482.37 221.736 482.234 221.423 482.234 221.068C482.234 220.735 482.37 220.443 482.641 220.192C482.912 219.942 483.287 219.817 483.767 219.817H485.363L479.731 204.988C479.502 205.071 478.793 205.165 477.604 205.269C476.415 205.373 475.455 205.426 474.725 205.426H469.25V219.817ZM473.224 188.437H469.25V203.017H472.598C475.518 203.017 477.885 202.85 479.7 202.516C481.535 202.161 482.974 201.473 484.017 200.451C485.06 199.408 485.582 197.896 485.582 195.915C485.582 193.808 485.175 192.223 484.361 191.159C483.548 190.096 482.276 189.376 480.545 189.001C478.813 188.625 476.373 188.437 473.224 188.437Z" fill="#B1D572"/>
<path d="M436.469 196.791C436.699 197.062 436.813 197.469 436.813 198.011V208.711C436.813 209.232 436.699 209.628 436.469 209.899C436.24 210.171 435.958 210.306 435.624 210.306C435.312 210.306 435.03 210.191 434.78 209.962C434.529 209.712 434.394 209.378 434.373 208.961L433.966 204.331H423.767V219.723H443.008L443.508 211.87C443.529 211.516 443.675 211.224 443.946 210.994C444.218 210.765 444.53 210.65 444.885 210.65C445.24 210.65 445.542 210.796 445.792 211.088C446.063 211.359 446.199 211.756 446.199 212.277V220.724C446.199 221.246 446.032 221.652 445.698 221.944C445.386 222.236 444.968 222.382 444.447 222.382H415.476C414.976 222.382 414.58 222.247 414.288 221.976C414.016 221.705 413.881 221.392 413.881 221.037C413.881 220.683 414.016 220.38 414.288 220.13C414.58 219.859 414.965 219.723 415.445 219.723H420.764V188.437H416.54C416.06 188.437 415.685 188.312 415.414 188.062C415.164 187.791 415.038 187.478 415.038 187.123C415.038 186.748 415.174 186.425 415.445 186.154C415.737 185.882 416.123 185.747 416.603 185.747H444.072C444.593 185.747 445.01 185.903 445.323 186.216C445.657 186.508 445.824 186.915 445.824 187.436V195.883C445.824 196.321 445.698 196.666 445.448 196.916C445.198 197.145 444.906 197.26 444.572 197.26C444.238 197.26 443.936 197.156 443.665 196.947C443.415 196.739 443.279 196.447 443.258 196.071L442.82 188.437H423.767V201.922H433.966L434.373 197.761C434.415 197.323 434.55 196.978 434.78 196.728C435.03 196.478 435.312 196.353 435.624 196.353C435.958 196.353 436.24 196.499 436.469 196.791Z" fill="#B1D572"/>
<path d="M395.46 199.2C394.501 200.451 393.281 201.296 391.8 201.734C394.219 202.088 396.18 203.069 397.681 204.675C399.204 206.281 399.965 208.554 399.965 211.495C399.965 215.187 398.516 217.929 395.617 219.723C392.738 221.496 388.953 222.382 384.26 222.382H373.06C372.559 222.382 372.163 222.257 371.871 222.007C371.6 221.736 371.464 221.413 371.464 221.037C371.464 220.683 371.6 220.37 371.871 220.099C372.163 219.827 372.549 219.692 373.028 219.692H378.034V188.437H372.841C372.361 188.437 371.985 188.302 371.714 188.031C371.443 187.76 371.308 187.436 371.308 187.061C371.308 186.706 371.433 186.404 371.683 186.154C371.954 185.882 372.33 185.747 372.809 185.747H383.947C387.868 185.747 391.007 186.425 393.364 187.78C395.742 189.136 396.931 191.399 396.931 194.569C396.931 196.405 396.44 197.948 395.46 199.2ZM381.037 201.327H385.105C386.731 201.327 388.233 201.098 389.61 200.639C390.986 200.18 392.102 199.45 392.957 198.449C393.812 197.448 394.24 196.196 394.24 194.695C394.24 192.442 393.374 190.836 391.643 189.877C389.933 188.917 387.503 188.437 384.354 188.437H381.037V201.327ZM381.037 219.692H384.354C388.337 219.692 391.435 219.024 393.646 217.69C395.856 216.355 396.962 214.133 396.962 211.026C396.962 208.94 396.43 207.365 395.366 206.302C394.323 205.238 392.957 204.539 391.268 204.205C389.599 203.872 387.545 203.705 385.105 203.705H381.037V219.692Z" fill="#B1D572"/>
<path d="M344.22 186.122C344.512 185.872 344.898 185.747 345.378 185.747H353.543C354.044 185.747 354.43 185.872 354.701 186.122C354.993 186.352 355.139 186.633 355.139 186.967C355.139 187.28 355.003 187.551 354.732 187.78C354.461 188.01 354.086 188.125 353.606 188.125H351.885L341.78 205.238V219.692H349.038C349.518 219.692 349.883 219.827 350.133 220.099C350.404 220.349 350.54 220.651 350.54 221.006C350.54 221.381 350.394 221.705 350.102 221.976C349.831 222.247 349.455 222.382 348.976 222.382H330.674C330.173 222.382 329.777 222.247 329.485 221.976C329.193 221.705 329.047 221.381 329.047 221.006C329.047 220.651 329.182 220.349 329.453 220.099C329.745 219.827 330.131 219.692 330.611 219.692H338.777V205.081L328.296 188.125H325.668C325.188 188.125 324.802 188.01 324.51 187.78C324.239 187.53 324.104 187.249 324.104 186.936C324.104 186.623 324.25 186.352 324.542 186.122C324.834 185.872 325.219 185.747 325.699 185.747H336.023C336.524 185.747 336.91 185.872 337.181 186.122C337.473 186.352 337.619 186.623 337.619 186.936C337.619 187.249 337.473 187.53 337.181 187.78C336.91 188.01 336.534 188.125 336.055 188.125H331.8L340.435 202.579L348.819 188.125H345.347C344.867 188.125 344.481 188.01 344.189 187.78C343.918 187.53 343.782 187.249 343.782 186.936C343.782 186.623 343.928 186.352 344.22 186.122Z" fill="#B1D572"/>
<path d="M310.313 210.713C310.688 210.984 310.876 211.297 310.876 211.651C310.876 211.756 310.866 211.829 310.845 211.87C310.428 213.748 309.604 215.531 308.373 217.22C307.143 218.889 305.474 220.255 303.367 221.319C301.282 222.382 298.81 222.914 295.953 222.914C292.741 222.914 289.862 222.111 287.318 220.505C284.773 218.899 282.771 216.626 281.311 213.685C279.872 210.723 279.152 207.292 279.152 203.392C279.152 199.846 279.872 196.697 281.311 193.944C282.771 191.191 284.773 189.053 287.318 187.53C289.862 186.008 292.73 185.246 295.921 185.246C297.548 185.246 299.102 185.486 300.583 185.966C302.064 186.425 303.357 187.061 304.462 187.874C305.589 188.688 306.433 189.605 306.997 190.627V187.311C306.997 186.831 307.143 186.456 307.435 186.185C307.747 185.893 308.112 185.747 308.53 185.747C308.947 185.747 309.301 185.893 309.593 186.185C309.906 186.456 310.063 186.842 310.063 187.342V196.509C310.063 196.989 309.917 197.354 309.625 197.604C309.353 197.854 309.02 197.98 308.623 197.98C308.248 197.98 307.925 197.854 307.654 197.604C307.382 197.333 307.205 196.968 307.122 196.509C306.809 194.82 306.121 193.328 305.057 192.035C304.014 190.742 302.71 189.741 301.146 189.032C299.582 188.302 297.872 187.937 296.015 187.937C293.2 187.937 290.749 188.604 288.663 189.939C286.577 191.274 284.971 193.13 283.845 195.508C282.719 197.886 282.156 200.587 282.156 203.611C282.156 207.011 282.781 209.972 284.033 212.496C285.305 214.999 286.995 216.918 289.101 218.253C291.208 219.567 293.502 220.224 295.984 220.224C298.946 220.224 301.449 219.421 303.493 217.815C305.537 216.209 306.986 213.987 307.841 211.151C308.05 210.567 308.467 210.275 309.093 210.275C309.531 210.275 309.937 210.421 310.313 210.713Z" fill="#B1D572"/>
<path d="M764.494 144.614H758.535V152.302H743.863V144.614H720.604V135.003L739.634 107.451H755.139L738.224 132.888H744.311V126.032H758.535V132.888H764.494V144.614Z" fill="#B1D572"/>
<path d="M711.48 140.577V152.302H675.535V143.012L691.745 128.019C693.155 126.694 694.095 125.563 694.564 124.623C695.034 123.683 695.269 122.765 695.269 121.868C695.269 120.757 694.885 119.903 694.116 119.305C693.39 118.664 692.322 118.344 690.912 118.344C689.545 118.344 688.264 118.707 687.068 119.433C685.872 120.159 684.953 121.184 684.313 122.508L672.908 116.806C674.616 113.602 677.115 111.082 680.404 109.245C683.693 107.366 687.666 106.426 692.322 106.426C695.867 106.426 699.007 107.003 701.741 108.156C704.474 109.309 706.61 110.954 708.148 113.09C709.686 115.225 710.455 117.682 710.455 120.458C710.455 122.936 709.921 125.264 708.853 127.442C707.828 129.578 705.799 132.013 702.766 134.746L696.358 140.577H711.48Z" fill="#B1D572"/>
<path d="M645.765 153.328C641.792 153.328 638.268 152.409 635.193 150.572C632.16 148.693 629.768 146.002 628.017 142.499C626.308 138.954 625.454 134.746 625.454 129.877C625.454 125.007 626.308 120.821 628.017 117.318C629.768 113.773 632.16 111.082 635.193 109.245C638.268 107.366 641.792 106.426 645.765 106.426C649.737 106.426 653.24 107.366 656.273 109.245C659.348 111.082 661.74 113.773 663.449 117.318C665.2 120.821 666.076 125.007 666.076 129.877C666.076 134.746 665.2 138.954 663.449 142.499C661.74 146.002 659.348 148.693 656.273 150.572C653.24 152.409 649.737 153.328 645.765 153.328ZM645.765 141.218C649.182 141.218 650.891 137.437 650.891 129.877C650.891 122.316 649.182 118.536 645.765 118.536C642.348 118.536 640.639 122.316 640.639 129.877C640.639 137.437 642.348 141.218 645.765 141.218Z" fill="#B1D572"/>
<path d="M615.946 140.577V152.302H580.001V143.012L596.211 128.019C597.621 126.694 598.56 125.563 599.03 124.623C599.5 123.683 599.735 122.765 599.735 121.868C599.735 120.757 599.351 119.903 598.582 119.305C597.856 118.664 596.788 118.344 595.378 118.344C594.011 118.344 592.73 118.707 591.534 119.433C590.338 120.159 589.419 121.184 588.779 122.508L577.374 116.806C579.082 113.602 581.581 111.082 584.87 109.245C588.159 107.366 592.132 106.426 596.788 106.426C600.333 106.426 603.473 107.003 606.206 108.156C608.94 109.309 611.076 110.954 612.614 113.09C614.152 115.225 614.92 117.682 614.92 120.458C614.92 122.936 614.386 125.264 613.319 127.442C612.293 129.578 610.264 132.013 607.232 134.746L600.824 140.577H615.946Z" fill="#B1D572"/>
<path d="M525.349 153.328C520.608 153.328 516.336 152.345 512.535 150.38C508.733 148.373 505.743 145.596 503.564 142.051C501.429 138.463 500.361 134.405 500.361 129.877C500.361 125.349 501.429 121.312 503.564 117.767C505.743 114.179 508.733 111.402 512.535 109.437C516.336 107.43 520.608 106.426 525.349 106.426C529.706 106.426 533.593 107.195 537.011 108.733C540.428 110.27 543.247 112.492 545.468 115.396L535.921 123.918C533.145 120.415 529.877 118.664 526.118 118.664C522.957 118.664 520.416 119.689 518.494 121.74C516.571 123.747 515.61 126.46 515.61 129.877C515.61 133.294 516.571 136.028 518.494 138.078C520.416 140.086 522.957 141.09 526.118 141.09C529.877 141.09 533.145 139.338 535.921 135.836L545.468 144.357C543.247 147.262 540.428 149.483 537.011 151.021C533.593 152.559 529.706 153.328 525.349 153.328Z" fill="#B1D572"/>
<path d="M489.927 140.897V152.302H452.636V107.451H489.094V118.856H467.501V124.11H486.467V135.003H467.501V140.897H489.927Z" fill="#B1D572"/>
<path d="M420.841 153.328C417.125 153.328 413.494 152.922 409.949 152.11C406.446 151.256 403.563 150.124 401.299 148.714L406.168 137.694C408.304 138.932 410.696 139.936 413.345 140.705C415.993 141.431 418.534 141.794 420.969 141.794C423.062 141.794 424.557 141.602 425.454 141.218C426.351 140.791 426.8 140.171 426.8 139.36C426.8 138.42 426.202 137.715 425.006 137.245C423.853 136.775 421.93 136.263 419.239 135.707C415.779 134.981 412.896 134.212 410.589 133.401C408.283 132.547 406.275 131.18 404.567 129.3C402.858 127.378 402.004 124.794 402.004 121.547C402.004 118.728 402.794 116.165 404.374 113.859C405.955 111.552 408.304 109.736 411.422 108.412C414.583 107.088 418.406 106.426 422.891 106.426C425.967 106.426 428.978 106.768 431.926 107.451C434.916 108.092 437.543 109.053 439.807 110.334L435.258 121.291C430.858 119.07 426.693 117.959 422.763 117.959C418.876 117.959 416.933 118.899 416.933 120.778C416.933 121.675 417.509 122.359 418.663 122.829C419.816 123.256 421.717 123.726 424.365 124.238C427.782 124.879 430.666 125.627 433.015 126.481C435.364 127.293 437.393 128.638 439.102 130.518C440.853 132.397 441.729 134.96 441.729 138.206C441.729 141.026 440.939 143.588 439.358 145.895C437.778 148.159 435.407 149.974 432.246 151.341C429.128 152.665 425.326 153.328 420.841 153.328Z" fill="#B1D572"/>
<path d="M390.425 107.451V152.302H377.995L360.951 131.927V152.302H346.214V107.451H358.645L375.688 127.826V107.451H390.425Z" fill="#B1D572"/>
<path d="M318.72 152.302L318.592 131.863L308.853 148.266H302.189L292.45 132.568V152.302H278.674V107.451H291.105L305.713 131.35L319.937 107.451H332.368L332.496 152.302H318.72Z" fill="#B1D572"/>
</g>
<defs>
<filter id="filter0_b_9_1918" x="-49.5" y="-49.75" width="943" height="569" filterUnits="userSpaceOnUse" color-interpolation-filters="sRGB">
<feFlood flood-opacity="0" result="BackgroundImageFix"/>
<feGaussianBlur in="BackgroundImageFix" stdDeviation="25"/>
<feComposite in2="SourceAlpha" operator="in" result="effect1_backgroundBlur_9_1918"/>
<feBlend mode="normal" in="SourceGraphic" in2="effect1_backgroundBlur_9_1918" result="shape"/>
</filter>
</defs>
</svg>
