<svg width="432" height="432" viewBox="0 0 432 432" fill="none" xmlns="http://www.w3.org/2000/svg">
<path d="M431.549 267.778C421.542 267.778 411.683 267.778 401.638 267.778C401.638 262.927 401.638 258.168 401.638 253.222C396.802 253.222 392.148 253.222 387.326 253.222C387.326 267.73 387.326 282.276 387.326 297.014C392.114 297.014 396.874 297.014 401.901 297.014C401.901 302.008 401.901 306.824 401.901 311.909C411.927 311.909 421.69 311.909 431.573 311.909C431.573 317.09 431.573 322.003 431.573 327.087C421.618 327.087 411.702 327.087 401.6 327.087C401.6 322.256 401.6 317.497 401.6 312.575C396.759 312.575 392.11 312.575 387.254 312.575C387.254 317.349 387.254 322.108 387.254 327.14C382.256 327.14 377.439 327.14 372.474 327.14C372.474 332.072 372.474 336.726 372.474 341.567C377.295 341.567 382.055 341.567 387.082 341.567C387.082 346.561 387.082 351.377 387.082 356.328C396.955 356.328 406.555 356.328 416.337 356.328C416.337 351.478 416.337 346.719 416.337 341.796C421.484 341.796 426.454 341.796 431.558 341.796C431.558 346.752 431.558 351.665 431.558 356.855C426.746 356.855 421.93 356.855 416.926 356.855C416.926 361.887 416.926 366.642 416.926 371.674C397.08 371.674 377.425 371.674 357.626 371.674C357.626 376.606 357.626 381.26 357.626 386.1C377.31 386.1 396.907 386.1 416.682 386.1C416.682 396.203 416.682 406.119 416.682 416.232C411.87 416.232 407.111 416.232 402.078 416.232C402.078 421.23 402.078 426.047 402.078 431.003C396.888 431.003 391.98 431.003 386.881 431.003C386.881 426.061 386.881 421.091 386.881 415.94C391.64 415.94 396.4 415.94 401.351 415.94C401.351 411.113 401.351 406.454 401.351 401.628C391.808 401.628 382.208 401.628 372.411 401.628C372.411 411.348 372.411 421.053 372.411 430.95C367.255 430.95 362.285 430.95 357.123 430.95C357.123 421.259 357.123 411.558 357.123 401.657C352.287 401.657 347.633 401.657 342.697 401.657C342.697 406.397 342.697 411.214 342.697 416.222C337.665 416.222 332.91 416.222 327.873 416.222C327.873 421.221 327.873 426.038 327.873 430.998C322.683 430.998 317.775 430.998 312.585 430.998C312.585 426.234 312.585 421.417 312.585 416.457C307.658 416.457 303.009 416.457 298.158 416.457C298.158 421.283 298.158 426.042 298.158 430.979C288.051 430.979 278.135 430.979 268.027 430.979C268.027 426.176 268.027 421.422 268.027 416.394C263.033 416.394 258.216 416.394 253.217 416.394C253.217 411.372 253.217 406.612 253.217 401.661C248.382 401.661 243.728 401.661 238.791 401.661C238.791 406.406 238.791 411.223 238.791 416.227C233.759 416.227 229.004 416.227 223.967 416.227C223.967 421.226 223.967 426.042 223.967 431.008C213.831 431.008 203.972 431.008 193.927 431.008C193.927 426.076 193.927 421.106 193.927 415.954C198.672 415.954 203.431 415.954 208.387 415.954C208.387 411.128 208.387 406.469 208.387 401.642C198.859 401.642 189.259 401.642 179.457 401.642C179.457 406.402 179.457 411.156 179.457 416.193C174.459 416.193 169.642 416.193 164.552 416.193C164.552 421.278 164.552 426.095 164.552 431.036C154.416 431.036 144.557 431.036 134.531 431.036C134.531 426.033 134.531 421.063 134.531 415.911C139.348 415.911 144.107 415.911 149.034 415.911C149.034 411.08 149.034 406.426 149.034 401.499C139.281 401.499 129.518 401.499 119.64 401.499C119.64 386.421 119.64 371.612 119.64 356.539C124.476 356.539 129.293 356.539 134.282 356.539C134.282 351.521 134.282 346.762 134.282 341.744C139.266 341.744 144.088 341.744 149.163 341.744C149.163 336.673 149.163 331.852 149.163 326.862C154.181 326.862 158.941 326.862 163.872 326.862C163.872 322.031 163.872 317.377 163.872 312.45C159.075 312.45 154.258 312.45 149.259 312.45C149.259 307.428 149.259 302.668 149.259 297.746C134.526 297.746 119.975 297.746 105.233 297.746C105.233 302.515 105.233 307.27 105.233 312.23C80.2823 312.23 55.5232 312.23 30.6157 312.23C30.6157 307.332 30.6157 302.415 30.6157 297.239C35.3511 297.239 40.1727 297.239 45.1475 297.239C45.1475 287.375 45.1475 277.77 45.1475 268.032C35.5666 268.032 26.024 268.032 16.1989 268.032C16.1989 282.678 16.1989 297.387 16.1989 312.259C11.0134 312.259 6.10087 312.259 0.982436 312.259C0.982436 292.537 0.982436 272.724 0.982436 252.647C5.73219 252.647 10.5538 252.647 15.5429 252.647C15.5429 247.63 15.5429 242.87 15.5429 237.852C20.5273 237.852 25.3489 237.852 30.3141 237.852C30.3141 232.935 30.3141 228.281 30.3141 223.436C25.4973 223.436 20.7428 223.436 15.7153 223.436C15.7153 218.442 15.7153 213.625 15.7153 208.626C10.6926 208.626 5.93329 208.626 0.982436 208.626C0.982436 203.474 0.982436 198.504 0.982436 193.266C5.74656 193.266 10.5633 193.266 15.5525 193.266C15.5525 188.248 15.5525 183.489 15.5525 178.471C20.5369 178.471 25.3585 178.471 30.3189 178.471C30.3189 173.553 30.3189 168.9 30.3189 164.054C20.5417 164.054 10.8411 164.054 0.958496 164.054C0.958496 153.951 0.958496 144.035 0.958496 133.98C5.8902 133.98 10.8028 133.98 15.9882 133.98C15.9882 138.763 15.9882 143.58 15.9882 148.541C20.9103 148.541 25.5691 148.541 30.4003 148.541C30.4003 138.763 30.4003 129.058 30.4003 119.18C45.4444 119.18 60.3065 119.18 75.3602 119.18C75.3602 123.954 75.3602 128.713 75.3602 133.659C80.1961 133.659 84.8549 133.659 89.777 133.659C89.777 128.9 89.777 124.078 89.777 119.137C94.9529 119.137 99.8655 119.137 105.051 119.137C105.051 123.93 105.051 128.747 105.051 133.702C109.973 133.702 114.632 133.702 119.463 133.702C119.463 114.019 119.463 94.4212 119.463 74.5555C129.398 74.5555 139.161 74.5555 149.101 74.5555C149.101 64.5916 149.101 54.8862 149.101 44.9174C154.085 44.9174 158.902 44.9174 163.882 44.9174C163.882 40.0001 163.882 35.3461 163.882 30.5485C154.315 30.5485 144.768 30.5485 134.943 30.5485C134.943 35.2887 134.943 40.1054 134.943 45.0802C129.695 45.0802 124.73 45.0802 119.64 45.0802C119.64 30.199 119.64 15.3943 119.64 0.421999C144.418 0.421999 169.182 0.421999 194.128 0.421999C194.128 10.1849 194.128 19.8903 194.128 29.768C198.964 29.768 203.623 29.768 208.545 29.768C208.545 20.0195 208.545 10.2567 208.545 0.378906C218.672 0.378906 228.53 0.378906 238.662 0.378906C238.662 5.20527 238.662 10.0268 238.662 14.9681C243.526 14.9681 248.128 14.9681 252.992 14.9681C252.992 10.2088 252.992 5.39201 252.992 0.417211C263.172 0.417211 273.093 0.417211 283.133 0.417211C283.133 5.39679 283.133 10.3093 283.133 15.5044C278.297 15.5044 273.481 15.5044 268.544 15.5044C268.544 20.3786 268.544 24.98 268.544 29.7632C278.12 29.7632 287.72 29.7632 297.588 29.7632C297.588 24.9848 297.588 20.168 297.588 15.2315C302.764 15.2315 307.677 15.2315 312.776 15.2315C312.776 25.1475 312.776 35.0636 312.776 45.176C298.077 45.176 283.425 45.176 268.597 45.176C268.597 50.0215 268.597 54.6755 268.597 59.6024C278.34 59.6024 288.103 59.6024 297.981 59.6024C297.981 64.7831 297.981 69.6957 297.981 74.8859C288.18 74.8859 278.417 74.8859 268.539 74.8859C268.539 79.7602 268.539 84.3615 268.539 89.2309C273.332 89.2309 278.154 89.2309 283.152 89.2309C283.152 94.2536 283.152 99.013 283.152 103.964C287.988 103.964 292.642 103.964 297.565 103.964C297.565 99.2236 297.565 94.4068 297.565 89.456C302.74 89.456 307.653 89.456 312.757 89.456C312.757 94.3829 312.757 99.3529 312.757 104.519C307.993 104.519 303.238 104.519 298.292 104.519C298.292 109.365 298.292 114.019 298.292 118.946C317.899 118.946 337.554 118.946 357.396 118.946C357.396 123.968 357.396 128.728 357.396 133.664C367.183 133.664 376.788 133.664 386.656 133.664C386.656 128.876 386.656 124.059 386.656 119.123C401.729 119.123 416.538 119.123 431.525 119.123C431.525 129.048 431.525 138.965 431.525 149.015C426.55 149.015 421.642 149.015 416.457 149.015C416.457 144.203 416.457 139.386 416.457 134.44C406.641 134.44 397.094 134.44 387.269 134.44C387.269 139.199 387.269 144.016 387.269 149.106C372.287 149.106 357.578 149.106 342.754 149.106C342.754 153.98 342.754 158.581 342.754 163.451C357.458 163.451 372.167 163.451 387.058 163.451C387.058 168.473 387.058 173.233 387.058 178.184C391.894 178.184 396.548 178.184 401.475 178.184C401.475 173.434 401.475 168.617 401.475 163.671C406.651 163.671 411.563 163.671 416.749 163.671C416.749 168.449 416.749 173.266 416.749 178.351C421.829 178.351 426.646 178.351 431.578 178.351C431.578 188.483 431.578 198.341 431.578 208.367C421.661 208.367 411.803 208.367 401.671 208.367C401.671 203.642 401.671 198.825 401.671 193.845C396.749 193.845 392.095 193.845 387.245 193.845C387.245 198.633 387.245 203.388 387.245 208.42C377.295 208.42 367.532 208.42 357.626 208.42C357.626 213.352 357.626 218.006 357.626 222.847C367.408 222.847 377.113 222.847 387.087 222.847C387.087 227.841 387.087 232.657 387.087 237.656C392.11 237.656 396.869 237.656 401.896 237.656C401.896 242.65 401.896 247.467 401.896 252.432C406.819 252.432 411.473 252.432 416.308 252.432C416.308 242.674 416.308 232.969 416.308 223.081C421.456 223.081 426.426 223.081 431.549 223.081C431.549 237.876 431.549 252.686 431.549 267.778ZM178.979 296.98C178.979 292.001 178.979 287.184 178.979 282.386C184.155 282.386 189.072 282.386 194.253 282.386C194.253 287.327 194.253 292.144 194.253 297.22C199.337 297.22 204.154 297.22 208.885 297.22C208.885 302.405 208.885 307.318 208.885 312.503C198.969 312.503 189.206 312.503 179.491 312.503C179.491 317.382 179.491 321.979 179.491 326.843C184.432 326.843 189.249 326.843 194.329 326.843C194.329 331.928 194.329 336.745 194.329 341.485C199.203 341.485 203.8 341.485 208.655 341.485C208.655 336.534 208.655 331.718 208.655 326.906C218.782 326.906 228.64 326.906 238.772 326.906C238.772 331.842 238.772 336.659 238.772 341.739C243.857 341.739 248.674 341.739 253.663 341.739C253.663 346.766 253.663 351.521 253.663 356.304C258.508 356.304 263.162 356.304 267.764 356.304C267.764 341.59 267.764 327.04 267.764 312.307C262.818 312.307 258.063 312.307 253.04 312.307C253.04 307.308 253.04 302.491 253.04 297.756C248.113 297.756 243.455 297.756 238.614 297.756C238.614 302.711 238.614 307.466 238.614 312.201C233.448 312.201 228.478 312.201 223.33 312.201C223.33 292.408 223.33 272.81 223.33 252.944C218.336 252.944 213.515 252.944 208.526 252.944C208.526 247.917 208.526 243.162 208.526 238.135C203.527 238.135 198.71 238.135 193.635 238.135C193.635 233.05 193.635 228.233 193.635 223.474C183.819 223.474 174.272 223.474 164.452 223.474C164.452 228.415 164.452 233.232 164.452 238.231C159.419 238.231 154.66 238.231 149.829 238.231C149.829 243.081 149.829 247.735 149.829 252.657C154.789 252.657 159.606 252.657 164.385 252.657C164.385 262.789 164.385 272.647 164.385 282.784C159.424 282.784 154.607 282.784 149.8 282.784C149.8 287.663 149.8 292.259 149.8 296.971C159.458 296.98 169 296.98 178.979 296.98ZM297.555 223.316C297.555 218.207 297.555 213.448 297.555 208.664C287.768 208.664 278.163 208.664 268.611 208.664C268.611 213.486 268.611 218.14 268.611 222.976C273.557 222.976 278.312 222.976 283.081 222.976C283.081 233.079 283.081 242.995 283.081 253.102C278.135 253.102 273.38 253.102 268.578 253.102C268.578 262.899 268.578 272.499 268.578 282.367C283.44 282.367 298.149 282.367 313.04 282.367C313.04 287.394 313.04 292.149 313.04 296.932C317.885 296.932 322.539 296.932 327.452 296.932C327.452 287.011 327.452 277.249 327.452 267.313C332.469 267.313 337.229 267.313 342.247 267.313C342.247 262.324 342.247 257.507 342.247 252.432C347.322 252.432 352.139 252.432 356.879 252.432C356.879 242.621 356.879 233.079 356.879 223.263C351.928 223.263 347.111 223.263 342.122 223.263C342.122 218.236 342.122 213.481 342.122 208.645C332.335 208.645 322.735 208.645 313.126 208.645C313.126 213.448 313.126 218.102 313.126 222.938C318.053 222.938 322.812 222.938 327.624 222.938C327.624 228.094 327.624 233.064 327.624 238.058C322.544 238.058 317.631 238.058 312.451 238.058C312.451 233.122 312.451 228.305 312.451 223.311C307.418 223.316 302.664 223.316 297.555 223.316ZM267.788 400.886C267.788 391.109 267.788 381.509 267.788 371.727C257.919 371.727 248.219 371.727 238.25 371.727C238.25 361.787 238.25 352.028 238.25 342.261C228.382 342.261 218.782 342.261 209.239 342.261C209.239 347.087 209.239 351.741 209.239 356.572C214.19 356.572 218.945 356.572 223.699 356.572C223.699 361.729 223.699 366.694 223.699 371.631C218.595 371.631 213.687 371.631 208.507 371.631C208.507 366.675 208.507 361.858 208.507 356.869C203.484 356.869 198.725 356.869 193.702 356.869C193.702 351.875 193.702 347.058 193.702 342.27C188.775 342.27 184.121 342.27 179.28 342.27C179.28 347.202 179.28 351.957 179.28 356.759C174.119 356.759 169.149 356.759 163.997 356.759C163.997 351.832 163.997 347.073 163.997 342.237C159.156 342.237 154.507 342.237 149.575 342.237C149.575 347.193 149.575 352.009 149.575 357.003C144.543 357.003 139.788 357.003 134.981 357.003C134.981 366.795 134.981 376.395 134.981 385.976C139.793 385.976 144.447 385.976 149.273 385.976C149.273 381.044 149.273 376.285 149.273 371.478C154.421 371.478 159.391 371.478 164.629 371.478C164.629 376.452 164.629 381.269 164.629 386.254C179.548 386.254 194.195 386.254 209.11 386.254C209.11 391.247 209.11 396.059 209.11 400.809C218.983 400.809 228.583 400.809 238.355 400.809C238.355 395.863 238.355 391.104 238.355 386.335C243.503 386.335 248.473 386.335 253.624 386.335C253.624 391.267 253.624 396.021 253.624 400.886C258.413 400.886 263.009 400.886 267.788 400.886ZM194.219 163.599C199.304 163.599 204.116 163.599 209.11 163.599C209.11 168.627 209.11 173.381 209.11 178.203C218.897 178.203 228.497 178.203 238.097 178.203C238.097 173.4 238.097 168.742 238.097 163.906C233.17 163.906 228.411 163.906 223.388 163.906C223.388 158.912 223.388 154.095 223.388 149.019C218.308 149.019 213.491 149.019 208.502 149.019C208.502 129.154 208.502 109.561 208.502 89.9109C203.666 89.9109 199.012 89.9109 194.085 89.9109C194.085 94.8809 194.085 99.6929 194.085 104.443C188.895 104.443 183.982 104.443 179.084 104.443C179.084 99.3194 179.084 94.3494 179.084 89.207C184.025 89.207 188.785 89.207 193.798 89.207C193.798 84.2178 193.798 79.4011 193.798 74.3305C198.873 74.3305 203.69 74.3305 208.449 74.3305C208.449 69.4706 208.449 64.8693 208.449 60.0046C203.508 60.0046 198.691 60.0046 193.616 60.0046C193.616 49.9784 193.616 40.2156 193.616 30.5198C188.751 30.5198 184.15 30.5198 179.275 30.5198C179.275 35.4658 179.275 40.2826 179.275 45.2813C174.243 45.2813 169.489 45.2813 164.662 45.2813C164.662 50.1316 164.662 54.7809 164.662 59.7078C169.623 59.7078 174.44 59.7078 179.208 59.7078C179.208 64.8932 179.208 69.801 179.208 74.9913C174.253 74.9913 169.436 74.9913 164.71 74.9913C164.71 89.8151 164.71 104.361 164.71 119.094C174.612 119.094 184.313 119.094 194.004 119.094C194.004 124.251 194.004 129.216 194.004 134.378C189.057 134.378 184.298 134.378 179.52 134.378C179.52 139.228 179.52 143.877 179.52 148.799C184.494 148.799 189.311 148.799 194.214 148.799C194.219 153.764 194.219 158.466 194.219 163.599ZM75.6331 163.915C75.6331 168.928 75.6331 173.582 75.6331 178.413C90.4522 178.413 105.099 178.413 120.009 178.413C120.009 193.295 120.009 207.999 120.009 222.717C124.931 222.717 129.58 222.717 134.493 222.717C134.493 212.792 134.493 203.034 134.493 193.343C144.61 193.343 154.469 193.343 164.595 193.343C164.595 198.298 164.595 203.115 164.595 208.099C174.564 208.099 184.265 208.099 194.233 208.099C194.233 213.093 194.233 217.905 194.233 222.708C199.16 222.708 203.814 222.708 208.387 222.708C208.387 207.984 208.387 193.438 208.387 178.72C183.657 178.72 159.118 178.72 134.311 178.72C134.311 173.735 134.311 168.919 134.311 163.843C129.231 163.843 124.414 163.843 119.425 163.843C119.425 158.821 119.425 154.061 119.425 149.292C114.584 149.292 109.93 149.292 105.089 149.292C105.089 154.215 105.089 158.969 105.089 163.91C95.2019 163.915 85.5013 163.915 75.6331 163.915ZM119.511 223.512C109.643 223.512 100.043 223.512 90.4952 223.512C90.4952 228.338 90.4952 232.988 90.4952 237.824C95.4461 237.824 100.201 237.824 105.219 237.824C105.219 242.822 105.219 247.634 105.219 252.628C110.246 252.628 115.001 252.628 119.817 252.628C119.817 257.785 119.817 262.75 119.817 267.993C114.838 267.993 110.026 267.993 105.286 267.993C105.286 272.872 105.286 277.469 105.286 282.094C119.971 282.094 134.517 282.094 149.029 282.094C149.029 272.331 149.029 262.731 149.029 252.949C144.093 252.949 139.333 252.949 134.316 252.949C134.316 247.955 134.316 243.138 134.316 238.063C129.235 238.063 124.419 238.063 119.511 238.063C119.511 233.098 119.511 228.396 119.511 223.512ZM356.846 356.357C356.846 341.629 356.846 327.083 356.846 312.589C342.132 312.589 327.586 312.589 313.068 312.589C313.068 327.269 313.068 341.758 313.068 356.357C327.686 356.357 342.175 356.357 356.846 356.357ZM45.8418 252.58C45.8418 257.656 45.8418 262.473 45.8418 267.222C50.7639 267.222 55.4179 267.222 60.2395 267.222C60.2395 262.281 60.2395 257.526 60.2395 252.513C65.2239 252.513 70.0359 252.513 74.8191 252.513C74.8191 247.601 74.8191 242.947 74.8191 238.116C69.8874 238.116 65.1329 238.116 60.3113 238.116C60.3113 232.964 60.3113 227.999 60.3113 222.775C65.2765 222.775 70.0933 222.775 74.8766 222.775C74.8766 217.92 74.8766 213.323 74.8766 208.631C60.2155 208.631 45.679 208.631 31.085 208.631C31.085 213.419 31.085 218.068 31.085 222.985C36.0502 222.985 40.8622 222.985 45.6263 222.985C45.6263 228.166 45.6263 233.074 45.6263 238.255C40.6755 238.255 35.8635 238.255 31.1233 238.255C31.1233 243.186 31.1233 247.835 31.1233 252.58C36.0167 252.58 40.709 252.58 45.8418 252.58ZM238.336 45.3963C228.387 45.3963 218.787 45.3963 209.239 45.3963C209.239 50.2178 209.239 54.8718 209.239 59.703C214.185 59.703 218.94 59.703 223.948 59.703C223.948 84.4812 223.948 109.073 223.948 133.645C228.861 133.645 233.515 133.645 238.331 133.645C238.331 113.875 238.331 94.2824 238.331 74.4311C243.311 74.4311 248.123 74.4311 252.949 74.4311C252.949 69.5137 252.949 64.8597 252.949 60.0238C248.032 60.0238 243.273 60.0238 238.336 60.0238C238.336 55.0921 238.336 50.3375 238.336 45.3963ZM45.9375 134.373C45.9375 149.144 45.9375 163.676 45.9375 178.174C50.7543 178.174 55.4035 178.174 60.2203 178.174C60.2203 173.242 60.2203 168.493 60.2203 163.489C65.1951 163.489 70.0071 163.489 74.8526 163.489C74.8526 153.64 74.8526 144.049 74.8526 134.373C65.1616 134.373 55.6286 134.373 45.9375 134.373ZM267.917 133.736C278.01 133.736 287.768 133.736 297.454 133.736C297.454 128.828 297.454 124.174 297.454 119.559C282.784 119.559 268.3 119.559 253.548 119.559C253.548 124.481 253.548 129.293 253.548 134.368C248.468 134.368 243.656 134.368 238.935 134.368C238.935 139.295 238.935 143.944 238.935 148.541C248.674 148.541 258.211 148.541 267.917 148.541C267.917 143.666 267.917 138.912 267.917 133.736ZM283.354 178.16C288.271 178.16 292.92 178.16 297.737 178.16C297.737 173.214 297.737 168.459 297.737 163.455C302.716 163.455 307.528 163.455 312.317 163.455C312.317 153.606 312.317 144.011 312.317 134.478C307.495 134.478 302.846 134.478 298.01 134.478C298.01 139.419 298.01 144.169 298.01 149.187C293.016 149.187 288.204 149.187 283.354 149.187C283.354 158.998 283.354 168.531 283.354 178.16ZM253.481 223.464C253.481 228.449 253.481 233.261 253.481 238.259C243.503 238.259 233.802 238.259 224.044 238.259C224.044 243.105 224.044 247.759 224.044 252.394C238.748 252.394 253.299 252.394 267.835 252.394C267.835 242.669 267.835 233.127 267.835 223.464C263.124 223.464 258.527 223.464 253.481 223.464ZM267.864 178.978C258.053 178.978 248.468 178.978 238.901 178.978C238.901 188.732 238.901 198.317 238.901 207.855C243.723 207.855 248.372 207.855 253.184 207.855C253.184 202.923 253.184 198.169 253.184 193.17C258.159 193.17 262.966 193.17 267.864 193.17C267.864 188.325 267.864 183.733 267.864 178.978ZM268.525 371.142C278.326 371.142 287.926 371.142 297.45 371.142C297.45 366.316 297.45 361.662 297.45 357.066C287.711 357.066 278.173 357.066 268.525 357.066C268.525 361.791 268.525 366.388 268.525 371.142ZM357.664 178.907C357.664 183.795 357.664 188.444 357.664 193.074C367.394 193.074 376.931 193.074 386.56 193.074C386.56 188.301 386.56 183.652 386.56 178.907C376.874 178.907 367.336 178.907 357.664 178.907ZM297.588 297.765C287.926 297.765 278.273 297.765 268.582 297.765C268.582 302.491 268.582 307.14 268.582 311.761C278.34 311.761 287.941 311.761 297.588 311.761C297.588 307.049 297.588 302.51 297.588 297.765ZM149.096 134.449C139.324 134.449 129.729 134.449 120.172 134.449C120.172 139.266 120.172 143.92 120.172 148.545C129.901 148.545 139.444 148.545 149.096 148.545C149.096 143.834 149.096 139.237 149.096 134.449ZM357.65 267.984C357.65 277.78 357.65 287.375 357.65 296.908C362.476 296.908 367.13 296.908 371.732 296.908C371.732 287.174 371.732 277.632 371.732 267.984C367.006 267.984 362.409 267.984 357.65 267.984ZM104.539 267.289C104.539 262.516 104.539 257.862 104.539 253.193C94.7997 253.193 85.1997 253.193 75.6475 253.193C75.6475 258.01 75.6475 262.664 75.6475 267.289C85.3768 267.289 94.9146 267.289 104.539 267.289ZM149.115 223.526C144.246 223.526 139.592 223.526 134.948 223.526C134.948 228.305 134.948 232.897 134.948 237.589C139.717 237.589 144.366 237.589 149.115 237.589C149.115 232.858 149.115 228.267 149.115 223.526ZM104.577 282.889C99.7266 282.889 95.0774 282.889 90.4952 282.889C90.4952 287.715 90.4952 292.369 90.4952 296.966C95.2881 296.966 99.8798 296.966 104.577 296.966C104.577 292.245 104.577 287.653 104.577 282.889ZM90.4043 148.493C95.2642 148.493 99.9134 148.493 104.486 148.493C104.486 143.666 104.486 139.012 104.486 134.421C99.6979 134.421 95.1014 134.421 90.4043 134.421C90.4043 139.146 90.4043 143.743 90.4043 148.493ZM45.205 178.988C40.3642 178.988 35.715 178.988 31.1233 178.988C31.1233 183.81 31.1233 188.464 31.1233 193.074C35.9113 193.074 40.5031 193.074 45.205 193.074C45.205 188.353 45.205 183.757 45.205 178.988ZM342.749 193.754C342.749 198.619 342.749 203.211 342.749 207.898C347.518 207.898 352.172 207.898 356.855 207.898C356.855 203.105 356.855 198.456 356.855 193.754C352.101 193.754 347.509 193.754 342.749 193.754ZM267.792 104.026C267.792 99.1997 267.792 94.5505 267.792 89.9444C262.976 89.9444 258.322 89.9444 253.696 89.9444C253.696 94.7276 253.696 99.3194 253.696 104.026C258.413 104.026 263.009 104.026 267.792 104.026ZM164.624 341.456C169.47 341.456 174.119 341.456 178.706 341.456C178.706 336.635 178.706 331.981 178.706 327.375C173.922 327.375 169.326 327.375 164.624 327.375C164.624 332.096 164.624 336.692 164.624 341.456ZM149.048 104.026C149.048 99.1997 149.048 94.5457 149.048 89.9444C144.232 89.9444 139.578 89.9444 134.957 89.9444C134.957 94.7276 134.957 99.3194 134.957 104.026C139.673 104.026 144.265 104.026 149.048 104.026ZM90.4761 193.764C90.4761 198.614 90.4761 203.263 90.4761 207.846C95.3025 207.846 99.9565 207.846 104.553 207.846C104.553 203.058 104.553 198.461 104.553 193.764C99.832 193.764 95.2402 193.764 90.4761 193.764ZM253.739 30.5054C253.739 35.3222 253.739 39.9714 253.739 44.5871C258.556 44.5871 263.205 44.5871 267.84 44.5871C267.84 39.8086 267.84 35.2168 267.84 30.5054C263.124 30.5054 258.532 30.5054 253.739 30.5054ZM327.964 178.921C327.964 183.776 327.964 188.425 327.964 193.003C332.795 193.003 337.444 193.003 342.041 193.003C342.041 188.215 342.041 183.618 342.041 178.921C337.315 178.921 332.723 178.921 327.964 178.921ZM342.026 386.105C342.026 381.26 342.026 376.61 342.026 371.942C337.229 371.942 332.58 371.942 327.978 371.942C327.978 376.764 327.978 381.413 327.978 386.105C332.704 386.105 337.238 386.105 342.026 386.105ZM238.164 15.7151C233.318 15.7151 228.669 15.7151 224.082 15.7151C224.082 20.5414 224.082 25.1906 224.082 29.7968C228.87 29.7968 233.467 29.7968 238.164 29.7968C238.164 25.0757 238.164 20.4792 238.164 15.7151ZM238.14 222.775C238.14 217.901 238.14 213.304 238.14 208.66C233.357 208.66 228.707 208.66 224.068 208.66C224.068 213.467 224.068 218.116 224.068 222.775C228.837 222.775 233.428 222.775 238.14 222.775Z" fill="#B1D572"/>
<path d="M327.495 0.345703C362.103 0.345703 396.538 0.345703 431.099 0.345703C431.099 34.8868 431.099 69.3225 431.099 103.95C396.644 103.95 362.155 103.95 327.495 103.95C327.495 69.5188 327.495 35.0256 327.495 0.345703ZM342.342 15.1887C342.342 39.9813 342.342 64.5776 342.342 89.1068C367.111 89.1068 391.707 89.1068 416.261 89.1068C416.261 64.3764 416.261 39.8328 416.261 15.1887C391.588 15.1887 367.049 15.1887 342.342 15.1887Z" fill="#B1D572"/>
<path d="M104.51 430.582C69.9114 430.582 35.4757 430.582 0.910645 430.582C0.910645 396.041 0.910645 361.605 0.910645 326.978C35.3512 326.978 69.8444 326.978 104.51 326.978C104.51 361.399 104.51 395.892 104.51 430.582ZM89.734 341.797C64.951 341.797 40.3547 341.797 15.8159 341.797C15.8159 366.56 15.8159 391.162 15.8159 415.719C40.5462 415.719 65.085 415.719 89.734 415.719C89.734 391.051 89.734 366.508 89.734 341.797Z" fill="#B1D572"/>
<path d="M0.886719 103.969C0.886719 69.366 0.886719 34.9303 0.886719 0.365234C35.4278 0.365234 69.8635 0.365234 104.491 0.365234C104.491 34.8106 104.491 69.3037 104.491 103.965C70.0646 103.969 35.5714 103.969 0.886719 103.969ZM15.792 15.1891C15.792 39.9673 15.792 64.5636 15.792 89.1072C40.5558 89.1072 65.1521 89.1072 89.7148 89.1072C89.7148 64.3768 89.7148 39.838 89.7148 15.1891C65.0515 15.1891 40.5127 15.1891 15.792 15.1891Z" fill="#B1D572"/>
<path d="M431.52 297.445C426.426 297.445 421.528 297.445 416.51 297.445C416.51 292.432 416.51 287.529 416.51 282.444C421.437 282.444 426.392 282.444 431.52 282.444C431.52 287.347 431.52 292.302 431.52 297.445Z" fill="#B1D572"/>
<path d="M134.622 327.189C129.575 327.189 124.735 327.189 119.707 327.189C119.707 322.18 119.707 317.225 119.707 312.102C124.62 312.102 129.58 312.102 134.622 312.102C134.622 317.143 134.622 322.152 134.622 327.189Z" fill="#B1D572"/>
<path d="M194.032 267.759C188.938 267.759 184.04 267.759 179.022 267.759C179.022 262.746 179.022 257.843 179.022 252.758C183.949 252.758 188.904 252.758 194.032 252.758C194.032 257.661 194.032 262.616 194.032 267.759Z" fill="#B1D572"/>
<path d="M312.833 252.701C312.833 257.724 312.833 262.622 312.833 267.697C307.858 267.697 302.903 267.697 297.794 267.697C297.794 262.742 297.794 257.786 297.794 252.701C302.75 252.701 307.648 252.701 312.833 252.701Z" fill="#B1D572"/>
<path d="M327.461 326.896C332.474 326.896 337.372 326.896 342.452 326.896C342.452 331.857 342.452 336.813 342.452 341.931C337.502 341.931 332.551 341.931 327.461 341.931C327.461 336.975 327.461 332.077 327.461 326.896Z" fill="#B1D572"/>
<path d="M357.181 30.0317C372 30.0317 386.646 30.0317 401.418 30.0317C401.418 44.7838 401.418 59.4304 401.418 74.2639C386.757 74.2639 372.052 74.2639 357.181 74.2639C357.181 59.622 357.181 44.9226 357.181 30.0317Z" fill="#B1D572"/>
<path d="M30.5728 400.829C30.5728 386.01 30.5728 371.368 30.5728 356.597C45.3248 356.597 59.9715 356.597 74.8049 356.597C74.8049 371.258 74.8049 385.957 74.8049 400.829C60.1678 400.829 45.4636 400.829 30.5728 400.829Z" fill="#B1D572"/>
<path d="M74.8287 74.3449C60.0096 74.3449 45.363 74.3449 30.5918 74.3449C30.5918 59.5929 30.5918 44.9462 30.5918 30.1128C45.2528 30.1128 59.957 30.1128 74.8287 30.1128C74.8287 44.7547 74.8287 59.454 74.8287 74.3449Z" fill="#B1D572"/>
</svg>
