<svg width="560" height="312" viewBox="0 0 560 312" fill="none" xmlns="http://www.w3.org/2000/svg">
<g filter="url(#filter0_b_553_237)">
<rect x="0.124023" y="0.717773" width="559.248" height="311" fill="black" fill-opacity="0.5"/>
<rect x="0.624023" y="1.21777" width="558.248" height="310" stroke="#B1D572"/>
<path d="M30.1323 173.209C30.4087 171.423 30.6005 169.616 30.9883 167.854C31.2647 166.594 31.766 165.375 32.2528 164.172C32.3683 163.888 32.8221 163.574 33.1315 163.562C34.7075 163.5 36.2896 163.533 38.0368 163.533C37.7294 164.271 37.4571 164.911 37.1972 165.554C35.4171 169.963 34.5651 174.49 35.4913 179.233C36.0359 182.026 37.6593 183.723 40.0212 184.008C41.7085 184.212 43.2205 183.659 44.0353 182.238C45.4421 179.785 46.5869 177.184 47.8246 174.637C47.9071 174.466 47.8679 174.23 47.8679 174.026C47.87 168.393 47.87 162.761 47.8679 157.128C47.8679 156.961 47.8493 156.794 47.8308 156.52C42.218 156.52 36.6382 156.52 30.9801 156.52C30.9801 154.471 30.9801 152.534 30.9801 150.43C31.3802 150.43 31.7763 150.43 32.1723 150.43C39.6292 150.43 47.0882 150.453 54.5451 150.41C55.8343 150.401 57.1544 150.243 58.4045 149.929C60.9932 149.281 62.6001 147.586 63.1633 144.949C63.6831 142.515 63.5717 140.096 62.8312 137.734C61.674 134.044 58.8067 132.416 55.2526 131.81C53.5364 131.517 51.7727 131.397 50.0297 131.381C44.0848 131.331 38.1399 131.362 32.193 131.362C31.8196 131.362 31.4463 131.362 30.9863 131.362C30.9863 129.328 30.9863 127.358 30.9863 125.275C36.5578 125.275 42.1396 125.275 47.7936 125.275C47.7936 122.127 47.7936 119.089 47.7936 115.937C42.2304 115.937 36.6506 115.937 30.9863 115.937C30.9863 113.89 30.9863 111.956 30.9863 109.895C31.3596 109.874 31.7536 109.837 32.1476 109.837C39.6045 109.833 47.0634 109.847 54.5203 109.821C55.6466 109.817 56.7914 109.732 57.895 109.522C61.214 108.888 63.0622 106.867 63.3695 103.498C63.6521 100.394 63.2458 97.4441 60.8468 95.1462C59.1925 93.5599 57.0905 92.9184 54.8833 92.6379C53.5591 92.4687 52.2141 92.4068 50.8795 92.4027C44.6603 92.38 38.439 92.3924 32.2198 92.3924C31.8464 92.3924 31.471 92.3924 30.9986 92.3924C30.9986 90.3647 30.9986 88.3968 30.9986 86.2804C31.3802 86.2804 31.7804 86.2804 32.1785 86.2804C39.7056 86.2804 47.2305 86.2928 54.7575 86.268C55.8487 86.2639 56.9647 86.1959 58.0291 85.9689C61.6698 85.1913 63.4727 82.8129 63.4603 78.8215C63.4562 77.7323 63.3304 76.6205 63.0808 75.5603C62.4124 72.7219 60.6096 70.7808 57.8393 70.0032C55.8116 69.4339 53.6766 69.0151 51.5788 68.9718C45.1554 68.8377 38.7278 68.9182 32.3002 68.914C31.8918 68.914 31.4834 68.914 30.9883 68.914C30.9883 66.8781 30.9883 64.9102 30.9883 62.7876C31.3782 62.7876 31.7763 62.7876 32.1744 62.7876C44.6871 62.7856 57.1957 62.7794 69.7043 62.7732C73.4503 62.7732 75.9008 60.3433 75.9173 56.6159C75.9215 55.7619 75.9173 54.9079 75.9173 53.9033C76.9611 53.9033 77.943 53.9033 78.9248 53.9033C79.9191 53.9033 80.9133 53.9033 81.9839 53.9033C82.4295 58.5342 81.6436 62.6866 77.9574 65.9643C79.5375 67.4804 80.7896 69.1966 81.3878 71.2738C81.7364 72.4806 82.0231 73.7533 82.0396 75.0012C82.1097 80.4263 82.0726 85.8534 82.0705 91.2806C82.0705 91.4786 82.0396 91.6766 82.019 91.9345C79.9933 91.9345 78.0213 91.9345 75.9173 91.9345C75.9173 91.5446 75.9173 91.1795 75.9173 90.8144C75.9173 85.7647 75.9214 80.7172 75.9153 75.6675C75.9111 71.5667 73.2605 68.9326 69.137 68.9264C67.1836 68.9223 65.2302 68.9264 62.9632 68.9264C67.1485 71.837 68.7038 75.7851 68.576 80.4676C68.4481 85.1335 67.0392 89.1188 62.3505 91.2476C62.5156 91.4621 62.5898 91.623 62.7157 91.7096C67.2826 94.8017 68.7905 99.2758 68.5409 104.548C68.4233 107.019 67.92 109.381 66.4637 111.44C64.4587 114.276 61.4842 115.299 58.2209 115.689C56.7316 115.867 55.2258 115.893 53.6746 115.99C53.6746 119.045 53.6746 122.082 53.6746 125.205C58.3818 125.205 63.0416 125.205 67.8684 125.205C67.8684 126.814 67.8891 128.34 67.8375 129.867C67.8313 130.027 67.4208 130.263 67.1692 130.312C65.7685 130.595 64.3576 130.83 62.8291 131.102C62.9879 131.346 63.0416 131.506 63.153 131.589C67.4167 134.722 68.7245 139.128 68.5512 144.157C68.4563 146.901 67.9551 149.549 66.3647 151.864C64.3844 154.75 61.4202 155.88 58.1095 156.286C56.6553 156.466 55.1845 156.489 53.6704 156.588C53.6704 159.308 53.6704 162.011 53.6704 164.886C55.3557 163.789 57.1606 163.446 59.0708 163.5C62.0411 163.582 64.3225 164.87 66.0037 167.287C67.9035 170.02 68.4439 173.141 68.5595 176.365C68.71 180.567 68.0149 184.629 66.3791 188.517C66.3007 188.703 66.1873 188.874 66.0346 189.152C64.4546 188.484 62.8931 187.824 61.3934 187.191C62.0184 184.959 62.7198 182.818 63.2025 180.629C63.7615 178.094 63.78 175.518 63.1035 172.984C62.9467 172.397 62.695 171.815 62.3794 171.295C60.921 168.878 57.8393 168.529 56.055 170.715C54.6296 172.463 53.5467 174.4 53.5879 176.852C53.6808 182.517 53.6168 188.185 53.6168 193.851C53.6168 194.227 53.6168 194.602 53.6168 194.957C55.2155 195.417 56.7976 195.743 58.2807 196.325C63.7821 198.484 67.4662 202.284 68.3594 208.285C69.8425 218.252 64.0709 225.057 55.1969 226.183C54.7204 226.243 54.246 226.327 53.6931 226.412C53.6931 228.196 53.6931 229.995 53.6931 231.831C55.0649 232.194 56.5026 232.485 57.8805 232.953C64.2854 235.129 68.0603 240.187 68.4893 246.939C68.7348 250.798 68.2872 254.532 66.8577 258.135C66.8102 258.253 66.8329 258.397 66.8247 258.531C66.4802 258.531 66.1378 258.531 65.7933 258.531C64.3824 257.956 62.9694 257.38 61.5378 256.794C61.7049 256.295 61.8575 255.844 62.0061 255.392C62.8951 252.667 63.4665 249.911 63.1468 247.007C62.6352 242.361 59.4276 238.978 53.5797 238.374C53.5797 242.035 53.5797 245.687 53.5797 249.336C51.6077 249.336 49.7698 249.336 47.839 249.336C47.839 245.536 47.839 241.804 47.839 238.025C45.3967 238.089 43.1215 238.481 40.9659 239.453C38.1894 240.705 36.2174 242.759 35.776 245.781C35.4686 247.881 35.5553 250.095 35.8337 252.209C36.0937 254.181 36.8404 256.089 37.3932 258.096C35.8502 258.096 34.2475 258.121 32.6468 258.069C32.3992 258.061 32.0362 257.754 31.9413 257.504C31.5019 256.357 31.0626 255.2 30.7676 254.01C30.4644 252.791 30.3303 251.528 30.124 250.286C30.124 249.187 30.124 248.088 30.124 246.99C30.188 246.767 30.2911 246.549 30.3138 246.32C31.0337 238.931 35.3366 234.013 42.6182 232.373C44.3096 231.992 46.0485 231.821 47.7874 231.55C47.7874 221.439 47.7874 211.296 47.7874 201.077C46.721 201.205 45.7309 201.294 44.7511 201.444C39.7819 202.212 36.467 205.267 35.6543 210.182C34.9777 214.275 35.5326 218.316 36.9662 222.218C37.2632 223.027 37.5644 223.834 37.8944 224.725C36.2195 224.725 34.7075 224.76 33.1996 224.696C32.8964 224.683 32.4529 224.353 32.3436 224.067C31.832 222.726 31.3142 221.373 30.9924 219.978C30.6026 218.291 30.4066 216.558 30.1261 214.844C30.1261 213.538 30.1261 212.235 30.1261 210.929C30.1962 210.638 30.3097 210.349 30.3303 210.054C30.8584 203.068 35.3346 197.558 42.1149 195.718C43.9487 195.221 45.8588 194.998 47.7957 194.639C47.7957 192.267 47.7957 189.794 47.7957 187.218C47.6018 187.364 47.4863 187.428 47.4017 187.519C44.3756 190.753 38.6205 190.431 35.6563 188.536C32.8345 186.731 31.504 183.971 30.7779 180.854C30.4788 179.565 30.3386 178.236 30.1261 176.926C30.1323 175.683 30.1323 174.447 30.1323 173.209ZM53.6931 201.376C53.6931 207.569 53.6931 213.759 53.6931 219.952C59.3925 219.848 63.254 217.06 63.5366 212.088C63.8914 205.834 60.0671 201.715 53.6931 201.376Z" fill="#B1D572"/>
<path d="M119.417 258.525C119.417 253.207 119.417 247.889 119.417 242.431C119.002 242.431 118.639 242.431 118.276 242.431C112.57 242.431 106.867 242.431 101.161 242.431C94.3829 242.429 89.3869 238.25 88.1988 231.579C88.1204 231.142 88.0915 230.692 88.0895 230.249C88.0812 225.886 88.0853 221.525 88.0853 217.162C88.0853 216.896 88.0853 216.628 88.0853 216.294C90.2863 216.294 92.3924 216.294 94.614 216.294C94.614 216.725 94.614 217.092 94.614 217.462C94.614 221.515 94.6057 225.566 94.616 229.619C94.6264 233.351 97.1491 235.88 100.883 235.888C106.724 235.901 112.568 235.892 118.41 235.89C118.713 235.89 119.014 235.865 119.375 235.849C119.375 227.062 119.375 218.324 119.375 209.46C118.988 209.46 118.62 209.46 118.255 209.46C112.55 209.46 106.846 209.46 101.141 209.46C94.3788 209.458 89.1951 205.256 88.2153 198.596C87.417 193.172 88.5453 188.253 93.2856 184.769C95.5154 183.131 98.0464 182.38 100.804 182.378C104.825 182.374 108.849 182.283 112.865 182.403C117.129 182.529 119.815 179.342 119.644 175.587C119.551 173.539 119.627 171.485 119.627 169.346C109.095 169.346 98.6611 169.346 88.1534 169.346C88.1534 167.157 88.1534 165.053 88.1534 162.899C100.794 162.899 113.391 162.899 126.007 162.899C126.05 163.071 126.11 163.201 126.11 163.331C126.081 168.104 126.209 172.883 125.974 177.646C125.679 183.605 120.108 188.769 114.132 188.849C109.769 188.909 105.402 188.861 101.037 188.865C97.1532 188.87 94.6284 191.409 94.5645 195.307C94.5315 197.296 94.6057 199.235 96.0352 200.821C97.3265 202.253 98.9231 202.931 100.868 202.925C108.808 202.903 116.745 202.915 124.685 202.915C125.095 202.915 125.506 202.915 126.038 202.915C126.067 203.418 126.119 203.878 126.119 204.338C126.075 221.987 126.028 239.636 125.982 257.285C125.98 257.696 126.005 258.108 126.015 258.519C123.816 258.525 121.618 258.525 119.417 258.525Z" fill="#B1D572"/>
<path d="M82.011 258.241C79.9874 258.241 78.0134 258.241 75.9795 258.241C75.9795 204.821 75.9795 151.441 75.9795 97.999C78.001 97.999 79.973 97.999 82.011 97.999C82.011 151.425 82.011 204.803 82.011 258.241Z" fill="#B1D572"/>
<path d="M119.627 69.1001C109.093 69.1001 98.6612 69.1001 88.1535 69.1001C88.1535 66.8992 88.1535 64.7931 88.1535 62.623C100.751 62.623 113.348 62.623 125.999 62.623C126.034 62.7592 126.11 62.918 126.11 63.0748C126.082 67.848 126.187 72.6254 125.976 77.3904C125.729 82.9825 120.506 88.226 114.934 88.4756C110.235 88.686 105.524 88.5808 100.817 88.6221C97.8712 88.6489 95.5032 90.3032 94.8389 93.024C94.3377 95.0723 94.2304 97.2217 95.1649 99.1814C96.3283 101.617 98.424 102.682 101.101 102.68C108.971 102.672 116.84 102.678 124.712 102.678C125.12 102.678 125.529 102.678 126.03 102.678C126.03 104.852 126.03 106.95 126.03 109.14C125.661 109.14 125.322 109.14 124.984 109.14C116.977 109.14 108.969 109.147 100.963 109.138C94.3604 109.132 89.1849 104.976 88.2484 98.4429C87.4192 92.6465 88.399 87.6835 94.0345 83.9994C95.9673 82.737 98.1311 82.1223 100.46 82.1265C104.654 82.1347 108.845 82.1326 113.039 82.1285C117.02 82.1244 119.613 79.5377 119.627 75.5566C119.633 73.436 119.627 71.3155 119.627 69.1001Z" fill="#B1D572"/>
<path d="M126.278 136.022C126.278 139.525 126.286 143.027 126.276 146.532C126.253 153.803 120.762 159.304 113.497 159.298C108.721 159.294 103.938 159.414 99.1749 159.152C93.2548 158.826 88.1371 153.238 88.0979 147.314C88.0484 139.793 88.0505 132.272 88.0938 124.751C88.1289 118.802 93.1558 113.204 99.1192 112.88C104.425 112.593 109.778 112.521 115.075 112.872C121.552 113.301 126.226 118.757 126.276 125.306C126.298 128.879 126.276 132.451 126.278 136.022ZM94.575 135.948C94.575 139.45 94.5585 142.953 94.5791 146.453C94.6018 150.274 97.1823 152.809 101.015 152.811C105.138 152.815 109.26 152.815 113.383 152.811C117.173 152.809 119.803 150.203 119.809 146.416C119.821 139.446 119.821 132.476 119.809 125.506C119.803 121.851 117.146 119.213 113.499 119.208C109.342 119.204 105.186 119.206 101.027 119.208C97.1349 119.21 94.5935 121.737 94.5791 125.646C94.5626 129.081 94.575 132.515 94.575 135.948Z" fill="#B1D572"/>
<path d="M108.888 136.039C109.8 139.147 110.698 142.198 111.589 145.251C112.047 146.821 111.518 147.543 109.885 147.553C108.063 147.565 106.244 147.568 104.423 147.553C102.857 147.541 102.298 146.8 102.731 145.317C103.575 142.427 104.433 139.539 105.283 136.651C105.341 136.457 105.374 136.259 105.415 136.072C101.902 134.028 100.664 131.678 101.506 128.691C102.203 126.212 104.742 124.345 107.304 124.43C110.033 124.518 112.434 126.474 112.94 129.141C113.387 131.494 112.674 134.442 108.888 136.039Z" fill="#B1D572"/>
<path d="M487.963 230.705C488.13 230.903 488.214 231.2 488.214 231.595V239.393C488.214 239.773 488.13 240.062 487.963 240.26C487.796 240.457 487.59 240.556 487.347 240.556C487.119 240.556 486.914 240.472 486.731 240.305C486.549 240.123 486.45 239.88 486.435 239.576L486.139 236.201H478.705V247.42H492.728L493.093 241.696C493.109 241.438 493.215 241.225 493.413 241.058C493.61 240.891 493.838 240.807 494.097 240.807C494.355 240.807 494.575 240.913 494.758 241.126C494.956 241.324 495.054 241.613 495.054 241.993V248.149C495.054 248.529 494.933 248.826 494.689 249.039C494.461 249.251 494.157 249.358 493.777 249.358H472.662C472.298 249.358 472.009 249.259 471.796 249.061C471.598 248.864 471.5 248.636 471.5 248.377C471.5 248.119 471.598 247.898 471.796 247.716C472.009 247.518 472.29 247.42 472.64 247.42H476.516V224.617H473.438C473.088 224.617 472.814 224.526 472.617 224.344C472.434 224.146 472.343 223.918 472.343 223.66C472.343 223.386 472.442 223.15 472.64 222.953C472.852 222.755 473.134 222.656 473.483 222.656H493.504C493.884 222.656 494.188 222.77 494.416 222.998C494.659 223.211 494.781 223.508 494.781 223.888V230.044C494.781 230.363 494.689 230.614 494.507 230.797C494.325 230.964 494.112 231.048 493.869 231.048C493.625 231.048 493.405 230.972 493.207 230.819C493.025 230.667 492.926 230.455 492.911 230.181L492.592 224.617H478.705V234.445H486.139L486.435 231.412C486.465 231.093 486.564 230.842 486.731 230.66C486.914 230.477 487.119 230.386 487.347 230.386C487.59 230.386 487.796 230.493 487.963 230.705Z" fill="#B1D572"/>
<path d="M461.904 240.852C462.178 241.05 462.315 241.278 462.315 241.536C462.315 241.612 462.307 241.665 462.292 241.696C461.988 243.064 461.388 244.364 460.491 245.595C459.594 246.811 458.378 247.807 456.842 248.582C455.322 249.357 453.521 249.745 451.438 249.745C449.097 249.745 446.999 249.16 445.145 247.989C443.29 246.819 441.831 245.162 440.767 243.018C439.718 240.86 439.193 238.359 439.193 235.516C439.193 232.932 439.718 230.637 440.767 228.63C441.831 226.623 443.29 225.065 445.145 223.956C446.999 222.846 449.09 222.291 451.415 222.291C452.601 222.291 453.734 222.466 454.813 222.815C455.892 223.15 456.835 223.614 457.64 224.206C458.461 224.799 459.077 225.468 459.487 226.213V223.796C459.487 223.446 459.594 223.173 459.807 222.975C460.035 222.762 460.301 222.656 460.605 222.656C460.909 222.656 461.167 222.762 461.38 222.975C461.608 223.173 461.722 223.454 461.722 223.819V230.5C461.722 230.849 461.616 231.116 461.403 231.298C461.205 231.48 460.962 231.572 460.673 231.572C460.4 231.572 460.164 231.48 459.966 231.298C459.769 231.1 459.639 230.834 459.579 230.5C459.351 229.269 458.849 228.182 458.074 227.239C457.314 226.297 456.364 225.567 455.223 225.05C454.083 224.518 452.837 224.252 451.484 224.252C449.432 224.252 447.645 224.738 446.125 225.711C444.605 226.684 443.435 228.037 442.614 229.77C441.793 231.503 441.382 233.472 441.382 235.676C441.382 238.154 441.838 240.312 442.751 242.152C443.678 243.976 444.909 245.375 446.445 246.347C447.98 247.305 449.652 247.784 451.461 247.784C453.62 247.784 455.444 247.199 456.934 246.028C458.423 244.858 459.48 243.239 460.103 241.171C460.255 240.746 460.559 240.533 461.015 240.533C461.334 240.533 461.631 240.639 461.904 240.852Z" fill="#B1D572"/>
<path d="M409.737 247.397V224.617H406.18C405.83 224.617 405.557 224.526 405.359 224.344C405.161 224.146 405.062 223.918 405.062 223.66C405.062 223.386 405.161 223.15 405.359 222.953C405.572 222.755 405.853 222.656 406.203 222.656H412.747C412.99 222.656 413.18 222.702 413.317 222.793C413.454 222.869 413.568 223.006 413.659 223.204L424.741 244.934V224.617H421.343C420.994 224.617 420.72 224.526 420.522 224.344C420.325 224.146 420.226 223.918 420.226 223.66C420.226 223.386 420.325 223.15 420.522 222.953C420.735 222.755 421.024 222.656 421.389 222.656H429.073C429.423 222.656 429.697 222.755 429.894 222.953C430.107 223.15 430.213 223.386 430.213 223.66C430.213 223.918 430.115 224.146 429.917 224.344C429.735 224.526 429.469 224.617 429.119 224.617H426.93V248.286C426.93 248.757 426.824 249.115 426.611 249.358C426.398 249.601 426.132 249.723 425.813 249.723C425.569 249.723 425.326 249.647 425.083 249.495C424.855 249.343 424.673 249.13 424.536 248.856L411.926 224.64V247.397H415.073C415.422 247.397 415.696 247.496 415.894 247.693C416.091 247.891 416.19 248.119 416.19 248.377C416.19 248.651 416.091 248.887 415.894 249.084C415.696 249.267 415.415 249.358 415.05 249.358H406.887C406.522 249.358 406.241 249.267 406.043 249.084C405.845 248.887 405.747 248.651 405.747 248.377C405.747 248.119 405.845 247.891 406.043 247.693C406.241 247.496 406.514 247.397 406.864 247.397H409.737Z" fill="#B1D572"/>
<path d="M389.128 230.705C389.296 230.903 389.379 231.2 389.379 231.595V239.393C389.379 239.773 389.296 240.062 389.128 240.26C388.961 240.457 388.756 240.556 388.513 240.556C388.285 240.556 388.079 240.472 387.897 240.305C387.715 240.123 387.616 239.88 387.601 239.576L387.304 236.201H379.871V247.42H393.894L394.259 241.696C394.274 241.438 394.38 241.225 394.578 241.058C394.776 240.891 395.004 240.807 395.262 240.807C395.521 240.807 395.741 240.913 395.923 241.126C396.121 241.324 396.22 241.613 396.22 241.993V248.149C396.22 248.529 396.098 248.826 395.855 249.039C395.627 249.251 395.323 249.358 394.943 249.358H373.828C373.463 249.358 373.174 249.259 372.961 249.061C372.764 248.864 372.665 248.636 372.665 248.377C372.665 248.119 372.764 247.898 372.961 247.716C373.174 247.518 373.456 247.42 373.805 247.42H377.682V224.617H374.603C374.254 224.617 373.98 224.526 373.782 224.344C373.6 224.146 373.509 223.918 373.509 223.66C373.509 223.386 373.608 223.15 373.805 222.953C374.018 222.755 374.299 222.656 374.649 222.656H394.669C395.049 222.656 395.353 222.77 395.581 222.998C395.825 223.211 395.946 223.508 395.946 223.888V230.044C395.946 230.363 395.855 230.614 395.673 230.797C395.49 230.964 395.277 231.048 395.034 231.048C394.791 231.048 394.57 230.972 394.373 230.819C394.19 230.667 394.092 230.455 394.076 230.181L393.757 224.617H379.871V234.445H387.304L387.601 231.412C387.631 231.093 387.73 230.842 387.897 230.66C388.079 230.477 388.285 230.386 388.513 230.386C388.756 230.386 388.961 230.493 389.128 230.705Z" fill="#B1D572"/>
<path d="M347.131 247.488H351.236C351.585 247.488 351.859 247.579 352.056 247.762C352.254 247.944 352.353 248.164 352.353 248.423C352.353 248.666 352.254 248.887 352.056 249.084C351.859 249.267 351.578 249.358 351.213 249.358H342.115C341.75 249.358 341.461 249.267 341.248 249.084C341.05 248.887 340.952 248.666 340.952 248.423C340.952 248.164 341.05 247.944 341.248 247.762C341.446 247.579 341.727 247.488 342.092 247.488H344.942V224.617H342.73C342.381 224.617 342.099 224.526 341.887 224.344C341.689 224.146 341.59 223.918 341.59 223.66C341.59 223.386 341.689 223.15 341.887 222.953C342.099 222.755 342.388 222.656 342.753 222.656H350.05C352.497 222.656 354.519 222.846 356.115 223.226C357.711 223.591 358.958 224.306 359.855 225.37C360.767 226.419 361.223 227.931 361.223 229.907C361.223 231.534 360.774 232.864 359.878 233.898C358.996 234.916 357.879 235.676 356.526 236.178L361.177 247.488H363.093C363.625 247.488 363.997 247.579 364.21 247.762C364.438 247.929 364.552 248.142 364.552 248.4C364.552 248.674 364.438 248.902 364.21 249.084C363.982 249.267 363.617 249.358 363.116 249.358H357.757C357.392 249.358 357.103 249.267 356.89 249.084C356.693 248.887 356.594 248.659 356.594 248.4C356.594 248.157 356.693 247.944 356.89 247.762C357.088 247.579 357.362 247.488 357.711 247.488H358.874L354.77 236.68C354.603 236.74 354.086 236.809 353.219 236.885C352.353 236.961 351.654 236.999 351.122 236.999H347.131V247.488ZM350.027 224.617H347.131V235.243H349.571C351.699 235.243 353.425 235.122 354.747 234.878C356.085 234.62 357.134 234.118 357.894 233.373C358.654 232.613 359.034 231.511 359.034 230.067C359.034 228.532 358.737 227.376 358.145 226.601C357.552 225.826 356.624 225.301 355.363 225.028C354.101 224.754 352.322 224.617 350.027 224.617Z" fill="#B1D572"/>
<path d="M323.239 230.705C323.406 230.903 323.49 231.2 323.49 231.595V239.393C323.49 239.773 323.406 240.062 323.239 240.26C323.071 240.457 322.866 240.556 322.623 240.556C322.395 240.556 322.19 240.472 322.007 240.305C321.825 240.123 321.726 239.88 321.711 239.576L321.414 236.201H313.981V247.42H328.004L328.369 241.696C328.384 241.438 328.491 241.225 328.688 241.058C328.886 240.891 329.114 240.807 329.373 240.807C329.631 240.807 329.851 240.913 330.034 241.126C330.231 241.324 330.33 241.613 330.33 241.993V248.149C330.33 248.529 330.209 248.826 329.965 249.039C329.737 249.251 329.433 249.358 329.053 249.358H307.938C307.573 249.358 307.285 249.259 307.072 249.061C306.874 248.864 306.775 248.636 306.775 248.377C306.775 248.119 306.874 247.898 307.072 247.716C307.285 247.518 307.566 247.42 307.916 247.42H311.792V224.617H308.714C308.364 224.617 308.09 224.526 307.893 224.344C307.71 224.146 307.619 223.918 307.619 223.66C307.619 223.386 307.718 223.15 307.916 222.953C308.128 222.755 308.41 222.656 308.759 222.656H328.78C329.16 222.656 329.464 222.77 329.692 222.998C329.935 223.211 330.057 223.508 330.057 223.888V230.044C330.057 230.363 329.965 230.614 329.783 230.797C329.601 230.964 329.388 231.048 329.144 231.048C328.901 231.048 328.681 230.972 328.483 230.819C328.301 230.667 328.202 230.455 328.187 230.181L327.868 224.617H313.981V234.445H321.414L321.711 231.412C321.741 231.093 321.84 230.842 322.007 230.66C322.19 230.477 322.395 230.386 322.623 230.386C322.866 230.386 323.071 230.493 323.239 230.705Z" fill="#B1D572"/>
<path d="M290.545 230.705C290.712 230.903 290.796 231.2 290.796 231.595V239.393C290.796 239.773 290.712 240.062 290.545 240.26C290.377 240.457 290.172 240.556 289.929 240.556C289.701 240.556 289.496 240.472 289.313 240.305C289.131 240.123 289.032 239.88 289.017 239.576L288.72 236.201H281.036V247.42H289.017C289.351 247.42 289.61 247.518 289.792 247.716C289.975 247.898 290.066 248.119 290.066 248.377C290.066 248.651 289.975 248.887 289.792 249.084C289.61 249.267 289.359 249.358 289.04 249.358H274.993C274.629 249.358 274.34 249.259 274.127 249.061C273.929 248.864 273.831 248.636 273.831 248.377C273.831 248.119 273.929 247.898 274.127 247.716C274.34 247.518 274.621 247.42 274.971 247.42H278.847V224.617H275.769C275.419 224.617 275.146 224.526 274.948 224.344C274.765 224.146 274.674 223.918 274.674 223.66C274.674 223.386 274.773 223.15 274.971 222.953C275.184 222.755 275.465 222.656 275.814 222.656H296.131C296.511 222.656 296.815 222.77 297.043 222.998C297.287 223.211 297.408 223.508 297.408 223.888V230.044C297.408 230.363 297.317 230.614 297.135 230.797C296.952 230.964 296.739 231.048 296.496 231.048C296.253 231.048 296.032 230.972 295.835 230.819C295.652 230.667 295.554 230.455 295.538 230.181L295.219 224.617H281.036V234.445H288.72L289.017 231.412C289.047 231.093 289.146 230.842 289.313 230.66C289.496 230.477 289.701 230.386 289.929 230.386C290.172 230.386 290.377 230.493 290.545 230.705Z" fill="#B1D572"/>
<path d="M245.013 247.397V224.617H241.456C241.107 224.617 240.833 224.526 240.635 224.344C240.438 224.146 240.339 223.918 240.339 223.66C240.339 223.386 240.438 223.15 240.635 222.953C240.848 222.755 241.129 222.656 241.479 222.656H248.023C248.266 222.656 248.456 222.702 248.593 222.793C248.73 222.869 248.844 223.006 248.935 223.204L260.017 244.934V224.617H256.62C256.27 224.617 255.996 224.526 255.799 224.344C255.601 224.146 255.502 223.918 255.502 223.66C255.502 223.386 255.601 223.15 255.799 222.953C256.012 222.755 256.301 222.656 256.665 222.656H264.35C264.699 222.656 264.973 222.755 265.171 222.953C265.383 223.15 265.49 223.386 265.49 223.66C265.49 223.918 265.391 224.146 265.193 224.344C265.011 224.526 264.745 224.617 264.395 224.617H262.206V248.286C262.206 248.757 262.1 249.115 261.887 249.358C261.674 249.601 261.408 249.723 261.089 249.723C260.846 249.723 260.603 249.647 260.359 249.495C260.131 249.343 259.949 249.13 259.812 248.856L247.202 224.64V247.397H250.349C250.699 247.397 250.972 247.496 251.17 247.693C251.368 247.891 251.466 248.119 251.466 248.377C251.466 248.651 251.368 248.887 251.17 249.084C250.972 249.267 250.691 249.358 250.326 249.358H242.163C241.798 249.358 241.517 249.267 241.319 249.084C241.122 248.887 241.023 248.651 241.023 248.377C241.023 248.119 241.122 247.891 241.319 247.693C241.517 247.496 241.791 247.397 242.14 247.397H245.013Z" fill="#B1D572"/>
<path d="M230.036 229.383C230.933 231.48 231.382 233.715 231.382 236.086C231.382 238.458 230.933 240.685 230.036 242.768C229.155 244.85 227.832 246.538 226.069 247.83C224.305 249.107 222.185 249.745 219.707 249.745C217.229 249.745 215.109 249.107 213.345 247.83C211.582 246.538 210.252 244.85 209.355 242.768C208.473 240.685 208.032 238.458 208.032 236.086C208.032 233.715 208.473 231.48 209.355 229.383C210.252 227.27 211.582 225.559 213.345 224.252C215.109 222.945 217.229 222.291 219.707 222.291C222.185 222.291 224.305 222.945 226.069 224.252C227.832 225.559 229.155 227.27 230.036 229.383ZM228.121 241.81C228.836 240.016 229.193 238.108 229.193 236.086C229.193 234.034 228.828 232.111 228.098 230.317C227.369 228.508 226.289 227.049 224.86 225.939C223.431 224.814 221.714 224.252 219.707 224.252C217.7 224.252 215.983 224.814 214.554 225.939C213.125 227.049 212.045 228.508 211.316 230.317C210.586 232.111 210.221 234.034 210.221 236.086C210.221 238.108 210.578 240.016 211.293 241.81C212.007 243.588 213.079 245.033 214.508 246.142C215.937 247.237 217.67 247.784 219.707 247.784C221.744 247.784 223.477 247.237 224.906 246.142C226.335 245.033 227.407 243.588 228.121 241.81Z" fill="#B1D572"/>
<path d="M198.346 240.852C198.62 241.05 198.756 241.278 198.756 241.536C198.756 241.612 198.749 241.665 198.734 241.696C198.43 243.064 197.829 244.364 196.932 245.595C196.035 246.811 194.819 247.807 193.284 248.582C191.764 249.357 189.962 249.745 187.88 249.745C185.539 249.745 183.441 249.16 181.586 247.989C179.732 246.819 178.272 245.162 177.208 243.018C176.159 240.86 175.635 238.359 175.635 235.516C175.635 232.932 176.159 230.637 177.208 228.63C178.272 226.623 179.732 225.065 181.586 223.956C183.441 222.846 185.531 222.291 187.857 222.291C189.043 222.291 190.175 222.466 191.254 222.815C192.334 223.15 193.276 223.614 194.082 224.206C194.903 224.799 195.518 225.468 195.929 226.213V223.796C195.929 223.446 196.035 223.173 196.248 222.975C196.476 222.762 196.742 222.656 197.046 222.656C197.35 222.656 197.609 222.762 197.821 222.975C198.049 223.173 198.163 223.454 198.163 223.819V230.5C198.163 230.849 198.057 231.116 197.844 231.298C197.647 231.48 197.403 231.572 197.115 231.572C196.841 231.572 196.605 231.48 196.408 231.298C196.21 231.1 196.081 230.834 196.02 230.5C195.792 229.269 195.29 228.182 194.515 227.239C193.755 226.297 192.805 225.567 191.665 225.05C190.525 224.518 189.278 224.252 187.925 224.252C185.873 224.252 184.087 224.738 182.567 225.711C181.047 226.684 179.876 228.037 179.055 229.77C178.234 231.503 177.824 233.472 177.824 235.676C177.824 238.154 178.28 240.312 179.192 242.152C180.119 243.976 181.351 245.375 182.886 246.347C184.421 247.305 186.093 247.784 187.902 247.784C190.061 247.784 191.885 247.199 193.375 246.028C194.865 244.858 195.921 243.239 196.545 241.171C196.697 240.746 197.001 240.533 197.457 240.533C197.776 240.533 198.072 240.639 198.346 240.852Z" fill="#B1D572"/>
<path d="M420.728 171.853C420.941 171.67 421.222 171.579 421.572 171.579H427.523C427.888 171.579 428.169 171.67 428.367 171.853C428.579 172.02 428.686 172.225 428.686 172.468C428.686 172.696 428.587 172.894 428.389 173.061C428.192 173.228 427.918 173.312 427.569 173.312H426.314L418.949 185.785V196.32H424.239C424.589 196.32 424.855 196.418 425.037 196.616C425.235 196.798 425.334 197.019 425.334 197.277C425.334 197.551 425.227 197.787 425.015 197.984C424.817 198.182 424.543 198.281 424.194 198.281H410.854C410.49 198.281 410.201 198.182 409.988 197.984C409.775 197.787 409.669 197.551 409.669 197.277C409.669 197.019 409.767 196.798 409.965 196.616C410.178 196.418 410.459 196.32 410.809 196.32H416.76V185.671L409.121 173.312H407.206C406.856 173.312 406.575 173.228 406.362 173.061C406.165 172.879 406.066 172.674 406.066 172.446C406.066 172.218 406.172 172.02 406.385 171.853C406.598 171.67 406.879 171.579 407.229 171.579H414.754C415.118 171.579 415.4 171.67 415.597 171.853C415.81 172.02 415.917 172.218 415.917 172.446C415.917 172.674 415.81 172.879 415.597 173.061C415.4 173.228 415.126 173.312 414.776 173.312H411.675L417.969 183.847L424.08 173.312H421.549C421.199 173.312 420.918 173.228 420.705 173.061C420.507 172.879 420.409 172.674 420.409 172.446C420.409 172.218 420.515 172.02 420.728 171.853Z" fill="#B1D572"/>
<path d="M383.291 173.54H375.356L375.082 179.72C375.067 180.054 374.968 180.312 374.786 180.495C374.603 180.662 374.39 180.746 374.147 180.746C373.858 180.746 373.6 180.639 373.372 180.426C373.144 180.198 373.03 179.894 373.03 179.514V172.81C373.03 172.385 373.098 172.073 373.235 171.876C373.387 171.678 373.638 171.579 373.987 171.579H394.874C395.194 171.579 395.422 171.686 395.558 171.898C395.711 172.096 395.787 172.4 395.787 172.81V179.514C395.787 179.894 395.68 180.191 395.467 180.404C395.27 180.601 395.026 180.7 394.738 180.7C394.479 180.7 394.251 180.616 394.054 180.449C393.856 180.267 393.75 180.024 393.734 179.72L393.506 173.54H385.48V196.32H390.998C391.348 196.32 391.621 196.418 391.819 196.616C392.017 196.798 392.115 197.019 392.115 197.277C392.115 197.551 392.009 197.787 391.796 197.984C391.598 198.182 391.317 198.281 390.952 198.281H377.818C377.453 198.281 377.165 198.182 376.952 197.984C376.739 197.787 376.633 197.551 376.633 197.277C376.633 197.019 376.731 196.798 376.929 196.616C377.142 196.418 377.423 196.32 377.773 196.32H383.291V173.54Z" fill="#B1D572"/>
<path d="M360.881 198.007C360.683 198.189 360.402 198.281 360.037 198.281H344.417C344.052 198.281 343.764 198.189 343.551 198.007C343.353 197.809 343.254 197.574 343.254 197.3C343.254 197.042 343.353 196.814 343.551 196.616C343.764 196.418 344.045 196.32 344.395 196.32H351.349V173.54H344.395C344.045 173.54 343.764 173.449 343.551 173.266C343.353 173.069 343.254 172.841 343.254 172.582C343.254 172.309 343.353 172.073 343.551 171.876C343.764 171.678 344.052 171.579 344.417 171.579H360.037C360.387 171.579 360.66 171.678 360.858 171.876C361.071 172.073 361.177 172.309 361.177 172.582C361.177 172.841 361.078 173.069 360.881 173.266C360.683 173.449 360.409 173.54 360.06 173.54H353.538V196.32H360.06C360.409 196.32 360.683 196.418 360.881 196.616C361.078 196.814 361.177 197.042 361.177 197.3C361.177 197.574 361.078 197.809 360.881 198.007Z" fill="#B1D572"/>
<path d="M314.186 196.411H318.29C318.64 196.411 318.913 196.502 319.111 196.684C319.309 196.867 319.408 197.087 319.408 197.346C319.408 197.589 319.309 197.809 319.111 198.007C318.913 198.189 318.632 198.281 318.267 198.281H309.169C308.804 198.281 308.516 198.189 308.303 198.007C308.105 197.809 308.006 197.589 308.006 197.346C308.006 197.087 308.105 196.867 308.303 196.684C308.5 196.502 308.782 196.411 309.146 196.411H311.997V173.54H309.785C309.435 173.54 309.154 173.449 308.941 173.266C308.744 173.069 308.645 172.841 308.645 172.582C308.645 172.309 308.744 172.073 308.941 171.876C309.154 171.678 309.443 171.579 309.808 171.579H317.104C319.552 171.579 321.574 171.769 323.17 172.149C324.766 172.514 326.013 173.228 326.909 174.293C327.822 175.341 328.278 176.854 328.278 178.83C328.278 180.457 327.829 181.787 326.932 182.821C326.051 183.839 324.933 184.599 323.58 185.101L328.232 196.411H330.147C330.679 196.411 331.052 196.502 331.265 196.684C331.493 196.852 331.607 197.065 331.607 197.323C331.607 197.597 331.493 197.825 331.265 198.007C331.037 198.189 330.672 198.281 330.17 198.281H324.812C324.447 198.281 324.158 198.189 323.945 198.007C323.748 197.809 323.649 197.581 323.649 197.323C323.649 197.08 323.748 196.867 323.945 196.684C324.143 196.502 324.416 196.411 324.766 196.411H325.929L321.825 185.603C321.657 185.663 321.14 185.732 320.274 185.808C319.408 185.884 318.708 185.922 318.176 185.922H314.186V196.411ZM317.082 173.54H314.186V184.166H316.626C318.754 184.166 320.479 184.044 321.802 183.801C323.139 183.543 324.188 183.041 324.948 182.296C325.709 181.536 326.089 180.434 326.089 178.99C326.089 177.455 325.792 176.299 325.199 175.524C324.606 174.749 323.679 174.224 322.417 173.951C321.156 173.677 319.377 173.54 317.082 173.54Z" fill="#B1D572"/>
<path d="M295.539 173.54V188.909C295.539 190.824 295.151 192.519 294.376 193.994C293.616 195.468 292.536 196.616 291.138 197.437C289.754 198.258 288.166 198.668 286.372 198.668C284.548 198.668 282.936 198.281 281.538 197.505C280.155 196.715 279.075 195.582 278.3 194.108C277.525 192.633 277.137 190.885 277.137 188.863V173.54H273.831C273.481 173.54 273.207 173.449 273.01 173.266C272.812 173.069 272.713 172.841 272.713 172.582C272.713 172.309 272.812 172.073 273.01 171.876C273.223 171.678 273.504 171.579 273.853 171.579H282.997C283.347 171.579 283.62 171.678 283.818 171.876C284.031 172.073 284.137 172.309 284.137 172.582C284.137 172.841 284.039 173.069 283.841 173.266C283.643 173.449 283.37 173.54 283.02 173.54H279.326V188.863C279.326 191.356 279.934 193.287 281.15 194.655C282.366 196.023 284.107 196.707 286.372 196.707C287.771 196.707 288.994 196.38 290.043 195.727C291.092 195.058 291.905 194.138 292.483 192.968C293.061 191.782 293.349 190.429 293.349 188.909V173.54H290.59C290.241 173.54 289.96 173.449 289.747 173.266C289.549 173.069 289.45 172.841 289.45 172.582C289.45 172.309 289.549 172.073 289.747 171.876C289.96 171.678 290.248 171.579 290.613 171.579H298.206C298.708 171.579 299.096 171.678 299.369 171.876C299.658 172.073 299.803 172.309 299.803 172.582C299.803 172.841 299.666 173.069 299.392 173.266C299.118 173.449 298.731 173.54 298.229 173.54H295.539Z" fill="#B1D572"/>
<path d="M264.235 189.775C264.509 189.973 264.645 190.201 264.645 190.459C264.645 190.535 264.638 190.588 264.623 190.619C264.319 191.987 263.718 193.287 262.821 194.518C261.924 195.734 260.708 196.73 259.173 197.505C257.653 198.28 255.851 198.668 253.769 198.668C251.428 198.668 249.33 198.083 247.475 196.912C245.621 195.742 244.161 194.085 243.097 191.941C242.048 189.783 241.524 187.282 241.524 184.439C241.524 181.855 242.048 179.56 243.097 177.553C244.161 175.546 245.621 173.988 247.475 172.878C249.33 171.769 251.42 171.214 253.746 171.214C254.932 171.214 256.064 171.389 257.144 171.738C258.223 172.073 259.165 172.536 259.971 173.129C260.792 173.722 261.408 174.391 261.818 175.136V172.719C261.818 172.369 261.924 172.096 262.137 171.898C262.365 171.685 262.631 171.579 262.935 171.579C263.239 171.579 263.498 171.685 263.711 171.898C263.939 172.096 264.053 172.377 264.053 172.742V179.423C264.053 179.772 263.946 180.038 263.733 180.221C263.536 180.403 263.293 180.494 263.004 180.494C262.73 180.494 262.494 180.403 262.297 180.221C262.099 180.023 261.97 179.757 261.909 179.423C261.681 178.191 261.18 177.104 260.404 176.162C259.644 175.219 258.694 174.49 257.554 173.973C256.414 173.441 255.167 173.175 253.814 173.175C251.762 173.175 249.976 173.661 248.456 174.634C246.936 175.607 245.765 176.96 244.944 178.693C244.123 180.426 243.713 182.395 243.713 184.599C243.713 187.077 244.169 189.235 245.081 191.075C246.008 192.899 247.24 194.297 248.775 195.27C250.31 196.228 251.983 196.707 253.792 196.707C255.95 196.707 257.774 196.122 259.264 194.951C260.754 193.781 261.81 192.162 262.434 190.094C262.586 189.669 262.89 189.456 263.346 189.456C263.665 189.456 263.961 189.562 264.235 189.775Z" fill="#B1D572"/>
<path d="M224.405 179.628C224.572 179.826 224.656 180.122 224.656 180.518V188.316C224.656 188.696 224.572 188.985 224.405 189.183C224.237 189.38 224.032 189.479 223.789 189.479C223.561 189.479 223.356 189.395 223.173 189.228C222.991 189.046 222.892 188.802 222.877 188.498L222.581 185.124H215.147V196.342H229.17L229.535 190.619C229.55 190.361 229.657 190.148 229.854 189.981C230.052 189.813 230.28 189.73 230.539 189.73C230.797 189.73 231.017 189.836 231.2 190.049C231.397 190.247 231.496 190.535 231.496 190.915V197.072C231.496 197.452 231.375 197.749 231.131 197.961C230.903 198.174 230.599 198.281 230.219 198.281H209.104C208.739 198.281 208.451 198.182 208.238 197.984C208.04 197.787 207.941 197.559 207.941 197.3C207.941 197.042 208.04 196.821 208.238 196.639C208.451 196.441 208.732 196.342 209.082 196.342H212.958V173.54H209.88C209.53 173.54 209.256 173.449 209.059 173.266C208.876 173.069 208.785 172.841 208.785 172.582C208.785 172.309 208.884 172.073 209.082 171.876C209.294 171.678 209.576 171.579 209.925 171.579H229.946C230.326 171.579 230.63 171.693 230.858 171.921C231.101 172.134 231.223 172.43 231.223 172.81V178.967C231.223 179.286 231.131 179.537 230.949 179.72C230.767 179.887 230.554 179.97 230.311 179.97C230.067 179.97 229.847 179.894 229.649 179.742C229.467 179.59 229.368 179.378 229.353 179.104L229.034 173.54H215.147V183.368H222.581L222.877 180.335C222.907 180.016 223.006 179.765 223.173 179.583C223.356 179.4 223.561 179.309 223.789 179.309C224.032 179.309 224.237 179.416 224.405 179.628Z" fill="#B1D572"/>
<path d="M193.557 178.716V176.641C193.466 175.896 193.109 175.265 192.486 174.748C191.878 174.216 191.118 173.821 190.205 173.563C189.309 173.304 188.389 173.175 187.446 173.175C185.501 173.175 183.98 173.616 182.886 174.497C181.791 175.364 181.244 176.557 181.244 178.077C181.244 179.096 181.427 179.886 181.791 180.449C182.171 181.011 182.696 181.452 183.365 181.771C184.034 182.091 185.128 182.516 186.648 183.048L189.749 184.12C191.346 184.667 192.638 185.245 193.626 185.853C194.629 186.446 195.397 187.183 195.929 188.065C196.461 188.931 196.727 189.995 196.727 191.257C196.727 192.975 196.347 194.389 195.587 195.498C194.827 196.608 193.816 197.414 192.554 197.915C191.292 198.417 189.886 198.668 188.336 198.668C187.043 198.668 185.683 198.417 184.254 197.915C182.825 197.414 181.708 196.737 180.902 195.886C180.902 196.768 180.811 197.452 180.628 197.938C180.446 198.425 180.18 198.668 179.83 198.668C179.435 198.668 179.154 198.546 178.987 198.303C178.819 198.06 178.736 197.619 178.736 196.981V189.821C178.736 189.471 178.827 189.205 179.009 189.022C179.207 188.84 179.45 188.749 179.739 188.749C180.028 188.749 180.271 188.848 180.469 189.045C180.682 189.243 180.788 189.517 180.788 189.866V192.58C180.788 193.218 181.16 193.864 181.905 194.518C182.65 195.156 183.608 195.681 184.778 196.091C185.964 196.502 187.173 196.707 188.404 196.707C190.213 196.707 191.688 196.274 192.828 195.407C193.968 194.541 194.538 193.188 194.538 191.348C194.538 190.406 194.34 189.623 193.945 189C193.55 188.376 192.98 187.86 192.235 187.449C191.505 187.039 190.525 186.621 189.293 186.195L185.554 184.918C184.125 184.432 182.962 183.945 182.065 183.459C181.168 182.957 180.438 182.288 179.876 181.452C179.329 180.601 179.055 179.514 179.055 178.191C179.055 176.717 179.405 175.455 180.104 174.406C180.803 173.357 181.746 172.567 182.931 172.035C184.132 171.487 185.463 171.214 186.922 171.214C188.26 171.214 189.514 171.366 190.684 171.67C191.87 171.974 192.82 172.521 193.535 173.312C193.535 172.612 193.626 172.088 193.808 171.738C193.991 171.389 194.295 171.214 194.72 171.214C195.04 171.214 195.268 171.335 195.404 171.579C195.556 171.822 195.632 172.232 195.632 172.81V178.579C195.632 178.974 195.534 179.278 195.336 179.491C195.138 179.689 194.887 179.788 194.583 179.788C194.31 179.788 194.067 179.696 193.854 179.514C193.656 179.316 193.557 179.05 193.557 178.716Z" fill="#B1D572"/>
<path d="M314.186 145.334H318.29C318.64 145.334 318.913 145.425 319.111 145.607C319.309 145.79 319.408 146.01 319.408 146.269C319.408 146.512 319.309 146.732 319.111 146.93C318.913 147.112 318.632 147.203 318.267 147.203H309.169C308.804 147.203 308.516 147.112 308.303 146.93C308.105 146.732 308.006 146.512 308.006 146.269C308.006 146.01 308.105 145.79 308.303 145.607C308.5 145.425 308.782 145.334 309.146 145.334H311.997V122.463H309.785C309.435 122.463 309.154 122.372 308.941 122.189C308.744 121.992 308.645 121.764 308.645 121.505C308.645 121.232 308.744 120.996 308.941 120.798C309.154 120.601 309.443 120.502 309.808 120.502H317.104C319.552 120.502 321.574 120.692 323.17 121.072C324.766 121.437 326.013 122.151 326.909 123.215C327.822 124.264 328.278 125.777 328.278 127.753C328.278 129.38 327.829 130.71 326.932 131.744C326.051 132.762 324.933 133.522 323.58 134.024L328.232 145.334H330.147C330.679 145.334 331.052 145.425 331.265 145.607C331.493 145.775 331.607 145.987 331.607 146.246C331.607 146.519 331.493 146.747 331.265 146.93C331.037 147.112 330.672 147.203 330.17 147.203H324.812C324.447 147.203 324.158 147.112 323.945 146.93C323.748 146.732 323.649 146.504 323.649 146.246C323.649 146.003 323.748 145.79 323.945 145.607C324.143 145.425 324.416 145.334 324.766 145.334H325.929L321.825 134.525C321.657 134.586 321.14 134.655 320.274 134.731C319.408 134.807 318.708 134.845 318.176 134.845H314.186V145.334ZM317.082 122.463H314.186V133.089H316.626C318.754 133.089 320.479 132.967 321.802 132.724C323.139 132.466 324.188 131.964 324.948 131.219C325.709 130.459 326.089 129.357 326.089 127.913C326.089 126.377 325.792 125.222 325.199 124.447C324.606 123.671 323.679 123.147 322.417 122.873C321.156 122.6 319.377 122.463 317.082 122.463Z" fill="#B1D572"/>
<path d="M290.294 128.551C290.461 128.749 290.545 129.045 290.545 129.44V137.239C290.545 137.619 290.461 137.908 290.294 138.105C290.127 138.303 289.921 138.402 289.678 138.402C289.45 138.402 289.245 138.318 289.063 138.151C288.88 137.969 288.781 137.725 288.766 137.421L288.47 134.047H281.036V145.265H295.06L295.424 139.542C295.44 139.283 295.546 139.071 295.744 138.903C295.941 138.736 296.169 138.653 296.428 138.653C296.686 138.653 296.907 138.759 297.089 138.972C297.287 139.169 297.385 139.458 297.385 139.838V145.995C297.385 146.375 297.264 146.671 297.021 146.884C296.793 147.097 296.488 147.203 296.108 147.203H274.993C274.629 147.203 274.34 147.105 274.127 146.907C273.929 146.709 273.831 146.481 273.831 146.223C273.831 145.965 273.929 145.744 274.127 145.562C274.34 145.364 274.621 145.265 274.971 145.265H278.847V122.463H275.769C275.419 122.463 275.146 122.372 274.948 122.189C274.765 121.992 274.674 121.764 274.674 121.505C274.674 121.232 274.773 120.996 274.971 120.798C275.184 120.601 275.465 120.502 275.814 120.502H295.835C296.215 120.502 296.519 120.616 296.747 120.844C296.99 121.057 297.112 121.353 297.112 121.733V127.89C297.112 128.209 297.021 128.46 296.838 128.642C296.656 128.81 296.443 128.893 296.2 128.893C295.956 128.893 295.736 128.817 295.538 128.665C295.356 128.513 295.257 128.3 295.242 128.027L294.923 122.463H281.036V132.291H288.47L288.766 129.258C288.797 128.939 288.895 128.688 289.063 128.506C289.245 128.323 289.45 128.232 289.678 128.232C289.921 128.232 290.127 128.338 290.294 128.551Z" fill="#B1D572"/>
<path d="M260.405 130.307C259.705 131.219 258.816 131.835 257.737 132.154C259.5 132.412 260.929 133.127 262.024 134.297C263.133 135.468 263.688 137.125 263.688 139.268C263.688 141.959 262.632 143.958 260.519 145.265C258.421 146.557 255.662 147.203 252.241 147.203H244.078C243.713 147.203 243.425 147.112 243.212 146.93C243.014 146.732 242.915 146.497 242.915 146.223C242.915 145.965 243.014 145.737 243.212 145.539C243.425 145.341 243.706 145.242 244.055 145.242H247.704V122.463H243.919C243.569 122.463 243.295 122.364 243.098 122.167C242.9 121.969 242.801 121.733 242.801 121.46C242.801 121.201 242.892 120.981 243.075 120.798C243.273 120.601 243.546 120.502 243.896 120.502H252.013C254.871 120.502 257.159 120.996 258.877 121.984C260.61 122.972 261.476 124.622 261.476 126.932C261.476 128.27 261.119 129.395 260.405 130.307ZM249.893 131.858H252.857C254.043 131.858 255.137 131.69 256.141 131.356C257.144 131.021 257.957 130.489 258.58 129.76C259.204 129.03 259.515 128.118 259.515 127.023C259.515 125.382 258.885 124.211 257.623 123.512C256.376 122.813 254.605 122.463 252.31 122.463H249.893V131.858ZM249.893 145.242H252.31C255.213 145.242 257.471 144.756 259.082 143.783C260.694 142.81 261.499 141.191 261.499 138.926C261.499 137.406 261.112 136.258 260.336 135.483C259.576 134.708 258.58 134.199 257.349 133.955C256.133 133.712 254.636 133.59 252.857 133.59H249.893V145.242Z" fill="#B1D572"/>
<path d="M223.059 120.776C223.272 120.593 223.553 120.502 223.903 120.502H229.854C230.219 120.502 230.5 120.593 230.698 120.776C230.91 120.943 231.017 121.148 231.017 121.391C231.017 121.619 230.918 121.817 230.72 121.984C230.523 122.151 230.249 122.235 229.9 122.235H228.645L221.28 134.708V145.242H226.57C226.92 145.242 227.186 145.341 227.369 145.539C227.566 145.721 227.665 145.942 227.665 146.2C227.665 146.474 227.559 146.709 227.346 146.907C227.148 147.105 226.874 147.203 226.525 147.203H213.185C212.821 147.203 212.532 147.105 212.319 146.907C212.106 146.709 212 146.474 212 146.2C212 145.942 212.099 145.721 212.296 145.539C212.509 145.341 212.79 145.242 213.14 145.242H219.091V134.594L211.452 122.235H209.537C209.187 122.235 208.906 122.151 208.693 121.984C208.496 121.802 208.397 121.596 208.397 121.368C208.397 121.14 208.503 120.943 208.716 120.776C208.929 120.593 209.21 120.502 209.56 120.502H217.085C217.45 120.502 217.731 120.593 217.928 120.776C218.141 120.943 218.248 121.14 218.248 121.368C218.248 121.596 218.141 121.802 217.928 121.984C217.731 122.151 217.457 122.235 217.107 122.235H214.006L220.3 132.77L226.411 122.235H223.88C223.53 122.235 223.249 122.151 223.036 121.984C222.838 121.802 222.74 121.596 222.74 121.368C222.74 121.14 222.846 120.943 223.059 120.776Z" fill="#B1D572"/>
<path d="M198.346 138.698C198.62 138.895 198.756 139.123 198.756 139.382C198.756 139.458 198.749 139.511 198.734 139.542C198.43 140.91 197.829 142.209 196.932 143.441C196.035 144.657 194.819 145.653 193.284 146.428C191.764 147.203 189.962 147.591 187.88 147.591C185.539 147.591 183.441 147.005 181.586 145.835C179.732 144.664 178.272 143.007 177.208 140.864C176.159 138.705 175.635 136.205 175.635 133.362C175.635 130.778 176.159 128.482 177.208 126.476C178.272 124.469 179.732 122.911 181.586 121.801C183.441 120.692 185.531 120.137 187.857 120.137C189.043 120.137 190.175 120.312 191.254 120.661C192.334 120.996 193.276 121.459 194.082 122.052C194.903 122.645 195.518 123.314 195.929 124.059V121.642C195.929 121.292 196.035 121.018 196.248 120.821C196.476 120.608 196.742 120.502 197.046 120.502C197.35 120.502 197.609 120.608 197.821 120.821C198.049 121.018 198.163 121.3 198.163 121.664V128.346C198.163 128.695 198.057 128.961 197.844 129.144C197.647 129.326 197.403 129.417 197.115 129.417C196.841 129.417 196.605 129.326 196.408 129.144C196.21 128.946 196.081 128.68 196.02 128.346C195.792 127.114 195.29 126.027 194.515 125.085C193.755 124.142 192.805 123.413 191.665 122.896C190.525 122.364 189.278 122.098 187.925 122.098C185.873 122.098 184.087 122.584 182.567 123.557C181.047 124.53 179.876 125.883 179.055 127.616C178.234 129.349 177.824 131.317 177.824 133.522C177.824 136 178.28 138.158 179.192 139.998C180.119 141.822 181.351 143.22 182.886 144.193C184.421 145.151 186.093 145.63 187.902 145.63C190.061 145.63 191.885 145.044 193.375 143.874C194.865 142.703 195.921 141.084 196.545 139.017C196.697 138.591 197.001 138.379 197.457 138.379C197.776 138.379 198.072 138.485 198.346 138.698Z" fill="#B1D572"/>
<path d="M529.372 90.5221H525.029V96.126H514.335V90.5221H497.383V83.5172L511.252 63.4365H522.554L510.225 81.9761H514.662V76.9793H525.029V81.9761H529.372V90.5221Z" fill="#B1D572"/>
<path d="M490.733 87.5801V96.1261H464.534V89.3547L476.349 78.4271C477.377 77.462 478.061 76.6369 478.404 75.952C478.746 75.2671 478.918 74.5977 478.918 73.944C478.918 73.1345 478.637 72.5118 478.077 72.076C477.548 71.609 476.769 71.3755 475.742 71.3755C474.746 71.3755 473.812 71.6401 472.94 72.1694C472.068 72.6986 471.399 73.4458 470.932 74.4109L462.62 70.2547C463.865 67.9198 465.686 66.0829 468.083 64.7442C470.481 63.3744 473.376 62.6895 476.769 62.6895C479.354 62.6895 481.642 63.1097 483.634 63.9503C485.627 64.7909 487.183 65.9895 488.304 67.5462C489.425 69.1028 489.985 70.8929 489.985 72.9166C489.985 74.7223 489.596 76.419 488.818 78.0068C488.071 79.5634 486.592 81.338 484.381 83.3305L479.712 87.5801H490.733Z" fill="#B1D572"/>
<path d="M442.837 96.8733C439.942 96.8733 437.374 96.2039 435.132 94.8652C432.922 93.4954 431.178 91.534 429.902 88.9811C428.656 86.3971 428.034 83.3305 428.034 79.7814C428.034 76.2322 428.656 73.1812 429.902 70.6283C431.178 68.0443 432.922 66.0829 435.132 64.7442C437.374 63.3744 439.942 62.6895 442.837 62.6895C445.733 62.6895 448.286 63.3744 450.496 64.7442C452.738 66.0829 454.481 68.0443 455.726 70.6283C457.003 73.1812 457.641 76.2322 457.641 79.7814C457.641 83.3305 457.003 86.3971 455.726 88.9811C454.481 91.534 452.738 93.4954 450.496 94.8652C448.286 96.2039 445.733 96.8733 442.837 96.8733ZM442.837 88.0471C445.328 88.0471 446.573 85.2919 446.573 79.7814C446.573 74.2709 445.328 71.5156 442.837 71.5156C440.347 71.5156 439.101 74.2709 439.101 79.7814C439.101 85.2919 440.347 88.0471 442.837 88.0471Z" fill="#B1D572"/>
<path d="M421.104 87.5801V96.1261H394.905V89.3547L406.72 78.4271C407.748 77.462 408.433 76.6369 408.775 75.952C409.118 75.2671 409.289 74.5977 409.289 73.944C409.289 73.1345 409.009 72.5118 408.448 72.076C407.919 71.609 407.141 71.3755 406.113 71.3755C405.117 71.3755 404.183 71.6401 403.311 72.1694C402.44 72.6986 401.77 73.4458 401.303 74.4109L392.991 70.2547C394.236 67.9198 396.057 66.0829 398.455 64.7442C400.852 63.3744 403.747 62.6895 407.141 62.6895C409.725 62.6895 412.013 63.1097 414.005 63.9503C415.998 64.7909 417.555 65.9895 418.675 67.5462C419.796 69.1028 420.356 70.8929 420.356 72.9166C420.356 74.7223 419.967 76.419 419.189 78.0068C418.442 79.5634 416.963 81.338 414.753 83.3305L410.083 87.5801H421.104Z" fill="#B1D572"/>
<path d="M355.073 96.8733C351.617 96.8733 348.504 96.1572 345.733 94.7251C342.962 93.2619 340.783 91.2382 339.195 88.6542C337.639 86.039 336.86 83.0814 336.86 79.7814C336.86 76.4813 337.639 73.5392 339.195 70.9552C340.783 68.3401 342.962 66.3164 345.733 64.8843C348.504 63.4211 351.617 62.6895 355.073 62.6895C358.249 62.6895 361.082 63.2498 363.572 64.3706C366.063 65.4914 368.118 67.1103 369.737 69.2273L362.778 75.4383C360.755 72.8854 358.373 71.609 355.633 71.609C353.33 71.609 351.477 72.3562 350.076 73.8506C348.675 75.3138 347.975 77.2907 347.975 79.7814C347.975 82.272 348.675 84.2645 350.076 85.7589C351.477 87.2221 353.33 87.9537 355.633 87.9537C358.373 87.9537 360.755 86.6773 362.778 84.1244L369.737 90.3354C368.118 92.4524 366.063 94.0713 363.572 95.1921C361.082 96.3129 358.249 96.8733 355.073 96.8733Z" fill="#B1D572"/>
<path d="M329.256 87.8135V96.126H302.077V63.4365H328.649V71.749H312.911V75.5783H326.734V83.5172H312.911V87.8135H329.256Z" fill="#B1D572"/>
<path d="M278.903 96.8733C276.195 96.8733 273.549 96.5775 270.965 95.986C268.412 95.3633 266.31 94.5383 264.66 93.5109L268.209 85.4787C269.766 86.3815 271.509 87.1131 273.44 87.6735C275.37 88.2028 277.222 88.4674 278.997 88.4674C280.522 88.4674 281.612 88.3273 282.266 88.0471C282.92 87.7358 283.246 87.2844 283.246 86.6928C283.246 86.0079 282.811 85.4942 281.939 85.1518C281.098 84.8093 279.697 84.4357 277.736 84.031C275.214 83.5017 273.113 82.9413 271.432 82.3498C269.75 81.7272 268.287 80.7309 267.042 79.3611C265.796 77.9601 265.174 76.0766 265.174 73.7105C265.174 71.6557 265.75 69.7877 266.902 68.1066C268.054 66.4254 269.766 65.1022 272.039 64.1371C274.342 63.172 277.129 62.6895 280.398 62.6895C282.639 62.6895 284.834 62.9385 286.982 63.4366C289.162 63.9036 291.076 64.6041 292.726 65.5381L289.411 73.5237C286.204 71.9048 283.169 71.0953 280.304 71.0953C277.471 71.0953 276.055 71.7802 276.055 73.1501C276.055 73.8039 276.475 74.302 277.316 74.6444C278.156 74.9558 279.542 75.2982 281.472 75.6718C283.962 76.1388 286.064 76.6836 287.776 77.3063C289.489 77.8978 290.967 78.8785 292.213 80.2483C293.489 81.6182 294.127 83.4862 294.127 85.8523C294.127 87.907 293.551 89.775 292.399 91.4562C291.248 93.1062 289.52 94.4293 287.216 95.4256C284.943 96.3907 282.172 96.8733 278.903 96.8733Z" fill="#B1D572"/>
<path d="M256.735 63.4365V96.126H247.675L235.253 81.2756V96.126H224.512V63.4365H233.572L245.994 78.2869V63.4365H256.735Z" fill="#B1D572"/>
<path d="M204.473 96.126L204.38 81.2289L197.281 93.1839H192.425L185.326 81.7426V96.126H175.286V63.4365H184.346L194.993 80.8553L205.36 63.4365H214.42L214.513 96.126H204.473Z" fill="#B1D572"/>
</g>
<defs>
<filter id="filter0_b_553_237" x="-23.876" y="-23.2822" width="607.248" height="359" filterUnits="userSpaceOnUse" color-interpolation-filters="sRGB">
<feFlood flood-opacity="0" result="BackgroundImageFix"/>
<feGaussianBlur in="BackgroundImageFix" stdDeviation="12"/>
<feComposite in2="SourceAlpha" operator="in" result="effect1_backgroundBlur_553_237"/>
<feBlend mode="normal" in="SourceGraphic" in2="effect1_backgroundBlur_553_237" result="shape"/>
</filter>
</defs>
</svg>
